<svg width="60" height="60" viewBox="0 0 60 60" fill="none" xmlns="http://www.w3.org/2000/svg">
<path d="M56.3393 50.4586C56.284 50.4586 56.2275 50.454 56.1714 50.4435C55.6625 50.3506 55.3239 49.863 55.416 49.3532C55.6692 47.9554 55.8772 46.5249 56.0346 45.1035C56.0919 44.5896 56.5615 44.2234 57.0696 44.2748C57.5844 44.3322 57.9556 44.7951 57.8983 45.3099C57.7359 46.7743 57.5216 48.2471 57.2609 49.688C57.1792 50.1405 56.7846 50.4586 56.3393 50.4586V50.4586Z" fill="white"/>
<path d="M57.2831 38.6579C56.7855 38.6579 56.3707 38.2662 56.3473 37.7635C55.9384 28.9464 53.6105 22.3563 49.2315 17.6163C48.8799 17.2367 48.9034 16.6433 49.2838 16.2917C49.6643 15.9402 50.2569 15.9645 50.6084 16.3441C55.3005 21.4217 57.7907 28.3998 58.221 37.6773C58.2444 38.1937 57.8452 38.6336 57.3275 38.657C57.3132 38.6575 57.2982 38.6575 57.2831 38.6575L57.2831 38.6579Z" fill="white"/>
<path d="M57.2525 42.4045C57.0089 42.4045 56.7649 42.3016 56.5962 42.1325C56.4179 41.9542 56.3149 41.7106 56.3149 41.467C56.3149 41.2222 56.4179 40.9786 56.587 40.8015C56.9432 40.4546 57.5714 40.4642 57.9184 40.8015C58.0967 40.9786 58.1904 41.2226 58.1904 41.467C58.1904 41.7202 58.0967 41.963 57.9184 42.1325C57.7493 42.3011 57.5057 42.4045 57.2525 42.4045H57.2525Z" fill="white"/>
<path d="M37.8508 37.4557C37.7871 37.4557 37.7231 37.4528 37.6595 37.4474C37.5528 37.4331 37.485 37.4223 37.4167 37.4072C36.4847 37.1896 35.8284 36.4115 35.4555 35.0953C34.9202 33.206 35.147 31.1389 35.3647 29.7498C35.6936 27.645 36.3068 25.7139 37.189 24.0093C37.7402 22.9433 38.5316 21.6526 39.7709 21.1182C40.0204 21.0102 40.2585 20.9436 40.4975 20.9156C40.5979 20.9051 40.6766 20.9014 40.7524 20.9014C41.3785 20.9014 41.9384 21.1508 42.3696 21.6212C43.608 22.9722 43.4891 26.0032 43.3812 27.2425C43.1983 29.3313 42.7203 31.3152 41.9607 33.1382C41.4048 34.4742 40.6679 35.9628 39.421 36.8799C38.9029 37.2624 38.3739 37.4558 37.8508 37.4558L37.8508 37.4557ZM40.7524 22.7772C40.6595 22.7847 40.595 22.8044 40.5134 22.8391C39.8111 23.1421 39.2298 24.1441 38.854 24.8707C38.0655 26.395 37.5143 28.1339 37.2163 30.039C37.0259 31.2549 36.8246 33.0495 37.2594 34.5851C37.4524 35.2648 37.6821 35.5431 37.8332 35.5799L37.8512 35.5816C37.9161 35.5816 38.0613 35.5544 38.3095 35.3707C39.1871 34.7257 39.7718 33.5161 40.2284 32.4183C40.9135 30.7732 41.3459 28.9768 41.5129 27.08C41.6824 25.1364 41.4668 23.4125 40.9868 22.8894C40.9014 22.7952 40.8386 22.7772 40.7524 22.7772L40.7524 22.7772Z" fill="white"/>
<path d="M35.9429 53.5423C33.674 53.5423 31.7333 51.9213 31.3303 49.688C31.2373 49.1791 31.5768 48.6915 32.0857 48.5986C32.5946 48.5065 33.0822 48.8451 33.1751 49.3553C33.4179 50.6959 34.5814 51.6681 35.9437 51.6681C36.461 51.6681 36.8812 52.087 36.8812 52.6056C36.8812 53.1241 36.461 53.5422 35.9429 53.5422V53.5423Z" fill="white"/>
<path d="M32.2516 50.4587C31.8026 50.4587 31.4062 50.1352 31.3284 49.6785C30.5821 45.3004 30.2728 41.7408 30.3532 38.4768C30.5905 28.918 33.1591 21.4689 37.9884 16.3378C38.3437 15.9612 38.9372 15.944 39.313 16.2977C39.6897 16.653 39.7085 17.2465 39.3532 17.6231C34.8515 22.4081 32.4542 29.4399 32.2273 38.5235C32.1495 41.664 32.4504 45.1086 33.1761 49.3642C33.2632 49.8744 32.92 50.359 32.4094 50.4453C32.3567 50.4545 32.3031 50.4595 32.2516 50.4595L32.2516 50.4587Z" fill="white"/>
<path d="M52.6481 53.5425H35.9424C35.4251 53.5425 35.0049 53.1236 35.0049 52.605C35.0049 52.0864 35.4251 51.6675 35.9424 51.6675H52.6481C53.1654 51.6675 53.5856 52.0864 53.5856 52.605C53.5856 53.1236 53.1658 53.5425 52.6481 53.5425Z" fill="white"/>
<path d="M52.6484 53.5423C52.1311 53.5423 51.7109 53.1233 51.7109 52.6048C51.7109 52.0862 52.1311 51.6673 52.6484 51.6673C54.0094 51.6673 55.1742 50.695 55.417 49.3545C55.509 48.8443 55.9954 48.507 56.5064 48.5978C57.0153 48.6907 57.3547 49.1783 57.2618 49.6872C56.8571 51.9213 54.9172 53.5422 52.6484 53.5422L52.6484 53.5423Z" fill="white"/>
<path d="M49.9204 17.9175C49.4031 17.9175 48.9829 17.4985 48.9829 16.98V13.23C48.9829 12.7114 49.4031 12.2925 49.9204 12.2925C50.4377 12.2925 50.8579 12.7114 50.8579 13.23V16.98C50.8579 17.4985 50.4377 17.9175 49.9204 17.9175Z" fill="white"/>
<path d="M38.6704 17.9175C38.1531 17.9175 37.7329 17.4985 37.7329 16.98V13.23C37.7329 12.7114 38.1531 12.2925 38.6704 12.2925C39.1877 12.2925 39.6079 12.7114 39.6079 13.23V16.98C39.6079 17.4985 39.1877 17.9175 38.6704 17.9175Z" fill="white"/>
<path d="M49.9204 17.9175H38.6704C38.1531 17.9175 37.7329 17.4985 37.7329 16.98C37.7329 16.4614 38.1531 16.0425 38.6704 16.0425H49.9204C50.4377 16.0425 50.8579 16.4614 50.8579 16.98C50.8579 17.4985 50.4377 17.9175 49.9204 17.9175Z" fill="white"/>
<path d="M49.9204 14.1675H38.6704C38.1531 14.1675 37.7329 13.7485 37.7329 13.23C37.7329 12.7114 38.1531 12.2925 38.6704 12.2925H49.9204C50.4377 12.2925 50.8579 12.7114 50.8579 13.23C50.8579 13.7485 50.4377 14.1675 49.9204 14.1675Z" fill="white"/>
<path d="M40.5466 14.1675C40.4959 14.1675 40.4436 14.1637 40.3909 14.1545C39.8807 14.0691 39.535 13.5866 39.6204 13.0765L40.5579 7.45146C40.6433 6.94128 41.1233 6.59348 41.6368 6.68095C42.147 6.76633 42.4927 7.2489 42.4073 7.75903L41.4698 13.384C41.3941 13.8423 40.9965 14.1675 40.5465 14.1675L40.5466 14.1675Z" fill="white"/>
<path d="M48.0447 14.1674C47.5947 14.1674 47.1971 13.8422 47.1214 13.3835L46.1839 7.75846C46.0985 7.24828 46.4434 6.76488 46.9544 6.68039C47.4683 6.59124 47.948 6.94113 48.0333 7.45089L48.9708 13.0759C49.0562 13.5861 48.7113 14.0695 48.2003 14.154C48.1476 14.1636 48.0953 14.1674 48.0446 14.1674H48.0447Z" fill="white"/>
<path d="M47.1079 8.54248H41.4829C40.9656 8.54248 40.5454 8.12353 40.5454 7.60498C40.5454 7.08643 40.9656 6.66748 41.4829 6.66748H47.1079C47.6252 6.66748 48.0454 7.08643 48.0454 7.60498C48.0454 8.12353 47.6252 8.54248 47.1079 8.54248Z" fill="white"/>
<path d="M23.7324 46.1061C23.4925 46.1061 23.2617 46.0047 23.0861 45.8381C22.9105 45.6625 22.8091 45.4226 22.8091 45.1827C22.8091 44.9428 22.9105 44.7025 23.077 44.5273C23.4373 44.1856 24.0465 44.1856 24.3883 44.5273C24.5639 44.7029 24.6562 44.9428 24.6562 45.1827C24.6562 45.4226 24.5639 45.6629 24.3883 45.8381C24.2127 46.0047 23.9818 46.1061 23.7325 46.1061H23.7324Z" fill="white"/>
<path d="M23.7368 42.4126C23.2273 42.4126 22.8135 41.9988 22.8135 41.4893V33.3584C22.8135 32.8489 23.2273 32.4351 23.7368 32.4351C24.2463 32.4351 24.6602 32.8489 24.6602 33.3584V41.4893C24.6602 41.9988 24.2467 42.4126 23.7368 42.4126Z" fill="white"/>
<path d="M23.7368 51.646C23.2273 51.646 22.8135 51.2322 22.8135 50.7227V48.876C22.8135 48.3665 23.2273 47.9526 23.7368 47.9526C24.2463 47.9526 24.6602 48.3665 24.6602 48.876V50.7227C24.6602 51.2322 24.2467 51.646 23.7368 51.646Z" fill="white"/>
<path d="M21.8901 53.4927C21.3807 53.4927 20.9668 53.0788 20.9668 52.5694C20.9668 52.0599 21.3807 51.646 21.8901 51.646C22.3988 51.646 22.8135 51.2313 22.8135 50.7227C22.8135 50.2132 23.2273 49.7993 23.7368 49.7993C24.2463 49.7993 24.6602 50.2132 24.6602 50.7227C24.6602 52.2499 23.4174 53.4927 21.8901 53.4927Z" fill="white"/>
<path d="M5.27005 53.4927C3.74277 53.4927 2.5 52.2499 2.5 50.7227C2.5 50.2132 2.91386 49.7993 3.42335 49.7993C3.93284 49.7993 4.3467 50.2132 4.3467 50.7227C4.3467 51.2313 4.76138 51.646 5.27005 51.646C5.77953 51.646 6.19339 52.0599 6.19339 52.5694C6.19339 53.0788 5.77994 53.4927 5.27005 53.4927Z" fill="white"/>
<path d="M3.42335 51.646C2.91386 51.646 2.5 51.2321 2.5 50.7226V33.3584C2.5 32.8489 2.91386 32.4351 3.42335 32.4351C3.93284 32.4351 4.3467 32.8489 4.3467 33.3584V50.7226C4.3467 51.2321 3.93325 51.646 3.42335 51.646Z" fill="white"/>
<path d="M22.846 11.71H12.0454C11.5359 11.71 11.1221 11.2961 11.1221 10.7866C11.1221 10.2771 11.5359 9.86328 12.0454 9.86328H22.846C23.3555 9.86328 23.7693 10.2771 23.7693 10.7866C23.7697 11.2961 23.3559 11.71 22.8464 11.71H22.846Z" fill="white"/>
<path d="M23.9935 24.5121C23.6509 24.5121 23.3047 24.4124 22.9906 24.2046C22.5647 23.9247 22.4456 23.3521 22.7263 22.9259C23.0071 22.5014 23.5788 22.3822 24.005 22.6617L24.0178 22.6691C23.6394 22.3266 23.6031 21.7392 23.9448 21.3608C24.2874 20.9824 24.8636 20.9499 25.242 21.2908C25.9667 21.9453 26.0516 22.9899 25.4461 23.7735C25.0726 24.2574 24.5392 24.5121 23.9934 24.5121L23.9935 24.5121Z" fill="white"/>
<path d="M21.8903 53.4927H5.27003C4.76054 53.4927 4.34668 53.0788 4.34668 52.5693C4.34668 52.0599 4.76054 51.646 5.27003 51.646H21.8903C22.3998 51.646 22.8137 52.0599 22.8137 52.5693C22.8137 53.0788 22.4002 53.4927 21.8903 53.4927Z" fill="white"/>
<path d="M5.82705 13.6186C5.5315 13.6186 5.24089 13.4772 5.06158 13.2134C4.77551 12.7913 4.88515 12.2171 5.30808 11.9311C7.30441 10.5774 9.63378 9.86182 12.0448 9.86182C12.5543 9.86182 12.9682 10.2757 12.9682 10.7852C12.9682 11.2947 12.5543 11.7085 12.0448 11.7085C10.0052 11.7085 8.03275 12.314 6.34402 13.4592C6.18532 13.5668 6.00519 13.6187 5.82711 13.6187L5.82705 13.6186Z" fill="white"/>
<path d="M23.4961 24.3571C23.3225 24.3571 23.1461 24.3081 22.9899 24.2058C20.4581 22.5429 18.3908 20.2383 17.0112 17.54C16.7795 17.0857 16.9597 16.5297 17.4139 16.2972C17.8682 16.0647 18.4243 16.2457 18.6567 16.6999C19.8892 19.1126 21.7388 21.1744 24.0039 22.6621C24.4305 22.942 24.5488 23.5146 24.2689 23.9408C24.0917 24.2112 23.797 24.3571 23.4961 24.3571V24.3571Z" fill="white"/>
<path d="M24.6233 22.9018C24.4028 22.9018 24.181 22.8235 24.0046 22.6636C21.9724 20.828 20.5705 18.4467 19.9509 15.778L19.9212 15.6536C19.8058 15.1568 20.1142 14.6601 20.6109 14.5447C21.1076 14.4309 21.6035 14.7376 21.7197 15.2343L21.7494 15.36C22.2832 17.6602 23.491 19.7117 25.2417 21.2942C25.6201 21.6359 25.6498 22.2192 25.3072 22.5979C25.1263 22.7983 24.8752 22.9017 24.6234 22.9017L24.6233 22.9018Z" fill="white"/>
<path d="M5.23943 14.0176C4.94305 14.0176 4.65327 13.8754 4.47396 13.6124C4.18789 13.1903 4.29835 12.6161 4.72046 12.3301L5.30868 11.931C5.7316 11.6437 6.30499 11.7554 6.59103 12.1775C6.8771 12.5996 6.76663 13.1739 6.34453 13.4599L5.75631 13.8589C5.59761 13.9657 5.41789 14.0176 5.2394 14.0176H5.23943Z" fill="white"/>
<path d="M5.23728 15.9278C5.05921 15.9278 4.87825 15.8762 4.71913 15.7691C4.15399 15.3849 3.81598 14.7422 3.81598 14.0489C3.81598 13.3564 4.15399 12.7138 4.71913 12.3304C5.14206 12.0443 5.71544 12.1531 6.00148 12.5761C6.28755 12.999 6.17791 13.5724 5.75581 13.8584C5.6746 13.9128 5.66265 14.0015 5.66265 14.0497C5.66265 14.0975 5.6746 14.1853 5.75581 14.2409C6.17791 14.5283 6.28756 15.1016 6.00148 15.5233C5.8234 15.7863 5.53362 15.9277 5.23724 15.9277L5.23728 15.9278Z" fill="white"/>
<path d="M8.32276 18.0193C8.14468 18.0193 7.96455 17.9677 7.80585 17.8606L4.72166 15.769C4.29873 15.483 4.18908 14.9084 4.47516 14.4867C4.76247 14.0646 5.33585 13.9549 5.7575 14.2402L8.8417 16.3317C9.26463 16.6178 9.37428 17.1924 9.0882 17.6141C8.90889 17.8771 8.61787 18.0193 8.32273 18.0193H8.32276Z" fill="white"/>
<path d="M26.5396 10.7861H22.8462C22.3367 10.7861 21.9229 10.3723 21.9229 9.8628C21.9229 9.35331 22.3367 8.93945 22.8462 8.93945H26.5396C27.0491 8.93945 27.4629 9.35331 27.4629 9.8628C27.4629 10.3723 27.0491 10.7861 26.5396 10.7861Z" fill="white"/>
<path d="M30.2334 15.4029C29.7239 15.4029 29.3101 14.989 29.3101 14.4795V11.7095C29.3101 11.2 29.7239 10.7861 30.2334 10.7861C30.7429 10.7861 31.1568 11.2 31.1568 11.7095V14.4795C31.1568 14.989 30.7429 15.4029 30.2334 15.4029Z" fill="white"/>
<path d="M26.5396 17.25H22.8462C22.3367 17.25 21.9229 16.8362 21.9229 16.3267C21.9229 15.8172 22.3367 15.4033 22.8462 15.4033H26.5396C27.0491 15.4033 27.4629 15.8172 27.4629 16.3267C27.4629 16.8362 27.0491 17.25 26.5396 17.25Z" fill="white"/>
<path d="M26.5396 17.2501C26.0301 17.2501 25.6162 16.8362 25.6162 16.3267V9.86329C25.6162 9.3538 26.0301 8.93994 26.5396 8.93994C27.049 8.93994 27.4629 9.3538 27.4629 9.86329V16.3267C27.4629 16.8362 27.049 17.2501 26.5396 17.2501Z" fill="white"/>
<path d="M26.5375 16.3265C26.1236 16.3265 25.7481 16.0466 25.6426 15.6274C25.5189 15.1323 25.8198 14.6311 26.3149 14.5075L30.0083 13.5841C30.5013 13.4584 31.0046 13.7614 31.1282 14.2564C31.2519 14.7515 30.951 15.2527 30.4559 15.3764L26.7625 16.2997C26.6871 16.317 26.6117 16.3265 26.5375 16.3265H26.5375Z" fill="white"/>
<path d="M30.233 12.6333C30.1583 12.6333 30.0833 12.6251 30.0075 12.6057L26.3141 11.6823C25.819 11.5587 25.5189 11.0574 25.6418 10.5624C25.7654 10.0673 26.2687 9.76641 26.7617 9.89008L30.4551 10.8134C30.9502 10.9371 31.2503 11.4383 31.1274 11.9334C31.0223 12.3526 30.6456 12.6333 30.2329 12.6333L30.233 12.6333Z" fill="white"/>
<path d="M22.8462 17.2501C22.3367 17.2501 21.9229 16.8362 21.9229 16.3267V9.86329C21.9229 9.3538 22.3367 8.93994 22.8462 8.93994C23.3557 8.93994 23.7695 9.3538 23.7695 9.86329V16.3267C23.7695 16.8362 23.3557 17.2501 22.8462 17.2501Z" fill="white"/>
<path d="M22.8464 16.3267H21.4292C20.9197 16.3267 20.5059 15.9128 20.5059 15.4033C20.5059 14.8938 20.9197 14.48 21.4292 14.48H22.8464C23.3559 14.48 23.7698 14.8938 23.7698 15.4033C23.7698 15.9128 23.3559 16.3267 22.8464 16.3267Z" fill="white"/>
<path d="M19.6437 29.3198C19.4478 29.3198 19.2496 29.2579 19.0822 29.1285C18.1498 28.4129 17.5303 27.3795 17.3382 26.22C17.2549 25.7167 17.5958 25.2414 18.0991 25.1582C18.6041 25.0762 19.0777 25.4158 19.1609 25.9191C19.2764 26.6154 19.6473 27.2349 20.2071 27.6644C20.6115 27.9748 20.6882 28.5544 20.3778 28.9588C20.1952 29.195 19.9206 29.3199 19.6436 29.3199L19.6437 29.3198Z" fill="white"/>
<path d="M7.51679 29.3199C7.23978 29.3199 6.96566 29.1954 6.78347 28.9588C6.47308 28.5544 6.54975 27.9745 6.95412 27.6644C7.5135 27.2349 7.88572 26.6154 8.00032 25.9191C8.08358 25.4158 8.55515 25.0762 9.06212 25.1582C9.56542 25.2415 9.90591 25.7168 9.82305 26.22C9.63096 27.3795 9.01141 28.4129 8.07903 29.1285C7.91126 29.2567 7.71257 29.3198 7.51678 29.3198L7.51679 29.3199Z" fill="white"/>
<path d="M22.2925 31.3515C22.0959 31.3515 21.8984 31.2897 21.7311 31.1602L19.083 29.128C18.6787 28.8176 18.602 28.2381 18.9124 27.8337C19.2236 27.4293 19.8036 27.3534 20.2068 27.663L22.8548 29.6952C23.2592 30.0056 23.3359 30.5852 23.0255 30.9896C22.8437 31.227 22.5696 31.3515 22.2926 31.3515H22.2925Z" fill="white"/>
<path d="M4.86835 31.3512C4.59135 31.3512 4.31722 31.2268 4.13503 30.9901C3.82464 30.5858 3.90131 30.0058 4.30569 29.6958L6.95375 27.6636C7.35812 27.3544 7.93728 27.429 8.24812 27.8342C8.55852 28.2386 8.48184 28.8186 8.07747 29.1286L5.42941 31.1608C5.26247 31.2894 5.06502 31.3512 4.86839 31.3512H4.86835Z" fill="white"/>
<path d="M19.1221 26.9922H8.03663C7.52714 26.9922 7.11328 26.5783 7.11328 26.0689C7.11328 25.5594 7.52714 25.1455 8.03663 25.1455H19.121C19.6305 25.1455 20.0444 25.5594 20.0444 26.0689C20.0448 26.5783 19.6318 26.9922 19.1223 26.9922H19.1221Z" fill="white"/>
<path d="M19.1226 26.9922C18.6131 26.9922 18.1992 26.5784 18.1992 26.0689V22.3755C18.1992 21.866 18.6131 21.4521 19.1226 21.4521C19.6321 21.4521 20.0459 21.866 20.0459 22.3755V26.0689C20.0459 26.5784 19.6321 26.9922 19.1226 26.9922Z" fill="white"/>
<path d="M19.1226 23.2984C18.6131 23.2984 18.1992 22.8845 18.1992 22.375C18.1992 21.8664 17.7846 21.4517 17.2759 21.4517C16.7664 21.4517 16.3525 21.0378 16.3525 20.5283C16.3525 20.0188 16.7664 19.605 17.2759 19.605C18.8032 19.605 20.0459 20.8478 20.0459 22.375C20.0459 22.8845 19.6321 23.2984 19.1226 23.2984Z" fill="white"/>
<path d="M17.2756 21.4517H9.88429C9.3748 21.4517 8.96094 21.0378 8.96094 20.5283C8.96094 20.0188 9.3748 19.605 9.88429 19.605H17.2756C17.7851 19.605 18.199 20.0188 18.199 20.5283C18.199 21.0378 17.7851 21.4517 17.2756 21.4517Z" fill="white"/>
<path d="M8.03663 26.9922C7.52714 26.9922 7.11328 26.5784 7.11328 26.0689V22.3755C7.11328 21.866 7.52714 21.4521 8.03663 21.4521C8.54612 21.4521 8.95998 21.866 8.95998 22.3755V26.0689C8.95998 26.5784 8.54735 26.9922 8.03663 26.9922Z" fill="white"/>
<path d="M8.03663 23.2984C7.52714 23.2984 7.11328 22.8845 7.11328 22.375C7.11328 20.8478 8.35606 19.605 9.88333 19.605C10.3928 19.605 10.8067 20.0188 10.8067 20.5283C10.8067 21.0378 10.3928 21.4517 9.88333 21.4517C9.37466 21.4517 8.95998 21.8664 8.95998 22.375C8.95998 22.8845 8.54735 23.2984 8.03663 23.2984Z" fill="white"/>
<path d="M10.3306 21.4523C9.85615 21.4523 9.45178 21.0883 9.41097 20.6065C9.31699 19.4902 8.73124 18.4894 7.8034 17.8595C7.38129 17.5735 7.27164 16.9989 7.55772 16.5772C7.84379 16.1551 8.41841 16.0446 8.84007 16.3315C10.2305 17.2751 11.1097 18.7768 11.2511 20.4516C11.2936 20.9594 10.9168 21.4062 10.4081 21.4495C10.383 21.4516 10.3562 21.4524 10.3306 21.4524L10.3306 21.4523Z" fill="white"/>
<path d="M16.811 21.4524C16.3016 21.4524 15.8877 21.0385 15.8877 20.529V20.0195C15.8877 19.5101 16.3016 19.0962 16.811 19.0962C17.3205 19.0962 17.7344 19.5101 17.7344 20.0195V20.529C17.7344 21.0385 17.3209 21.4524 16.811 21.4524Z" fill="white"/>
<path d="M3.42335 34.2815C2.91386 34.2815 2.5 33.8677 2.5 33.3582C2.5 31.9323 3.17478 30.5635 4.30586 29.6953C4.71023 29.3861 5.28939 29.4608 5.60023 29.866C5.91063 30.2703 5.83395 30.8503 5.42958 31.1603C4.75108 31.6809 4.34552 32.5029 4.34552 33.3578C4.34675 33.8685 3.93331 34.2815 3.4234 34.2815L3.42335 34.2815Z" fill="white"/>
<path d="M23.7367 34.2816C23.2272 34.2816 22.8133 33.8677 22.8133 33.3582C22.8133 32.5025 22.409 31.6813 21.73 31.1607C21.3256 30.8504 21.249 30.2708 21.5593 29.8664C21.8697 29.462 22.4505 29.3861 22.8537 29.6957C23.9848 30.5638 24.6596 31.9332 24.6596 33.3586C24.66 33.8685 24.2465 34.2815 23.7366 34.2815L23.7367 34.2816Z" fill="white"/>
<path d="M16.811 20.9434C16.3016 20.9434 15.8877 20.5296 15.8877 20.0201C15.8877 16.9648 18.3725 14.48 21.4278 14.48C21.9373 14.48 22.3511 14.8938 22.3511 15.4033C22.3511 15.9128 21.9373 16.3267 21.4278 16.3267C19.391 16.3267 17.7344 17.9833 17.7344 20.0201C17.7344 20.5296 17.3209 20.9434 16.811 20.9434Z" fill="white"/>
</svg>
