<svg width="60" height="60" viewBox="0 0 60 60" fill="none" xmlns="http://www.w3.org/2000/svg">
<path d="M44.906 39.0886H40.1075C39.6478 39.0886 39.2764 38.716 39.2764 38.2574C39.2764 37.7988 39.6478 37.4263 40.1075 37.4263H44.906C45.3657 37.4263 45.7371 37.7988 45.7371 38.2574C45.7371 38.716 45.3657 39.0886 44.906 39.0886Z" fill="white"/>
<path d="M33.458 39.0886H14.9845C14.5259 39.0886 14.1533 38.716 14.1533 38.2574C14.1533 37.7988 14.5259 37.4263 14.9845 37.4263H33.458C33.9177 37.4263 34.2891 37.7988 34.2891 38.2574C34.2891 38.716 33.9169 39.0886 33.458 39.0886Z" fill="white"/>
<path d="M36.7848 39.0883C36.5603 39.0883 36.3451 38.9971 36.1948 38.8472C36.0378 38.6891 35.9536 38.4731 35.9536 38.2572C35.9536 38.0327 36.0375 37.8249 36.1948 37.6672C36.5024 37.3596 37.0594 37.3596 37.3666 37.6672C37.5247 37.8253 37.6159 38.0331 37.6159 38.2572C37.6159 38.4731 37.5254 38.6895 37.3666 38.8472C37.2178 38.9971 37.0019 39.0883 36.7848 39.0883H36.7848Z" fill="white"/>
<path d="M44.9492 30.446C44.9484 30.446 44.9484 30.446 44.9492 30.446C44.8045 30.446 44.659 30.426 44.5154 30.3852C43.5388 30.1124 43.1756 28.987 42.9793 28.383C42.5303 26.9975 42.3451 25.3782 42.4223 23.5482C42.4806 22.1501 42.5993 20.542 43.2642 19.1423C43.6857 18.2596 44.2382 17.8125 44.9091 17.8125C44.9339 17.8125 45.0103 17.8158 45.0352 17.8184C46.0649 17.9116 46.5072 19.0143 46.6742 19.4299C47.2767 20.9268 47.378 22.5668 47.3988 24.1178C47.394 24.5475 47.3847 24.9557 47.3573 25.3638C47.2033 27.5638 46.7888 30.4461 44.9491 30.4461L44.9492 30.446ZM44.911 19.5878C44.872 19.6494 44.823 19.7359 44.7648 19.8564C44.2338 20.9737 44.1347 22.384 44.0831 23.6174C44.0149 25.2497 44.1729 26.6727 44.5529 27.8482C44.7043 28.3146 44.8304 28.6088 44.9336 28.7383C45.0898 28.5365 45.5228 27.7643 45.6976 25.279C45.725 24.8727 45.7325 24.4953 45.7377 24.118C45.7195 22.7499 45.633 21.2935 45.1325 20.0494C45.0408 19.8204 44.967 19.6776 44.911 19.5878L44.911 19.5878Z" fill="white"/>
<path d="M49.8918 50.7241C49.7337 50.7241 49.5734 50.6792 49.4313 50.5845L44.4444 47.2599C44.0622 47.0058 43.9591 46.4896 44.2143 46.107C44.4685 45.7249 44.9832 45.6217 45.3672 45.877L50.3541 49.2016C50.7363 49.4558 50.8395 49.9719 50.5842 50.3545C50.4246 50.5946 50.1601 50.7241 49.8918 50.7241L49.8918 50.7241Z" fill="white"/>
<path d="M39.92 50.7244C39.6513 50.7244 39.3871 50.5949 39.2276 50.3545C38.9723 49.9731 39.0754 49.4562 39.4576 49.2016L44.4446 45.877C44.8268 45.6217 45.3421 45.7249 45.5975 46.1071C45.8527 46.4885 45.7496 47.0054 45.3674 47.2599L40.3805 50.5845C40.2384 50.6795 40.0781 50.7244 39.92 50.7244L39.92 50.7244Z" fill="white"/>
<path d="M39.9182 50.7241C39.7601 50.7241 39.5998 50.6792 39.4577 50.5845L34.4708 47.2599C34.0886 47.0058 33.9854 46.4896 34.2407 46.107C34.4949 45.7249 35.0095 45.6217 35.3936 45.877L40.3805 49.2016C40.7627 49.4558 40.8658 49.9719 40.6106 50.3545C40.451 50.5946 40.1865 50.7241 39.9182 50.7241L39.9182 50.7241Z" fill="white"/>
<path d="M29.9461 50.7244C29.6775 50.7244 29.414 50.5949 29.2538 50.3545C28.9996 49.9731 29.1024 49.4562 29.4838 49.2016L34.4707 45.877C34.8529 45.6217 35.3691 45.7249 35.6236 46.1071C35.8789 46.4885 35.7758 47.0054 35.3936 47.2599L30.4066 50.5845C30.2645 50.6795 30.1042 50.7244 29.9462 50.7244L29.9461 50.7244Z" fill="white"/>
<path d="M29.9446 50.7241C29.7865 50.7241 29.6262 50.6792 29.4841 50.5845L24.4972 47.2599C24.1157 47.0058 24.0126 46.4896 24.2671 46.107C24.5213 45.7249 25.0367 45.6217 25.42 45.877L30.4069 49.2016C30.7891 49.4558 30.8922 49.9719 30.637 50.3545C30.4763 50.5946 30.2129 50.7241 29.9446 50.7241L29.9446 50.7241Z" fill="white"/>
<path d="M19.9725 50.7244C19.7039 50.7244 19.4404 50.5949 19.2801 50.3545C19.026 49.9731 19.1287 49.4562 19.5102 49.2016L24.4971 45.877C24.8785 45.6217 25.3947 45.7249 25.65 46.1071C25.9042 46.4885 25.8014 47.0054 25.4199 47.2599L20.433 50.5845C20.2909 50.6795 20.1306 50.7244 19.9725 50.7244L19.9725 50.7244Z" fill="white"/>
<path d="M19.9712 50.7248C19.5126 50.7248 19.1401 50.3522 19.1401 49.8936V38.2574C19.1401 37.7988 19.5126 37.4263 19.9712 37.4263C20.4298 37.4263 20.8024 37.7988 20.8024 38.2574V49.8936C20.8024 50.3533 20.4298 50.7248 19.9712 50.7248Z" fill="white"/>
<path d="M44.906 10.8288H14.9845C14.5259 10.8288 14.1533 10.4563 14.1533 9.99766C14.1533 9.53904 14.5259 9.1665 14.9845 9.1665H44.906C45.3658 9.1665 45.7372 9.53904 45.7372 9.99766C45.7372 10.4563 45.3658 10.8288 44.906 10.8288Z" fill="white"/>
<path d="M49.8932 50.724C49.4334 50.724 49.062 50.3515 49.062 49.8929V24.1271C49.062 23.6684 49.4334 23.2959 49.8932 23.2959C50.3529 23.2959 50.7243 23.6684 50.7243 24.1271V49.8929C50.7243 50.3526 50.3529 50.724 49.8932 50.724Z" fill="white"/>
<path d="M14.9845 39.088H14.9831C13.2785 39.0839 11.887 37.661 10.8473 34.8584C9.71602 31.8114 9.1665 28.3005 9.1665 24.1275C9.1665 19.9545 9.71603 16.4433 10.8463 13.3966C11.8859 10.594 13.2782 9.17108 14.9832 9.16699H14.9846C15.4425 9.16699 15.8151 9.53767 15.8158 9.99667C15.8165 10.4553 15.4459 10.8286 14.9861 10.8293C14.0726 10.8308 13.1561 11.9487 12.4047 13.9743C11.3442 16.8337 10.8288 20.1549 10.8288 24.1277C10.8288 28.1005 11.3442 31.4218 12.4047 34.2811C13.1561 36.3074 14.0729 37.4246 14.9861 37.4261C15.4447 37.4268 15.8165 37.8001 15.8158 38.2587C15.8151 38.7177 15.4425 39.0884 14.9846 39.0884L14.9845 39.088Z" fill="white"/>
<path d="M44.92 39.0883C44.8625 39.0883 44.8035 39.0868 44.7445 39.0834C42.2778 38.932 41.1591 35.9124 40.6203 34.4605C39.5383 31.5433 39.0236 27.9956 39.0908 23.9158C39.1416 20.8794 39.3809 16.9333 40.7932 13.3302C41.1947 12.302 42.4199 9.1744 44.9034 9.16699C47.4766 9.17107 48.691 12.4453 49.0899 13.5213C50.2187 16.565 50.7837 20.2455 50.724 24.1658C50.6758 27.2644 50.439 31.2863 49.0194 34.9252C48.6172 35.9541 47.3935 39.0884 44.9201 39.0884L44.92 39.0883ZM44.9045 10.829C44.011 10.8316 43.1475 11.8772 42.3413 13.9358C41.0255 17.2912 40.801 21.0462 40.7539 23.9429C40.6901 27.8152 41.1695 31.1599 42.1795 33.8816C42.5958 35.0036 43.4611 37.3384 44.8474 37.4233L44.9201 37.4255C45.5301 37.4255 46.4685 36.8868 47.471 34.3195C48.7868 30.9485 49.0127 27.2821 49.0617 24.1395C49.1181 20.4234 48.5897 16.9507 47.5315 14.0982C46.7271 11.9305 45.8436 10.83 44.9045 10.8285L44.9045 10.829Z" fill="white"/>
</svg>
