<svg width="60" height="60" viewBox="0 0 60 60" fill="none" xmlns="http://www.w3.org/2000/svg">
<path d="M35.627 16.0588C35.4649 16.0588 35.3009 16.0132 35.1557 15.917C32.7423 14.3249 29.9371 13.4838 27.0444 13.4838C26.5708 13.4838 26.186 13.099 26.186 12.6254C26.186 12.1518 26.5708 11.7671 27.0444 11.7671C30.2735 11.7671 33.4045 12.707 36.0997 14.4838C36.4956 14.7448 36.6044 15.277 36.3442 15.6725C36.1798 15.9231 35.9058 16.0587 35.6269 16.0587L35.627 16.0588Z" fill="white"/>
<path d="M33.0527 23.784H33.0511C32.5775 23.7832 32.1936 23.3977 32.1943 22.9241C32.197 21.5355 33.0477 20.5767 33.7968 19.7302C34.2275 19.2444 34.6345 18.7845 34.8352 18.3036C35.0173 17.866 35.5192 17.6591 35.9579 17.8419C36.3955 18.0247 36.6017 18.527 36.4197 18.9646C36.1089 19.7087 35.587 20.2985 35.0816 20.8682C34.4543 21.5764 33.9125 22.1883 33.9109 22.9274C33.9101 23.4011 33.5266 23.7839 33.0526 23.7839L33.0527 23.784Z" fill="white"/>
<path d="M38.2028 23.7835C38.2028 23.7835 38.202 23.7835 38.2028 23.7835C37.728 23.7835 37.3444 23.398 37.3444 22.9244C37.3452 22.1864 36.8018 21.5733 36.1719 20.8628C35.668 20.2938 35.1461 19.7056 34.8354 18.9661C34.6526 18.5285 34.8576 18.0253 35.2956 17.8426C35.7331 17.6598 36.2355 17.8656 36.419 18.3028C36.6191 18.781 37.026 19.24 37.4559 19.7252C38.2085 20.5751 39.0618 21.5373 39.0602 22.9267C39.061 23.3999 38.6767 23.7835 38.2027 23.7835H38.2028Z" fill="white"/>
<path d="M35.6277 26.2743C34.7479 26.2743 33.9206 25.98 33.2983 25.4443C32.5867 24.8324 32.1943 23.9381 32.1943 22.9252C32.1943 22.4516 32.5791 22.0669 33.0527 22.0669C33.5263 22.0669 33.911 22.4516 33.911 22.9252C33.911 24.1303 34.8352 24.5576 35.6277 24.5576C36.4201 24.5576 37.3443 24.13 37.3443 22.9252C37.3443 22.4516 37.7291 22.0669 38.2027 22.0669C38.6763 22.0669 39.061 22.4516 39.061 22.9252C39.061 25.1243 37.3343 26.2743 35.6277 26.2743V26.2743Z" fill="white"/>
<path d="M56.2252 43.7015H52.7919C52.3183 43.7015 51.9336 43.3168 51.9336 42.8432C51.9336 42.3696 52.3183 41.9849 52.7919 41.9849H56.2252C56.6989 41.9849 57.0836 42.3696 57.0836 42.8432C57.0836 43.3172 56.6989 43.7015 56.2252 43.7015Z" fill="white"/>
<path d="M56.2255 43.702C55.7519 43.702 55.3672 43.3172 55.3672 42.8436V32.5966C55.3672 32.123 55.7519 31.7383 56.2255 31.7383C56.6991 31.7383 57.0838 32.123 57.0838 32.5966V42.8436C57.0838 43.3176 56.6991 43.702 56.2255 43.702Z" fill="white"/>
<path d="M56.2252 33.455H52.7919C52.3183 33.455 51.9336 33.0702 51.9336 32.5966C51.9336 32.123 52.3183 31.7383 52.7919 31.7383H56.2252C56.6988 31.7383 57.0836 32.123 57.0836 32.5966C57.0836 33.0706 56.6988 33.455 56.2252 33.455Z" fill="white"/>
<path d="M32.1923 44.3836C31.9693 44.3836 31.7459 44.2893 31.5831 44.1345C31.4283 43.9716 31.334 43.7483 31.334 43.5252C31.334 43.3022 31.4282 43.0788 31.5831 42.916C31.9007 42.5983 32.4759 42.5983 32.802 42.916C32.9564 43.0788 33.0507 43.3022 33.0507 43.5252C33.0507 43.7483 32.9564 43.9717 32.8016 44.1345C32.6387 44.2893 32.4154 44.3836 32.1923 44.3836H32.1923Z" fill="white"/>
<path d="M20.5918 13.4837C18.9866 13.4837 17.4788 12.8587 16.3431 11.7241C16.0074 11.3884 16.0074 10.8458 16.3431 10.5105C16.6787 10.1749 17.2213 10.1749 17.5566 10.5105C18.3682 11.3206 19.4461 11.767 20.5918 11.767C21.0654 11.767 21.4501 12.1518 21.4501 12.6254C21.4501 13.099 21.0665 13.4837 20.5918 13.4837Z" fill="white"/>
<path d="M16.9503 11.9753C16.7308 11.9753 16.5108 11.891 16.3434 11.7239L14.4183 9.79878C14.0826 9.46311 14.0826 8.92053 14.4183 8.58525C14.7539 8.24958 15.2965 8.24958 15.6318 8.58525L17.5569 10.5104C17.8926 10.846 17.8926 11.3886 17.5569 11.7239C17.3891 11.8913 17.1703 11.9753 16.9503 11.9753H16.9503Z" fill="white"/>
<path d="M27.0442 13.4838H20.5922C20.1186 13.4838 19.7339 13.099 19.7339 12.6254C19.7339 12.1518 20.1186 11.7671 20.5922 11.7671H27.0442C27.5178 11.7671 27.9026 12.1518 27.9026 12.6254C27.9026 13.099 27.519 13.4838 27.0442 13.4838Z" fill="white"/>
<path d="M15.0258 32.4639C14.5522 32.4639 14.1675 32.0792 14.1675 31.6056C14.1675 29.7498 15.0465 27.968 16.5183 26.8391C16.8935 26.5517 17.4334 26.6211 17.7216 26.9978C18.0101 27.3737 17.9388 27.9128 17.5629 28.201C16.5114 29.0076 15.8842 30.2805 15.8842 31.6056C15.8842 32.0803 15.4995 32.4639 15.0259 32.4639L15.0258 32.4639Z" fill="white"/>
<path d="M15.0258 49.5333C14.5522 49.5333 14.1675 49.1485 14.1675 48.6749V31.6054C14.1675 31.1318 14.5522 30.7471 15.0258 30.7471C15.4994 30.7471 15.8841 31.1318 15.8841 31.6054V48.6749C15.8841 49.1497 15.4994 49.5333 15.0258 49.5333Z" fill="white"/>
<path d="M27.0424 47.8168H20.1757C19.7021 47.8168 19.3174 47.432 19.3174 46.9584C19.3174 46.4848 19.7021 46.1001 20.1757 46.1001H27.0424C27.516 46.1001 27.9007 46.4848 27.9007 46.9584C27.9007 47.432 27.516 47.8168 27.0424 47.8168Z" fill="white"/>
<path d="M27.0424 32.2762H20.1757C19.7021 32.2762 19.3174 31.8915 19.3174 31.4179C19.3174 30.9443 19.7021 30.5596 20.1757 30.5596H27.0424C27.516 30.5596 27.9007 30.9443 27.9007 31.4179C27.9007 31.8915 27.516 32.2762 27.0424 32.2762Z" fill="white"/>
<path d="M20.1756 47.8166C18.7559 47.8166 17.6006 46.6614 17.6006 45.2416C17.6006 44.768 17.9854 44.3833 18.459 44.3833C18.9326 44.3833 19.3173 44.768 19.3173 45.2416C19.3173 45.7145 19.7028 46.1 20.1756 46.1C20.6493 46.1 21.034 46.4847 21.034 46.9583C21.034 47.4319 20.6493 47.8166 20.1756 47.8166Z" fill="white"/>
<path d="M18.4589 46.1004C17.9852 46.1004 17.6005 45.7157 17.6005 45.2421V33.1352C17.6005 32.6616 17.9852 32.2769 18.4589 32.2769C18.9325 32.2769 19.3172 32.6616 19.3172 33.1352V45.2421C19.3172 45.7157 18.9325 46.1004 18.4589 46.1004Z" fill="white"/>
<path d="M18.4589 33.9929C17.9853 33.9929 17.6006 33.6082 17.6006 33.1346C17.6006 31.7148 18.7559 30.5596 20.1756 30.5596C20.6492 30.5596 21.0339 30.9443 21.0339 31.4179C21.0339 31.8915 20.6492 32.2762 20.1756 32.2762C19.7027 32.2762 19.3172 32.6617 19.3172 33.1346C19.3172 33.6082 18.9325 33.9929 18.4589 33.9929Z" fill="white"/>
<path d="M16.7425 51.2502C15.3227 51.2502 14.1675 50.095 14.1675 48.6752C14.1675 48.2016 14.5522 47.8169 15.0258 47.8169C15.4994 47.8169 15.8841 48.2016 15.8841 48.6752C15.8841 49.1481 16.2696 49.5336 16.7425 49.5336C17.2161 49.5336 17.6008 49.9183 17.6008 50.3919C17.6008 50.8655 17.2161 51.2502 16.7425 51.2502Z" fill="white"/>
<path d="M32.1923 32.464C31.7187 32.464 31.3339 32.0793 31.3339 31.6057C31.3339 30.2802 30.7067 29.0077 29.6552 28.2015C29.2793 27.9129 29.2081 27.3742 29.4966 26.9982C29.7851 26.6216 30.325 26.5511 30.6998 26.8396C32.1717 27.9681 33.0507 29.7499 33.0507 31.6057C33.0507 32.0804 32.666 32.464 32.1924 32.464L32.1923 32.464Z" fill="white"/>
<path d="M32.1923 40.9501C31.7187 40.9501 31.334 40.5654 31.334 40.0918V31.6054C31.334 31.1318 31.7187 30.7471 32.1923 30.7471C32.6659 30.7471 33.0506 31.1318 33.0506 31.6054V40.0918C33.0506 40.5654 32.6659 40.9501 32.1923 40.9501Z" fill="white"/>
<path d="M28.7591 33.9929C28.2855 33.9929 27.9007 33.6082 27.9007 33.1346C27.9007 32.6617 27.5153 32.2762 27.0424 32.2762C26.5688 32.2762 26.1841 31.8915 26.1841 31.4179C26.1841 30.9443 26.5688 30.5596 27.0424 30.5596C28.4621 30.5596 29.6174 31.7148 29.6174 33.1346C29.6174 33.6082 29.2327 33.9929 28.7591 33.9929Z" fill="white"/>
<path d="M27.0424 47.8166C26.5688 47.8166 26.1841 47.4319 26.1841 46.9583C26.1841 46.4847 26.5688 46.1 27.0424 46.1C27.5153 46.1 27.9007 45.7145 27.9007 45.2416C27.9007 44.768 28.2855 44.3833 28.7591 44.3833C29.2327 44.3833 29.6174 44.768 29.6174 45.2416C29.6174 46.6614 28.4621 47.8166 27.0424 47.8166Z" fill="white"/>
<path d="M30.4755 51.2502C30.0019 51.2502 29.6172 50.8655 29.6172 50.3919C29.6172 49.9183 30.0019 49.5336 30.4755 49.5336C30.9484 49.5336 31.3339 49.1481 31.3339 48.6752C31.3339 48.2016 31.7186 47.8169 32.1922 47.8169C32.6658 47.8169 33.0505 48.2016 33.0505 48.6752C33.0505 50.0956 31.8953 51.2502 30.4755 51.2502Z" fill="white"/>
<path d="M28.7587 46.1004C28.2851 46.1004 27.9004 45.7157 27.9004 45.2421V33.1352C27.9004 32.6616 28.2851 32.2769 28.7587 32.2769C29.2323 32.2769 29.6171 32.6616 29.6171 33.1352V45.2421C29.6171 45.7157 29.2323 46.1004 28.7587 46.1004Z" fill="white"/>
<path d="M32.1924 49.5334C31.7188 49.5334 31.3341 49.1487 31.3341 48.6751V46.9584C31.3341 46.4848 31.7188 46.1001 32.1924 46.1001C32.6661 46.1001 33.0508 46.4848 33.0508 46.9584V48.6751C33.0508 49.1499 32.6661 49.5334 32.1924 49.5334Z" fill="white"/>
<path d="M27.0444 20.3498C26.5708 20.3498 26.186 19.9651 26.186 19.4915V17.7748C26.186 17.3012 26.5708 16.9165 27.0444 16.9165C27.518 16.9165 27.9027 17.3012 27.9027 17.7748V19.4915C27.9027 19.9651 27.5191 20.3498 27.0444 20.3498Z" fill="white"/>
<path d="M20.1738 20.3498C19.7001 20.3498 19.3154 19.9651 19.3154 19.4915V17.7748C19.3154 17.3012 19.7001 16.9165 20.1738 16.9165C20.6474 16.9165 21.0321 17.3012 21.0321 17.7748V19.4915C21.0321 19.9651 20.6474 20.3498 20.1738 20.3498Z" fill="white"/>
<path d="M20.1738 18.6335C19.7001 18.6335 19.3154 18.2488 19.3154 17.7752C19.3154 16.3555 20.4707 15.2002 21.8904 15.2002C22.364 15.2002 22.7488 15.5849 22.7488 16.0585C22.7488 16.5321 22.364 16.9169 21.8904 16.9169C21.4176 16.9169 21.0321 17.3023 21.0321 17.7752C21.0321 18.2488 20.6474 18.6335 20.1738 18.6335Z" fill="white"/>
<path d="M25.3276 16.9169H21.8901C21.4165 16.9169 21.0317 16.5321 21.0317 16.0585C21.0317 15.5849 21.4165 15.2002 21.8901 15.2002H25.3276C25.8012 15.2002 26.1859 15.5849 26.1859 16.0585C26.1859 16.5321 25.8024 16.9169 25.3276 16.9169Z" fill="white"/>
<path d="M27.0442 18.6335C26.5706 18.6335 26.1859 18.2488 26.1859 17.7752C26.1859 17.3023 25.8004 16.9169 25.3276 16.9169C24.854 16.9169 24.4692 16.5321 24.4692 16.0585C24.4692 15.5849 24.854 15.2002 25.3276 15.2002C26.7473 15.2002 27.9026 16.3555 27.9026 17.7752C27.9026 18.2488 27.519 18.6335 27.0442 18.6335Z" fill="white"/>
<path d="M21.8925 16.9171C21.4189 16.9171 21.0342 16.5324 21.0342 16.0588V12.6254C21.0342 12.1518 21.4189 11.7671 21.8925 11.7671C22.3661 11.7671 22.7508 12.1518 22.7508 12.6254V16.0588C22.7508 16.5324 22.3661 16.9171 21.8925 16.9171Z" fill="white"/>
<path d="M25.3256 16.9171C24.852 16.9171 24.4673 16.5324 24.4673 16.0588V12.6254C24.4673 12.1518 24.852 11.7671 25.3256 11.7671C25.7992 11.7671 26.1839 12.1518 26.1839 12.6254V16.0588C26.1839 16.5324 25.7992 16.9171 25.3256 16.9171Z" fill="white"/>
<path d="M46.6987 46.511C46.2251 46.511 45.8403 46.1263 45.8403 45.6527C45.8403 45.179 46.2251 44.7943 46.6987 44.7943C48.7947 44.7943 50.7773 43.8801 52.1387 42.2853C52.4468 41.9254 52.9886 41.8818 53.3488 42.1898C53.7094 42.4979 53.7523 43.0397 53.4442 43.3999C51.7571 45.3779 49.2985 46.511 46.6986 46.511L46.6987 46.511Z" fill="white"/>
<path d="M52.7919 43.702C52.3183 43.702 51.9336 43.3172 51.9336 42.8436V32.5966C51.9336 32.123 52.3183 31.7383 52.7919 31.7383C53.2655 31.7383 53.6502 32.123 53.6502 32.5966V42.8436C53.6502 43.3176 53.2655 43.702 52.7919 43.702Z" fill="white"/>
<path d="M52.7923 33.4547C52.5811 33.4547 52.37 33.3773 52.2033 33.2213L49.5134 30.6893C49.1685 30.3647 49.152 29.8214 49.4773 29.4758C49.8034 29.1309 50.346 29.1144 50.6909 29.4397L53.3808 31.9718C53.7257 32.2963 53.7422 32.8397 53.4169 33.1853C53.2479 33.3639 53.0206 33.4547 52.7923 33.4547H52.7923Z" fill="white"/>
<path d="M46.6986 46.5111H37.9213C37.4477 46.5111 37.063 46.1264 37.063 45.6528C37.063 45.1792 37.4477 44.7944 37.9213 44.7944H46.6992C47.1729 44.7944 47.5576 45.1792 47.5576 45.6528C47.5576 46.1264 47.1732 46.5111 46.6985 46.5111H46.6986Z" fill="white"/>
<path d="M45.9787 33.4213H34.0229C33.5493 33.4213 33.1646 33.0365 33.1646 32.5629C33.1646 32.0893 33.5493 31.7046 34.0229 31.7046H45.9777C46.4513 31.7046 46.8361 32.0893 46.8361 32.5629C46.8357 33.0365 46.4521 33.4213 45.9785 33.4213H45.9787Z" fill="white"/>
<path d="M34.023 36.8546C32.3692 36.8546 31.5039 35.5594 31.5039 34.2796C31.5039 33.6247 31.7246 33.0066 32.1262 32.5399C32.5899 32.0019 33.2627 31.7046 34.0222 31.7046C34.4958 31.7046 34.8805 32.0893 34.8805 32.5629C34.8805 33.0365 34.4958 33.4213 34.0222 33.4213C33.7597 33.4213 33.5647 33.4994 33.4275 33.6588C33.2953 33.8125 33.2198 34.0382 33.2198 34.2796C33.2198 34.4229 33.2585 35.1379 34.0222 35.1379C34.4958 35.1379 34.8805 35.5226 34.8805 35.9963C34.8801 36.4699 34.4973 36.8546 34.023 36.8546L34.023 36.8546Z" fill="white"/>
<path d="M43.4801 36.8544H34.0224C33.5488 36.8544 33.1641 36.4697 33.1641 35.996C33.1641 35.5224 33.5488 35.1377 34.0224 35.1377H43.4805C43.9541 35.1377 44.3389 35.5224 44.3389 35.996C44.3385 36.4697 43.9541 36.8544 43.4801 36.8544H43.4801Z" fill="white"/>
<path d="M37.9222 46.5112C36.4208 46.5112 35.6108 45.2951 35.6108 44.1509C35.6108 43.5516 35.8135 42.9872 36.1818 42.5588C36.6075 42.0637 37.2256 41.7905 37.9226 41.7905C38.3962 41.7905 38.7809 42.1752 38.7809 42.6489C38.7809 43.1225 38.3962 43.5072 37.9226 43.5072C37.726 43.5072 37.5827 43.5631 37.4838 43.6781C37.385 43.793 37.3275 43.9655 37.3275 44.1509C37.3275 44.3448 37.3857 44.7947 37.9222 44.7947C38.3958 44.7947 38.7805 45.1794 38.7805 45.653C38.7805 46.1266 38.3958 46.5113 37.9222 46.5113L37.9222 46.5112Z" fill="white"/>
<path d="M36.5467 43.5071C34.9776 43.5071 34.1323 42.2361 34.1323 41.0394C34.1323 40.4129 34.3442 39.8213 34.7289 39.3734C35.1734 38.8557 35.8191 38.5718 36.5467 38.5718C37.0204 38.5718 37.4051 38.9565 37.4051 39.4301C37.4051 39.9037 37.0204 40.2884 36.5467 40.2884C36.3168 40.2884 36.1486 40.3555 36.0302 40.4927C35.9152 40.6276 35.849 40.8264 35.849 41.0395C35.849 41.2154 35.8995 41.7905 36.5467 41.7905C37.0204 41.7905 37.4051 42.1752 37.4051 42.6488C37.4051 43.1225 37.0204 43.5072 36.5467 43.5072V43.5071Z" fill="white"/>
<path d="M45.142 43.5077H36.5468C36.0732 43.5077 35.6885 43.123 35.6885 42.6494C35.6885 42.1757 36.0732 41.791 36.5468 41.791H45.142C45.6156 41.791 46.0003 42.1757 46.0003 42.6494C46.0003 43.123 45.6156 43.5077 45.142 43.5077Z" fill="white"/>
<path d="M35.358 40.2881C33.7042 40.2881 32.8389 38.993 32.8389 37.7131C32.8389 37.0583 33.0596 36.4402 33.4612 35.9735C33.9248 35.4355 34.5977 35.1382 35.3572 35.1382C35.8308 35.1382 36.2155 35.5229 36.2155 35.9965C36.2155 36.4701 35.8308 36.8548 35.3572 36.8548C35.0947 36.8548 34.8996 36.933 34.7624 37.0924C34.6302 37.2461 34.5548 37.4718 34.5548 37.7132C34.5548 37.8565 34.5935 38.5715 35.3572 38.5715C35.8308 38.5715 36.2155 38.9562 36.2155 39.4298C36.2155 39.9035 35.8319 40.2882 35.3579 40.2882L35.358 40.2881Z" fill="white"/>
<path d="M44.5052 40.288H35.3578C34.8842 40.288 34.4995 39.9032 34.4995 39.4296C34.4995 38.956 34.8842 38.5713 35.3578 38.5713H44.5052C44.9788 38.5713 45.3635 38.956 45.3635 39.4296C45.3635 39.9032 44.9788 40.288 44.5052 40.288Z" fill="white"/>
<path d="M47.749 29.9877H38.4775C38.0039 29.9877 37.6191 29.6029 37.6191 29.1293C37.6191 28.6557 38.0039 28.271 38.4775 28.271H47.7482C48.2219 28.271 48.6066 28.6557 48.6066 29.1293C48.6066 29.6029 48.2226 29.9877 47.749 29.9877H47.749Z" fill="white"/>
<path d="M41.0877 33.421C39.9761 33.421 38.9453 32.9034 38.2602 32.0021C37.5751 31.1008 37.3528 29.9697 37.651 28.8991C37.7782 28.4435 38.2483 28.1771 38.7074 28.3024C39.1642 28.4297 39.4309 28.9025 39.3041 29.3589C39.1512 29.9084 39.2688 30.4928 39.6259 30.9633C39.9838 31.4338 40.5161 31.704 41.0867 31.704C41.5603 31.704 41.945 32.0887 41.945 32.5623C41.9454 33.0363 41.5618 33.421 41.0878 33.421L41.0877 33.421Z" fill="white"/>
<path d="M50.1026 30.9222C49.8914 30.9222 49.6803 30.8448 49.5136 30.6888C49.0339 30.2374 48.4074 29.9891 47.7491 29.9891C47.2755 29.9891 46.8907 29.6044 46.8907 29.1308C46.8907 28.6572 47.2755 28.2725 47.7491 28.2725C48.8469 28.2725 49.8915 28.6871 50.6904 29.4389C51.0352 29.7635 51.0517 30.3068 50.7264 30.6524C50.5582 30.8314 50.3298 30.9222 50.1025 30.9222L50.1026 30.9222Z" fill="white"/>
<path d="M17.0416 28.3795C16.7841 28.3795 16.5293 28.2645 16.3611 28.0438C16.0726 27.6679 16.1431 27.1295 16.519 26.8406L17.4501 26.1255C17.826 25.837 18.3644 25.9067 18.6533 26.2834C18.9419 26.6593 18.8714 27.1977 18.4955 27.4866L17.5643 28.2017C17.4072 28.3212 17.2244 28.3795 17.0417 28.3795H17.0416Z" fill="white"/>
<path d="M30.4759 51.2499H16.7426C16.269 51.2499 15.8843 50.8651 15.8843 50.3915C15.8843 49.9179 16.269 49.5332 16.7426 49.5332H30.4759C30.9495 49.5332 31.3343 49.9179 31.3343 50.3915C31.3343 50.8651 30.9495 51.2499 30.4759 51.2499Z" fill="white"/>
<path d="M30.1765 28.3795C29.9937 28.3795 29.8102 28.322 29.6546 28.2017L28.7234 27.4867C28.3475 27.1981 28.2763 26.6594 28.5656 26.2834C28.8541 25.9067 29.3929 25.837 29.7688 26.1255L30.6999 26.8406C31.0759 27.1291 31.1471 27.6679 30.8578 28.0438C30.6892 28.2638 30.434 28.3795 30.1765 28.3795H30.1765Z" fill="white"/>
<path d="M18.457 25.5001C17.9834 25.5001 17.5987 25.1154 17.5987 24.6418V21.2084C17.5987 20.7348 17.9834 20.3501 18.457 20.3501C18.9306 20.3501 19.3154 20.7348 19.3154 21.2084V24.6418C19.3154 25.1154 18.9306 25.5001 18.457 25.5001Z" fill="white"/>
<path d="M28.7612 25.5001C28.2876 25.5001 27.9028 25.1154 27.9028 24.6418V21.2084C27.9028 20.7348 28.2876 20.3501 28.7612 20.3501C29.2348 20.3501 29.6195 20.7348 29.6195 21.2084V24.6418C29.6195 25.1154 29.2359 25.5001 28.7612 25.5001Z" fill="white"/>
<path d="M28.7609 22.0666C28.2873 22.0666 27.9026 21.6819 27.9026 21.2083C27.9026 20.7354 27.5171 20.35 27.0442 20.35C26.5706 20.35 26.1859 19.9652 26.1859 19.4916C26.1859 19.018 26.5706 18.6333 27.0442 18.6333C28.464 18.6333 29.6192 19.7886 29.6192 21.2083C29.6192 21.6819 29.2357 22.0666 28.7609 22.0666Z" fill="white"/>
<path d="M27.0442 20.35H20.1733C19.6997 20.35 19.315 19.9652 19.315 19.4916C19.315 19.018 19.6997 18.6333 20.1733 18.6333H27.0442C27.5178 18.6333 27.9025 19.018 27.9025 19.4916C27.9025 19.9652 27.519 20.35 27.0442 20.35Z" fill="white"/>
<path d="M18.457 22.0666C17.9834 22.0666 17.5987 21.6819 17.5987 21.2083C17.5987 19.7886 18.754 18.6333 20.1737 18.6333C20.6473 18.6333 21.032 19.018 21.032 19.4916C21.032 19.9652 20.6473 20.35 20.1737 20.35C19.7008 20.35 19.3154 20.7354 19.3154 21.2083C19.3154 21.6819 18.9306 22.0666 18.457 22.0666Z" fill="white"/>
<path d="M29.2456 27.6629C29.0636 27.6629 28.8793 27.6054 28.7237 27.4851C27.8569 26.8199 27.281 25.8593 27.1025 24.7814C27.0251 24.3135 27.3412 23.8717 27.8091 23.7944C28.2762 23.717 28.7187 24.0331 28.7961 24.501C28.9034 25.1482 29.2494 25.7241 29.7694 26.1234C30.1453 26.4119 30.2166 26.9507 29.928 27.3266C29.7579 27.5469 29.5031 27.663 29.2456 27.663L29.2456 27.6629Z" fill="white"/>
<path d="M17.9722 27.6631C17.7147 27.6631 17.4599 27.5474 17.2905 27.3274C17.002 26.9515 17.0733 26.4124 17.4492 26.1242C17.9692 25.7249 18.3152 25.149 18.4225 24.5018C18.4999 24.0347 18.9402 23.7182 19.4095 23.7952C19.8774 23.8726 20.1931 24.3145 20.1161 24.7823C19.9375 25.8601 19.3616 26.8208 18.4949 27.486C18.3385 27.6055 18.155 27.663 17.9722 27.663L17.9722 27.6631Z" fill="white"/>
<path d="M28.7609 25.5004H18.4579C17.9843 25.5004 17.5996 25.1156 17.5996 24.642C17.5996 24.1684 17.9843 23.7837 18.4579 23.7837H28.7618C29.2355 23.7837 29.6202 24.1684 29.6202 24.642C29.6202 25.1156 29.2355 25.5004 28.7607 25.5004H28.7609Z" fill="white"/>
</svg>
