<svg width="60" height="60" viewBox="0 0 60 60" fill="none" xmlns="http://www.w3.org/2000/svg">
<path d="M17.8669 18.6386H21.3335C21.8129 18.6386 22.2002 18.2501 22.2002 17.7719C22.2002 17.2937 21.8129 16.9053 21.3335 16.9053H17.8669C17.3876 16.9053 17.0003 17.2937 17.0003 17.7719C17.0003 18.2501 17.3876 18.6386 17.8669 18.6386Z" fill="white"/>
<path d="M17.0005 48.1047C17.2354 48.1047 17.4521 48.0095 17.6157 47.8532C17.7728 47.6888 17.8672 47.4721 17.8672 47.238C17.8672 47.0129 17.7728 46.7873 17.6157 46.6229C17.295 46.3021 16.7057 46.3021 16.385 46.6229C16.2291 46.7873 16.1339 47.0129 16.1339 47.238C16.1339 47.4632 16.229 47.6888 16.3854 47.8532C16.5498 48.0095 16.7665 48.1047 17.0005 48.1047H17.0005Z" fill="white"/>
<path d="M9.20042 48.1049H13.5337C14.0131 48.1049 14.4004 47.7165 14.4004 47.2383C14.4004 46.76 14.0131 46.3716 13.5337 46.3716H9.20042C8.72105 46.3716 8.33376 46.76 8.33376 47.2383C8.33376 47.7165 8.72105 48.1049 9.20042 48.1049Z" fill="white"/>
<path d="M20.4668 48.1049H30C30.4794 48.1049 30.8667 47.7165 30.8667 47.2383C30.8667 46.76 30.4794 46.3716 30 46.3716H20.4668C19.9874 46.3716 19.6001 46.76 19.6001 47.2383C19.6001 47.7165 19.9874 48.1049 20.4668 48.1049Z" fill="white"/>
<path d="M34.6586 43.4189H40.9419C41.4213 43.4189 41.8086 43.0304 41.8086 42.5522C41.8086 42.074 41.4213 41.6855 40.9419 41.6855H34.6586C34.1793 41.6855 33.792 42.074 33.792 42.5522C33.792 43.0308 34.1793 43.4189 34.6586 43.4189Z" fill="white"/>
<path d="M34.6586 39.9521H40.9419C41.4213 39.9521 41.8086 39.5636 41.8086 39.0854C41.8086 38.6072 41.4213 38.2188 40.9419 38.2188H34.6586C34.1793 38.2188 33.792 38.6072 33.792 39.0854C33.792 39.564 34.1793 39.9521 34.6586 39.9521Z" fill="white"/>
<path d="M40.9418 43.4187C42.6117 43.4187 43.4854 42.1109 43.4854 40.8187C43.4854 40.1575 43.2617 39.5334 42.8562 39.0622C42.3893 38.519 41.7087 38.2188 40.9419 38.2188C40.4625 38.2188 40.0752 38.6072 40.0752 39.0854C40.0752 39.5636 40.4625 39.9521 40.9419 39.9521C41.2069 39.9521 41.403 40.031 41.5416 40.1919C41.6743 40.3471 41.7513 40.575 41.7513 40.8187C41.7513 40.9634 41.7122 41.6854 40.9411 41.6854C40.4617 41.6854 40.0744 42.0738 40.0744 42.552C40.0744 43.0306 40.4625 43.4187 40.9419 43.4187L40.9418 43.4187Z" fill="white"/>
<path d="M34.6589 43.4187C35.1383 43.4187 35.5256 43.0303 35.5256 42.5521C35.5256 42.0738 35.1383 41.6854 34.6589 41.6854C34.3939 41.6854 34.1978 41.6065 34.0592 41.4455C33.9258 41.2904 33.8495 41.0625 33.8495 40.8187C33.8495 40.674 33.8886 39.9521 34.6597 39.9521C35.1391 39.9521 35.5264 39.5636 35.5264 39.0854C35.5264 38.6072 35.1391 38.2188 34.6597 38.2188C32.9899 38.2188 32.1162 39.5265 32.1162 40.8187C32.1162 41.48 32.3398 42.1033 32.7453 42.5752C33.2115 43.1188 33.8921 43.4187 34.6589 43.4187L34.6589 43.4187Z" fill="white"/>
<path d="M30.0003 51.5717H44.5572C45.0365 51.5717 45.4238 51.1833 45.4238 50.7051C45.4238 50.2268 45.0365 49.8384 44.5572 49.8384H30.0003C29.5209 49.8384 29.1336 50.2268 29.1336 50.7051C29.1336 51.1833 29.5209 51.5717 30.0003 51.5717Z" fill="white"/>
<path d="M27.8975 44.6385C27.9261 44.6385 27.9547 44.6377 27.9849 44.6342C28.4615 44.5866 28.8082 44.1618 28.7614 43.6851L27.2889 28.9519C27.2405 28.4761 26.8219 28.1329 26.3398 28.1754C25.8632 28.223 25.5165 28.6478 25.5633 29.1245L27.0358 43.8577C27.0807 44.3049 27.4572 44.6385 27.8975 44.6385L27.8975 44.6385Z" fill="white"/>
<path d="M44.557 51.5718C46.4014 51.5718 47.9301 50.1878 48.1138 48.3532C48.1614 47.8773 47.814 47.4517 47.3373 47.4041C46.8494 47.3573 46.4358 47.7048 46.3882 48.1806C46.2946 49.1251 45.5069 49.8385 44.5571 49.8385C44.0777 49.8385 43.6904 50.2269 43.6904 50.7051C43.6904 51.1833 44.0781 51.5718 44.5571 51.5718L44.557 51.5718Z" fill="white"/>
<path d="M47.2536 49.133C47.6939 49.133 48.07 48.7995 48.1152 48.353L50.0381 29.1251C50.0857 28.6485 49.7383 28.2236 49.2616 28.1761C48.7745 28.1327 48.3601 28.4759 48.3125 28.9526L46.3893 48.1805C46.3417 48.6571 46.6891 49.082 47.1658 49.1295C47.1963 49.1319 47.225 49.133 47.2536 49.133L47.2536 49.133Z" fill="white"/>
<path d="M42.6753 41.6854C49.6136 41.6866 51.5907 32.714 51.6669 27.9695C51.6746 27.4913 51.2924 27.0966 50.8141 27.0889C50.346 27.0723 49.9413 27.4634 49.9336 27.9416C49.867 32.0954 48.2644 39.953 42.6761 39.953H42.6753C42.1971 39.953 41.8087 40.3414 41.8087 40.8197C41.8087 41.2982 42.196 41.6863 42.6753 41.6863L42.6753 41.6854Z" fill="white"/>
<path d="M32.9243 41.6856H32.9258C33.4052 41.6856 33.7925 41.2971 33.7925 40.8189C33.7925 40.3407 33.404 39.9522 32.9258 39.9522H32.9243C27.3065 39.9522 25.7206 32.0978 25.6675 27.9448C25.6613 27.4666 25.2818 27.06 24.7897 27.0894C24.3103 27.0956 23.928 27.4879 23.9342 27.9673C23.995 32.7114 25.9527 41.6852 32.9243 41.6852V41.6856Z" fill="white"/>
<path d="M24.8006 25.5717H50.8003C51.2797 25.5717 51.667 25.1832 51.667 24.705C51.667 24.2268 51.2797 23.8384 50.8003 23.8384H24.8006C24.3212 23.8384 23.9339 24.2268 23.9339 24.705C23.9339 25.1832 24.3212 25.5717 24.8006 25.5717Z" fill="white"/>
<path d="M24.8003 28.8211C25.2797 28.8211 25.667 28.4327 25.667 27.9545V24.7045C25.667 24.2263 25.2797 23.8379 24.8003 23.8379C24.3209 23.8379 23.9336 24.2263 23.9336 24.7045V27.9545C23.9336 28.4327 24.3209 28.8211 24.8003 28.8211Z" fill="white"/>
<path d="M25.8838 29.905C26.3632 29.905 26.7505 29.5166 26.7505 29.0384C26.7505 28.5602 26.3632 28.1717 25.8838 28.1717C25.7643 28.1717 25.6672 28.0746 25.6672 27.955C25.6672 27.4768 25.2799 27.0884 24.8005 27.0884C24.3211 27.0884 23.9338 27.4768 23.9338 27.955C23.9338 29.0306 24.809 29.9051 25.8839 29.9051L25.8838 29.905Z" fill="white"/>
<path d="M25.8837 29.9052H49.7163C50.1957 29.9052 50.583 29.5167 50.583 29.0385C50.583 28.5603 50.1957 28.1719 49.7163 28.1719H25.8837C25.4044 28.1719 25.0171 28.5603 25.0171 29.0385C25.0171 29.5167 25.4044 29.9052 25.8837 29.9052Z" fill="white"/>
<path d="M50.8003 28.8211C51.2797 28.8211 51.667 28.4327 51.667 27.9545V24.7045C51.667 24.2263 51.2797 23.8379 50.8003 23.8379C50.321 23.8379 49.9337 24.2263 49.9337 24.7045V27.9545C49.9337 28.4327 50.321 28.8211 50.8003 28.8211Z" fill="white"/>
<path d="M49.7165 29.9051C50.7913 29.9051 51.6665 29.0307 51.6665 27.955C51.6665 27.4768 51.2792 27.0884 50.7998 27.0884C50.3205 27.0884 49.9332 27.4768 49.9332 27.955C49.9332 28.0746 49.8361 28.1717 49.7165 28.1717C49.2372 28.1717 48.8499 28.5602 48.8499 29.0384C48.8499 29.5166 49.2372 29.905 49.7165 29.905L49.7165 29.9051Z" fill="white"/>
<path d="M19.6006 42.9047C20.08 42.9047 20.4673 42.5162 20.4673 42.038V21.2382C20.4673 20.76 20.08 20.3716 19.6006 20.3716C19.1213 20.3716 18.734 20.76 18.734 21.2382V42.038C18.734 42.5162 19.1213 42.9047 19.6006 42.9047Z" fill="white"/>
<path d="M10.9339 44.6381H17.0005C17.4799 44.6381 17.8672 44.2497 17.8672 43.7714C17.8672 43.2932 17.4799 42.9048 17.0005 42.9048H10.9339C10.4546 42.9048 10.0673 43.2932 10.0673 43.7714C10.0673 44.2497 10.4546 44.6381 10.9339 44.6381Z" fill="white"/>
<path d="M22.2005 44.6381H28.2671C28.7465 44.6381 29.1338 44.2497 29.1338 43.7714C29.1338 43.2932 28.7465 42.9048 28.2671 42.9048H22.2005C21.7212 42.9048 21.3339 43.2932 21.3339 43.7714C21.3339 44.2497 21.7212 44.6381 22.2005 44.6381Z" fill="white"/>
<path d="M17.0006 44.6385C17.48 44.6385 17.8673 44.2501 17.8673 43.7719C17.8673 43.2944 18.2557 42.9052 18.7339 42.9052C19.2133 42.9052 19.6006 42.5167 19.6006 42.0385C19.6006 41.5603 19.2133 41.1719 18.7339 41.1719C17.3004 41.1719 16.134 42.3384 16.134 43.7719C16.134 44.2501 16.5213 44.6385 17.0006 44.6385Z" fill="white"/>
<path d="M18.734 42.9052H20.4673C20.9467 42.9052 21.334 42.5168 21.334 42.0385C21.334 41.5603 20.9467 41.1719 20.4673 41.1719H18.734C18.2546 41.1719 17.8674 41.5603 17.8674 42.0385C17.8674 42.5168 18.2546 42.9052 18.734 42.9052Z" fill="white"/>
<path d="M22.2007 44.6385C22.6801 44.6385 23.0674 44.2501 23.0674 43.7719C23.0674 42.3384 21.9009 41.1719 20.4674 41.1719C19.988 41.1719 19.6007 41.5603 19.6007 42.0385C19.6007 42.5167 19.988 42.9052 20.4674 42.9052C20.9456 42.9052 21.334 43.2944 21.334 43.7719C21.334 44.2501 21.7213 44.6385 22.2007 44.6385Z" fill="white"/>
<path d="M9.20075 51.5717H30.0005C30.4799 51.5717 30.8672 51.1833 30.8672 50.7051C30.8672 50.2268 30.4799 49.8384 30.0005 49.8384H9.20075C8.72139 49.8384 8.33409 50.2268 8.33409 50.7051C8.33409 51.1833 8.72139 51.5717 9.20075 51.5717Z" fill="white"/>
<path d="M29.9991 51.5714C30.0684 51.5714 30.1396 51.5637 30.2096 51.5455C30.6743 51.4294 30.9567 50.9589 30.8406 50.4943L29.974 47.0277C29.8579 46.5641 29.3882 46.279 28.9236 46.3966C28.4589 46.5127 28.1765 46.9832 28.2925 47.4478L29.1592 50.9144C29.2582 51.3087 29.6107 51.5714 29.9992 51.5714L29.9991 51.5714Z" fill="white"/>
<path d="M9.20159 51.5716C9.59004 51.5716 9.9425 51.3089 10.0416 50.9154L10.9082 47.4487C11.025 46.9841 10.7426 46.5136 10.2772 46.3976C9.81521 46.2788 9.34281 46.5639 9.22679 47.0286L8.36014 50.4952C8.24329 50.9599 8.52573 51.4304 8.99117 51.5464C9.0612 51.5638 9.13239 51.5716 9.20164 51.5716H9.20159Z" fill="white"/>
<path d="M30.0005 48.1048C30.4799 48.1048 30.8672 47.7164 30.8672 47.2382V45.5048C30.8672 45.0266 30.4799 44.6382 30.0005 44.6382C29.5212 44.6382 29.1339 45.0266 29.1339 45.5048V47.2382C29.1339 47.7164 29.5212 48.1048 30.0005 48.1048Z" fill="white"/>
<path d="M9.20072 48.1048C9.68009 48.1048 10.0674 47.7164 10.0674 47.2382V45.5048C10.0674 45.0266 9.68009 44.6382 9.20072 44.6382C8.72136 44.6382 8.33406 45.0266 8.33406 45.5048V47.2382C8.33406 47.7164 8.72136 48.1048 9.20072 48.1048Z" fill="white"/>
<path d="M9.20081 46.3714C9.68017 46.3714 10.0675 45.9829 10.0675 45.5047C10.0675 45.0273 10.4559 44.6381 10.9341 44.6381C11.4135 44.6381 11.8008 44.2496 11.8008 43.7714C11.8008 43.2932 11.4135 42.9048 10.9341 42.9048C9.50062 42.9048 8.33415 44.0712 8.33415 45.5047C8.33415 45.9829 8.72144 46.3714 9.20081 46.3714Z" fill="white"/>
<path d="M30 46.3714C30.4794 46.3714 30.8667 45.9829 30.8667 45.5047C30.8667 44.0712 29.7002 42.9048 28.2667 42.9048C27.7874 42.9048 27.4001 43.2932 27.4001 43.7714C27.4001 44.2496 27.7874 44.6381 28.2667 44.6381C28.745 44.6381 29.1334 45.0273 29.1334 45.5047C29.1334 45.9829 29.5207 46.3714 30 46.3714Z" fill="white"/>
<path d="M21.3335 20.3721C21.8129 20.3721 22.2002 19.9836 22.2002 19.5054V10.8388C22.2002 10.3606 21.8129 9.97217 21.3335 9.97217C20.8542 9.97217 20.4669 10.3606 20.4669 10.8388V19.5054C20.4669 19.9836 20.8542 20.3721 21.3335 20.3721Z" fill="white"/>
<path d="M17.8671 20.3721C18.3465 20.3721 18.7338 19.9836 18.7338 19.5054V10.8388C18.7338 10.3606 18.3465 9.97217 17.8671 9.97217C17.3877 9.97217 17.0004 10.3606 17.0004 10.8388V19.5054C17.0004 19.9836 17.3877 20.3721 17.8671 20.3721Z" fill="white"/>
<path d="M19.6003 22.0488C20.2615 22.0488 20.8848 21.8252 21.3568 21.4197C21.9004 20.9519 22.2002 20.2721 22.2002 19.5053C22.2002 19.0271 21.8129 18.6387 21.3335 18.6387C20.8542 18.6387 20.4669 19.0271 20.4669 19.5053C20.4669 20.2768 19.7449 20.3155 19.6002 20.3155C19.4555 20.3155 18.7336 20.2768 18.7336 19.5053C18.7336 19.0271 18.3463 18.6387 17.8669 18.6387C17.3876 18.6387 17.0003 19.0271 17.0003 19.5053C17.0003 21.1752 18.308 22.0488 19.6002 22.0488L19.6003 22.0488Z" fill="white"/>
<path d="M17.8669 11.7053C18.3463 11.7053 18.7336 11.3168 18.7336 10.8386C18.7336 10.5736 18.8125 10.3774 18.9735 10.2381C19.1286 10.1054 19.3569 10.0284 19.6002 10.0284C19.7449 10.0284 20.4669 10.0675 20.4669 10.8386C20.4669 11.3168 20.8542 11.7053 21.3335 11.7053C21.8129 11.7053 22.2002 11.3168 22.2002 10.8386C22.2002 7.49846 17.0003 7.49846 17.0003 10.8386C17.0003 11.3168 17.3876 11.7053 17.8669 11.7053Z" fill="white"/>
</svg>
