<svg width="60" height="60" viewBox="0 0 60 60" fill="none" xmlns="http://www.w3.org/2000/svg">
<path d="M30.3723 39.0775C30.1208 39.0775 29.8688 38.9712 29.6852 38.7871C29.511 38.613 29.4043 38.3611 29.4043 38.1096C29.4043 37.8581 29.5106 37.6061 29.6852 37.4225C30.0434 37.0642 30.7016 37.0642 31.0598 37.4225C31.234 37.6066 31.3407 37.8581 31.3407 38.1096C31.3407 38.3611 31.2344 38.613 31.0598 38.7871C30.8757 38.9712 30.6238 39.0775 30.3723 39.0775H30.3723Z" fill="white"/>
<path d="M31.8824 54.1659C31.7519 54.1659 31.6201 54.14 31.4935 54.0838L24.9346 51.1955C24.4458 50.9795 24.2241 50.4086 24.4389 49.9199C24.6537 49.4312 25.2267 49.2095 25.7146 49.4243L32.2735 52.3126C32.7631 52.5286 32.9848 53.0995 32.7691 53.5882C32.6097 53.9499 32.2545 54.1659 31.8824 54.1659H31.8824Z" fill="white"/>
<path d="M25.2105 54.1662C25.1544 54.1662 25.0973 54.1615 25.0403 54.1507L6.63318 50.8734C6.10641 50.7796 5.75638 50.2771 5.85015 49.7508C5.94393 49.2253 6.45039 48.874 6.97279 48.9678L25.3799 52.2464C25.9066 52.3401 26.2567 52.8427 26.1629 53.369C26.0799 53.837 25.6711 54.1663 25.2105 54.1663L25.2105 54.1662Z" fill="white"/>
<path d="M32.9829 36.2234C32.7176 36.2234 32.4544 36.115 32.2625 35.902C31.9051 35.504 31.9384 34.8926 32.3351 34.5354C34.3679 32.7081 36.7083 31.3281 39.2921 30.4328C39.7946 30.2557 40.3482 30.5257 40.5232 31.0308C40.6982 31.535 40.4303 32.0868 39.9252 32.2618C37.5873 33.0719 35.4686 34.3201 33.6294 35.9746C33.4449 36.1409 33.2133 36.2234 32.9829 36.2234H32.9829Z" fill="white"/>
<path d="M20.5565 47.0444C18.9243 47.0444 17.0688 46.7735 14.9517 46.2287L13.9993 45.9625C9.42259 44.7026 6.58868 41.291 6.60505 37.0601C6.60678 36.527 7.04064 36.0962 7.57303 36.0962H7.57692C8.11103 36.0979 8.54404 36.5334 8.541 37.0679C8.52458 41.0331 11.6174 43.2988 14.5174 44.0973L15.4534 44.3596C18.5509 45.1563 20.9912 45.318 22.8912 44.8491C24.8553 44.3644 26.5532 42.9658 27.433 41.1074C27.6624 40.6235 28.2402 40.4183 28.7224 40.6468C29.2064 40.8754 29.4117 41.4531 29.1831 41.9361C28.0565 44.3151 25.8786 46.1065 23.3557 46.7286C22.5049 46.939 21.5737 47.0445 20.5563 47.0445L20.5565 47.0444Z" fill="white"/>
<path d="M37.6395 43.6048C37.4351 43.6048 37.229 43.5408 37.054 43.4064C36.6292 43.0832 36.5467 42.4752 36.8712 42.0504C37.5177 41.2004 38.2601 40.4183 39.0751 39.7273C39.4826 39.3807 40.0932 39.43 40.4389 39.8388C40.7846 40.2463 40.7349 40.8569 40.3274 41.2026C39.6187 41.8045 38.974 42.4843 38.4109 43.2237C38.2204 43.4743 37.9317 43.6048 37.6396 43.6048L37.6395 43.6048Z" fill="white"/>
<path d="M40.4349 40.8014C40.1554 40.8014 39.8775 40.6804 39.6865 40.448C39.3468 40.0348 39.4069 39.4247 39.82 39.0851C40.6039 38.4412 41.4405 37.8518 42.3078 37.3311C42.7667 37.0554 43.3609 37.2054 43.6357 37.663C43.9106 38.1219 43.7615 38.7161 43.3039 38.9909C42.5178 39.4624 41.759 39.9978 41.0485 40.5811C40.8683 40.7298 40.6505 40.8015 40.4349 40.8015L40.4349 40.8014Z" fill="white"/>
<path d="M6.80235 50.8881C6.70728 50.8881 6.61264 50.8734 6.51757 50.8454C6.00636 50.6877 5.71898 50.1467 5.87585 49.6355L8.31616 41.6923C8.47389 41.1812 9.01881 40.8978 9.52618 41.0516C10.0374 41.2093 10.3248 41.7502 10.1679 42.2614L7.7276 50.2046C7.60013 50.6202 7.21682 50.8881 6.8024 50.8881H6.80235Z" fill="white"/>
<path d="M7.57345 38.0318H7.57172C7.03761 38.0309 6.60461 37.5963 6.60547 37.0622L6.66338 13.407C6.66424 12.8739 7.0981 12.4409 7.63136 12.4409H7.63308C8.1672 12.4418 8.6002 12.8764 8.59934 13.4105L8.54143 37.0657C8.54057 37.5993 8.108 38.0318 7.57345 38.0318Z" fill="white"/>
<path d="M13.2738 24.9728H13.2543C12.4808 24.9633 11.8806 24.4016 11.8257 23.638C11.7881 23.1048 12.1887 22.642 12.7219 22.6031C12.9281 22.5923 13.1199 22.639 13.2833 22.7349C13.4488 22.6428 13.6432 22.5966 13.8468 22.6169C14.3792 22.6683 14.7694 23.1415 14.718 23.673C14.6471 24.418 14.0278 24.9729 13.2737 24.9729L13.2738 24.9728Z" fill="white"/>
<path d="M12.7916 24.5367C12.2929 24.5367 11.8703 24.1552 11.8275 23.6501L10.9546 13.2847C10.9101 12.7524 11.3051 12.284 11.8383 12.2387C12.3832 12.195 12.8391 12.5891 12.8845 13.1222L13.7574 23.4877C13.8019 24.02 13.4069 24.4884 12.8737 24.5337C12.846 24.5354 12.8179 24.5367 12.7916 24.5367L12.7916 24.5367Z" fill="white"/>
<path d="M13.7574 24.5472C13.7185 24.5472 13.6792 24.5455 13.6403 24.5403C13.1096 24.4764 12.7315 23.9946 12.795 23.464L14.5741 8.72514C14.6381 8.19455 15.1251 7.8165 15.6506 7.88001C16.1813 7.94396 16.5594 8.42572 16.4958 8.95631L14.7167 23.6952C14.658 24.1869 14.2405 24.5472 13.7574 24.5472Z" fill="white"/>
<path d="M19.7944 25.7587C19.7326 25.7587 19.6695 25.7548 19.6055 25.747C18.842 25.6519 18.2957 25.0063 18.3355 24.2449C18.3628 23.7108 18.8204 23.2964 19.3519 23.3284C19.5524 23.3392 19.7352 23.4088 19.8843 23.522C20.0554 23.4494 20.2512 23.4269 20.4478 23.4649C20.9724 23.5695 21.3134 24.0786 21.2088 24.6032C21.0714 25.2881 20.4807 25.7586 19.7944 25.7586L19.7944 25.7587Z" fill="white"/>
<path d="M19.303 25.2632H19.2701C18.736 25.2446 18.3177 24.7978 18.335 24.2633L18.8449 9.12739C18.8635 8.59335 19.3008 8.16819 19.8449 8.19239C20.379 8.21097 20.7973 8.65773 20.78 9.19221L20.2701 24.3271C20.2528 24.8507 19.822 25.2629 19.303 25.2629L19.303 25.2632Z" fill="white"/>
<path d="M20.2589 25.3811C20.1902 25.3811 20.1193 25.3742 20.0497 25.3586C19.5282 25.2433 19.198 24.7278 19.3121 24.2059L22.8193 8.25693C22.9347 7.73542 23.4524 7.40445 23.9722 7.51938C24.4938 7.63474 24.8239 8.1502 24.7099 8.67216L21.2027 24.6211C21.1042 25.0735 20.7044 25.3811 20.2589 25.3811L20.2589 25.3811Z" fill="white"/>
<path d="M26.4242 26.5211C26.3002 26.5211 26.1727 26.5056 26.0448 26.4736C25.3041 26.2856 24.8512 25.6063 24.9666 24.8591C25.0478 24.3307 25.5474 23.9716 26.0711 24.0511C26.2764 24.083 26.4566 24.1768 26.5957 24.3116C26.7816 24.2585 26.986 24.2632 27.1822 24.3328C27.6856 24.513 27.9479 25.0666 27.7668 25.57C27.5568 26.159 27.0236 26.5212 26.4242 26.5212L26.4242 26.5211Z" fill="white"/>
<path d="M26.8555 26.211C26.7431 26.211 26.629 26.1907 26.5167 26.15C26.0163 25.9634 25.7618 25.4056 25.9484 24.9043L30.9046 11.6156C31.0913 11.1153 31.65 10.8599 32.1505 11.0474C32.6509 11.2341 32.9054 11.7919 32.7187 12.2931L27.7626 25.5819C27.6174 25.9707 27.2488 26.211 26.8555 26.211L26.8555 26.211Z" fill="white"/>
<path d="M25.9255 25.9745C25.884 25.9745 25.8412 25.9715 25.7989 25.9667C25.2682 25.8972 24.8948 25.4111 24.9644 24.8818L27.0291 9.08549C27.0987 8.5549 27.5905 8.18332 28.1142 8.25115C28.6449 8.32071 29.0182 8.80679 28.9487 9.33609L26.8839 25.1324C26.8208 25.6193 26.4047 25.9745 25.9255 25.9745V25.9745Z" fill="white"/>
<path d="M35.8849 14.2766C35.7911 14.2766 35.6961 14.2619 35.6014 14.2338C35.0902 14.0769 34.8028 13.5359 34.9588 13.0247C35.2609 12.0373 34.3664 11.6851 34.1836 11.625C34.0017 11.565 33.0712 11.3105 32.723 12.2814C32.5419 12.7849 31.9862 13.048 31.485 12.8652C30.9815 12.6842 30.7201 12.1298 30.9012 11.6272C31.5615 9.78988 33.3608 9.31099 34.7942 9.789C36.2276 10.2661 37.3805 11.7249 36.8097 13.5922C36.6827 14.0079 36.2994 14.2766 35.8849 14.2766L35.8849 14.2766Z" fill="white"/>
<path d="M39.6084 32.3156C39.2368 32.3156 38.8825 32.0996 38.7217 31.7379C38.5056 31.2492 38.7273 30.6772 39.2165 30.4611C40.2523 30.0044 40.35 29.0141 40.1188 28.306C39.8876 27.6004 39.2273 26.8628 38.1198 27.1031C37.6008 27.2185 37.0822 26.8871 36.9668 26.3647C36.8528 25.8419 37.1838 25.326 37.7054 25.2119C39.5929 24.8006 41.344 25.8224 41.9588 27.7049C42.5746 29.5892 41.7682 31.4514 39.9986 32.2327C39.8716 32.2884 39.7389 32.3156 39.6084 32.3156L39.6084 32.3156Z" fill="white"/>
<path d="M31.9599 28.4332C31.8748 28.4332 31.7875 28.4215 31.7006 28.3973C31.1855 28.2539 30.8834 27.7207 31.026 27.2061L34.9511 13.0479C35.0945 12.5329 35.6278 12.233 36.1425 12.3734C36.6576 12.5169 36.9597 13.0501 36.8171 13.5647L32.8928 27.7229C32.7736 28.1519 32.3846 28.4323 31.9598 28.4323L31.9599 28.4332Z" fill="white"/>
<path d="M32.7158 29.0698C32.3636 29.0698 32.0235 28.8771 31.8524 28.5413C31.6104 28.0651 31.7993 27.4822 32.2763 27.2393C33.9945 26.3642 35.8134 25.6849 37.6814 25.2191C38.1991 25.0864 38.725 25.4049 38.8546 25.9247C38.9843 26.4437 38.6688 26.9692 38.1489 27.0979C36.4222 27.5287 34.7407 28.157 33.1531 28.9651C33.0126 29.0356 32.8627 29.0697 32.7157 29.0697L32.7158 29.0698Z" fill="white"/>
<path d="M32.4828 29.1239C32.1345 29.1239 31.7888 29.0029 31.5092 28.7665C31.0477 28.3785 30.8605 27.7579 31.033 27.1858C31.1877 26.6737 31.7278 26.3864 32.239 26.538C32.5467 26.6309 32.7753 26.8634 32.8738 27.146C33.1681 27.1953 33.436 27.3803 33.5795 27.6676C33.8185 28.146 33.6249 28.7276 33.1469 28.9666C32.9369 29.0729 32.7092 29.1239 32.4827 29.1239L32.4828 29.1239Z" fill="white"/>
<path d="M7.63228 14.3784C7.10853 14.3784 6.67769 13.9601 6.66516 13.4337C6.61763 11.4822 8.121 10.3877 9.63216 10.3138C11.1256 10.2334 12.7422 11.1849 12.8857 13.1325C12.9246 13.6657 12.5235 14.1294 11.9903 14.1683C11.4523 14.2033 10.9934 13.8053 10.9545 13.2729C10.8788 12.2432 9.91691 12.2363 9.72596 12.2471C9.53322 12.2557 8.576 12.3555 8.60022 13.3862C8.61362 13.9203 8.19056 14.3649 7.65645 14.3775C7.64867 14.3783 7.64003 14.3783 7.63225 14.3783L7.63228 14.3784Z" fill="white"/>
<path d="M19.8135 10.1279C19.7962 10.1279 19.7798 10.1279 19.7634 10.127C19.2301 10.0998 18.8187 9.64474 18.8468 9.11063C18.8991 8.08087 17.9458 7.9577 17.754 7.94343C17.5634 7.92615 16.5992 7.90973 16.4995 8.9356C16.4472 9.46798 15.9787 9.86381 15.4425 9.80504C14.9101 9.75362 14.5211 9.28044 14.573 8.74806C14.7618 6.8035 16.3888 5.90202 17.8979 6.01187C19.406 6.12422 20.8813 7.25773 20.7807 9.20914C20.7535 9.72597 20.3256 10.1278 19.8136 10.1278L19.8135 10.1279Z" fill="white"/>
<path d="M27.9906 10.1786C27.9413 10.1786 27.8921 10.1756 27.8424 10.1669C27.3139 10.0866 26.9509 9.59178 27.0321 9.06329C27.1881 8.0439 26.2521 7.82529 26.0633 7.79243C25.8766 7.76045 24.9173 7.64334 24.715 8.65496C24.6104 9.1787 24.1044 9.51921 23.5759 9.41378C23.0513 9.3092 22.7116 8.79929 22.817 8.27468C23.2003 6.3591 24.9099 5.61836 26.4003 5.88585C27.8899 6.14815 29.2424 7.42508 28.9461 9.35581C28.8726 9.8359 28.4604 10.1786 27.9906 10.1786L27.9906 10.1786Z" fill="white"/>
<path d="M25.2106 54.1655C25.198 54.1655 25.1855 54.1655 25.1717 54.1646C24.6376 54.1443 24.2223 53.6932 24.2435 53.1592L24.5784 44.6836C24.5987 44.1505 25.0286 43.7456 25.5839 43.7556C26.118 43.7759 26.5333 44.2269 26.5121 44.761L26.1772 53.2365C26.1565 53.7572 25.7274 54.1655 25.2106 54.1655H25.2106Z" fill="white"/>
<path d="M34.2025 46.0486C33.8066 46.0486 33.435 45.8036 33.2924 45.4099C33.1105 44.9065 33.3706 44.3521 33.8732 44.1702C35.0542 43.7432 36.0978 43.0017 36.8903 42.0272C37.2282 41.612 37.8371 41.5489 38.2523 41.8868C38.6676 42.2247 38.7307 42.8345 38.3928 43.2488C37.3781 44.4963 36.0437 45.4453 34.5325 45.9911C34.4231 46.0291 34.3108 46.0486 34.2023 46.0486L34.2025 46.0486Z" fill="white"/>
<path d="M31.8838 54.1657C31.7956 54.1657 31.7066 54.1531 31.6176 54.1281C31.1038 53.982 30.8056 53.4458 30.9525 52.9317L33.2718 44.8135C33.4187 44.2997 33.9533 44.0025 34.4683 44.1485C34.9821 44.2945 35.2803 44.8307 35.1334 45.3449L32.8141 53.4631C32.6918 53.8887 32.3046 54.1657 31.8837 54.1657L31.8838 54.1657Z" fill="white"/>
<path d="M44.9265 12.2788C44.8055 12.2788 44.6828 12.2555 44.5635 12.2071C44.0679 12.0057 43.8289 11.4413 44.0303 10.9469C44.4157 9.99453 43.561 9.56369 43.3855 9.48725C43.2105 9.40904 42.3112 9.07413 41.8735 10.0032C41.6462 10.4872 41.0693 10.6955 40.5852 10.4669C40.1013 10.2396 39.8943 9.6627 40.1216 9.17866C40.9491 7.41774 42.7818 7.10832 44.1612 7.71333C45.5406 8.31658 46.5552 9.87095 45.824 11.6734C45.6719 12.0502 45.3098 12.2788 44.9265 12.2788L44.9265 12.2788Z" fill="white"/>
<path d="M44.9606 31.6789C44.49 31.6789 44.0372 31.4555 43.749 31.0614C43.3929 30.5765 43.3561 29.9309 43.656 29.4167C43.9253 28.9552 44.5177 28.7992 44.9801 29.0684C45.258 29.23 45.4252 29.5109 45.4555 29.8078C45.7303 29.9258 45.9472 30.1691 46.019 30.4824C46.1382 31.0031 45.812 31.5221 45.29 31.6409C45.1815 31.6673 45.0709 31.679 44.9607 31.679L44.9606 31.6789Z" fill="white"/>
<path d="M45.0747 31.6654C44.6352 31.6654 44.2385 31.3642 44.1326 30.9191C44.0108 30.3984 44.334 29.8777 44.8539 29.7558C46.7298 29.3155 48.6571 29.0877 50.5813 29.0791H50.5852C51.1176 29.0791 51.5515 29.5099 51.5532 30.0432C51.5549 30.5773 51.1245 31.0129 50.5891 31.015C48.8109 31.0228 47.03 31.2337 45.2963 31.6403C45.222 31.658 45.1472 31.6654 45.0746 31.6654L45.0747 31.6654Z" fill="white"/>
<path d="M44.4927 30.8722C44.3328 30.8722 44.1703 30.8325 44.0213 30.7495C43.5545 30.4881 43.3882 29.8988 43.6496 29.4322L50.7923 16.6666C51.0529 16.1999 51.641 16.0327 52.1099 16.295C52.5766 16.5564 52.743 17.1458 52.4815 17.6124L45.3375 30.3768C45.1603 30.6944 44.8315 30.8724 44.4927 30.8724L44.4927 30.8722Z" fill="white"/>
<path d="M51.0119 36.4325C50.5513 36.4325 50.1425 36.1024 50.0595 35.6331C49.9666 35.1064 50.3179 34.6044 50.8447 34.5114C51.9548 34.3148 52.2811 33.3829 52.2232 32.6435C52.1653 31.9043 51.6964 31.0332 50.569 31.0138C50.0349 31.0043 49.6088 30.5636 49.6183 30.0287C49.6278 29.5003 50.0595 29.0781 50.5863 29.0781H50.6036C52.5387 29.1131 53.9985 30.5165 54.1531 32.4915C54.3091 34.4669 53.0866 36.0802 51.1814 36.4168C51.1243 36.4276 51.0673 36.4324 51.012 36.4324L51.0119 36.4325Z" fill="white"/>
<path d="M51.6356 18.106C51.4692 18.106 51.3007 18.0632 51.1468 17.9734C50.6853 17.7033 50.531 17.11 50.8011 16.6481C51.321 15.7614 50.5379 15.2117 50.375 15.1102C50.2125 15.0086 49.372 14.5458 48.8029 15.4006C48.5069 15.8456 47.9058 15.9658 47.4611 15.6715C47.016 15.3755 46.895 14.7753 47.1902 14.3297C48.2658 12.7101 50.1222 12.6708 51.4 13.4681C52.677 14.2649 53.4539 15.9489 52.4704 17.6273C52.292 17.935 51.9674 18.1061 51.6356 18.1061L51.6356 18.106Z" fill="white"/>
<path d="M33.8381 25.158C33.696 25.158 33.5508 25.126 33.4134 25.0595C32.9333 24.8245 32.7349 24.2446 32.97 23.7646L40.1283 9.1662C40.3634 8.68618 40.9402 8.48785 41.4234 8.7229C41.9035 8.95795 42.1018 9.53779 41.8667 10.0178L34.7085 24.6151C34.5399 24.9577 34.1964 25.1573 33.8381 25.1573V25.158Z" fill="white"/>
<path d="M33.4123 25.428C33.3138 25.428 33.214 25.4185 33.1133 25.3968C32.4504 25.2603 31.9729 24.6981 31.9526 24.0283C31.9362 23.4942 32.3562 23.0478 32.8908 23.0314C33.1444 23.0189 33.3748 23.1126 33.5519 23.2656C33.7736 23.1939 34.0204 23.2055 34.2498 23.3123C34.7338 23.5387 34.943 24.1147 34.7174 24.5996C34.4771 25.1134 33.9659 25.428 33.4124 25.428L33.4123 25.428Z" fill="white"/>
<path d="M39.9117 27.3376C39.6714 27.3376 39.4277 27.2797 39.1974 27.1587C38.5043 26.7958 38.2035 26.0088 38.4822 25.2885C38.675 24.7899 39.2363 24.5431 39.7336 24.735C39.9553 24.821 40.1286 24.98 40.234 25.1745C40.4527 25.1541 40.6822 25.2025 40.8796 25.3361C41.3221 25.636 41.438 26.2383 41.138 26.6804C40.8489 27.1065 40.39 27.3376 39.9116 27.3376L39.9117 27.3376Z" fill="white"/>
<path d="M39.3836 26.6059C39.2674 26.6059 39.1494 26.5848 39.034 26.5403C38.5353 26.3476 38.2877 25.7872 38.4804 25.289L44.023 10.9617C44.2166 10.463 44.7762 10.2155 45.2744 10.4082C45.7731 10.6009 46.0207 11.1613 45.828 11.6594L40.2854 25.9868C40.1376 26.3705 39.772 26.6059 39.3836 26.6059L39.3836 26.6059Z" fill="white"/>
<path d="M40.3352 27.1044C40.1485 27.1044 39.9588 27.0504 39.792 26.9367C39.3495 26.6356 39.2345 26.0337 39.5353 25.5926L47.1957 14.3214C47.4969 13.8802 48.098 13.764 48.5401 14.0647C48.9826 14.3659 49.0975 14.9678 48.7967 15.4089L41.1363 26.6801C40.9488 26.9553 40.645 27.1044 40.3352 27.1044H40.3352Z" fill="white"/>
<path d="M42.8067 39.1298C42.4787 39.1298 42.1581 38.9621 41.9762 38.6605C41.7005 38.2025 41.8483 37.6083 42.3072 37.3326C44.9138 35.7644 47.8934 34.786 50.9222 34.5013C51.4585 34.4459 51.9269 34.8418 51.9762 35.3742C52.0263 35.9065 51.6357 36.3788 51.1033 36.4281C48.361 36.6856 45.6631 37.5724 43.3032 38.9902C43.1485 39.0852 42.9761 39.1297 42.8067 39.1297L42.8067 39.1298Z" fill="white"/>
<path d="M39.7013 41.4335C39.4295 41.4335 39.1594 41.3194 38.9675 41.0977C38.6179 40.6932 38.6637 40.0813 39.0682 39.7317L39.8011 39.0995C40.2069 38.7512 40.8183 38.7966 41.1671 39.2002C41.5167 39.6047 41.4709 40.2166 41.0664 40.5662L40.3335 41.1984C40.1503 41.357 39.926 41.4335 39.7013 41.4335L39.7013 41.4335Z" fill="white"/>
<path d="M31.6865 46.4764C29.6381 46.4764 27.6547 45.8066 25.873 45.1251C25.3734 44.9346 25.1237 44.375 25.3147 43.8745C25.5052 43.375 26.0657 43.1274 26.5653 43.3162C28.9446 44.2263 31.467 45.0422 33.8727 44.1688C34.377 43.9877 34.9306 44.247 35.1125 44.7496C35.2944 45.253 35.0343 45.8074 34.5317 45.9893C33.5788 46.335 32.6252 46.4763 31.6865 46.4763L31.6865 46.4764Z" fill="white"/>
</svg>
