<svg width="60" height="60" viewBox="0 0 60 60" fill="none" xmlns="http://www.w3.org/2000/svg">
<path d="M15.0977 9.63904C14.8215 9.63904 14.5448 9.5223 14.3431 9.33057C14.1514 9.12887 14.0347 8.86311 14.0347 8.576C14.0347 8.2998 14.1514 8.02312 14.3431 7.82143C14.7366 7.42801 15.4489 7.42801 15.8528 7.82143C16.044 8.02313 16.1608 8.2998 16.1608 8.576C16.1608 8.8522 16.044 9.12888 15.8523 9.33057C15.6506 9.52229 15.3739 9.63904 15.0977 9.63904H15.0977Z" fill="white"/>
<path d="M19.3502 9.63904C19.074 9.63904 18.7973 9.5223 18.5956 9.33057C18.4039 9.12887 18.2871 8.8522 18.2871 8.576C18.2871 8.2998 18.4039 8.02312 18.5956 7.82143C18.9994 7.42801 19.7118 7.42801 20.1052 7.82143C20.2965 8.02313 20.4132 8.2998 20.4132 8.576C20.4132 8.8522 20.2965 9.12888 20.1048 9.33057C19.9031 9.52229 19.6264 9.63904 19.3502 9.63904H19.3502Z" fill="white"/>
<path d="M27.8543 9.63878H23.6021C23.0155 9.63878 22.5391 9.16231 22.5391 8.57574C22.5391 7.98917 23.0155 7.5127 23.6021 7.5127H27.8543C28.4408 7.5127 28.9173 7.98917 28.9173 8.57574C28.9173 9.16231 28.4408 9.63878 27.8543 9.63878Z" fill="white"/>
<path d="M49.1153 39.4041C48.5273 39.4041 48.0522 38.9276 48.0522 38.3411V6.44976C48.0522 5.86319 48.5273 5.38672 49.1153 5.38672C49.7033 5.38672 50.1783 5.86319 50.1783 6.44976V38.3411C50.1783 38.9276 49.7033 39.4041 49.1153 39.4041Z" fill="white"/>
<path d="M49.1153 50.0349C48.5273 50.0349 48.0522 49.5584 48.0522 48.9718V46.8458C48.0522 46.2592 48.5273 45.7827 49.1153 45.7827C49.7033 45.7827 50.1783 46.2592 50.1783 46.8458V48.9718C50.1783 49.5584 49.7033 50.0349 49.1153 50.0349Z" fill="white"/>
<path d="M49.1153 43.6566C48.8391 43.6566 48.5615 43.5399 48.3607 43.3482C48.1681 43.1465 48.0522 42.8698 48.0522 42.5936C48.0522 42.3174 48.168 42.0407 48.3607 41.839C48.7541 41.4456 49.4665 41.4456 49.8704 41.839C50.0616 42.0407 50.1784 42.3174 50.1784 42.5936C50.1784 42.8698 50.0616 43.1465 49.8699 43.3482C49.6682 43.5399 49.3915 43.6566 49.1153 43.6566H49.1153Z" fill="white"/>
<path d="M49.1153 13.8912H10.8458C10.2592 13.8912 9.78271 13.4148 9.78271 12.8282C9.78271 12.2416 10.2592 11.7651 10.8458 11.7651H49.1153C49.7033 11.7651 50.1784 12.2416 50.1784 12.8282C50.1784 13.4148 49.7033 13.8912 49.1153 13.8912Z" fill="white"/>
<path d="M38.4849 56.4129C37.8969 56.4129 37.4219 55.9365 37.4219 55.3499V51.0977C37.4219 50.5111 37.8969 50.0347 38.4849 50.0347C39.0729 50.0347 39.548 50.5111 39.548 51.0977V55.3499C39.548 55.9365 39.0729 56.4129 38.4849 56.4129Z" fill="white"/>
<path d="M46.9893 56.4132H38.4849C37.8969 56.4132 37.4219 55.9367 37.4219 55.3502C37.4219 54.7636 37.8969 54.2871 38.4849 54.2871H46.9893C47.5773 54.2871 48.0523 54.7636 48.0523 55.3502C48.0523 55.9367 47.5773 56.4132 46.9893 56.4132Z" fill="white"/>
<path d="M46.9888 56.4129C46.4008 56.4129 45.9258 55.9365 45.9258 55.3499V51.0977C45.9258 50.5111 46.4008 50.0347 46.9888 50.0347C47.5768 50.0347 48.0519 50.5111 48.0519 51.0977V55.3499C48.0519 55.9365 47.5768 56.4129 46.9888 56.4129Z" fill="white"/>
<path d="M21.4761 56.4129C20.8896 56.4129 20.4131 55.9365 20.4131 55.3499V51.0977C20.4131 50.5111 20.8896 50.0347 21.4761 50.0347C22.0627 50.0347 22.5392 50.5111 22.5392 51.0977V55.3499C22.5392 55.9365 22.0627 56.4129 21.4761 56.4129Z" fill="white"/>
<path d="M21.4761 56.4132H12.9717C12.3852 56.4132 11.9087 55.9367 11.9087 55.3502C11.9087 54.7636 12.3852 54.2871 12.9717 54.2871H21.4761C22.0627 54.2871 22.5391 54.7636 22.5391 55.3502C22.5391 55.9367 22.0627 56.4132 21.4761 56.4132Z" fill="white"/>
<path d="M12.9717 56.4129C12.3852 56.4129 11.9087 55.9365 11.9087 55.3499V51.0977C11.9087 50.5111 12.3852 50.0347 12.9717 50.0347C13.5583 50.0347 14.0348 50.5111 14.0348 51.0977V55.3499C14.0348 55.9365 13.5583 56.4129 12.9717 56.4129Z" fill="white"/>
<path d="M12.9718 52.1609C11.2135 52.1609 9.78271 50.7301 9.78271 48.9717C9.78271 48.3852 10.2592 47.9087 10.8458 47.9087C11.4323 47.9087 11.9088 48.3852 11.9088 48.9717C11.9088 49.5574 12.3862 50.0348 12.9718 50.0348C13.5584 50.0348 14.0349 50.5113 14.0349 51.0978C14.0349 51.6844 13.5584 52.1609 12.9718 52.1609Z" fill="white"/>
<path d="M10.8458 50.0345C10.2592 50.0345 9.78271 49.5581 9.78271 48.9715V6.44976C9.78271 5.86319 10.2592 5.38672 10.8458 5.38672C11.4323 5.38672 11.9088 5.86319 11.9088 6.44976V48.9715C11.9088 49.5581 11.4323 50.0345 10.8458 50.0345Z" fill="white"/>
<path d="M46.9891 52.1608H12.9717C12.3852 52.1608 11.9087 51.6843 11.9087 51.0977C11.9087 50.5111 12.3852 50.0347 12.9717 50.0347H46.9891C47.5771 50.0347 48.0522 50.5111 48.0522 51.0977C48.0522 51.6843 47.5771 52.1608 46.9891 52.1608Z" fill="white"/>
<path d="M46.9893 52.1609C46.4013 52.1609 45.9263 51.6844 45.9263 51.0978C45.9263 50.5113 46.4013 50.0348 46.9893 50.0348C47.5759 50.0348 48.0524 49.5574 48.0524 48.9717C48.0524 48.3852 48.5274 47.9087 49.1154 47.9087C49.7034 47.9087 50.1784 48.3852 50.1784 48.9717C50.1784 50.7301 48.7476 52.1609 46.9893 52.1609Z" fill="white"/>
<path d="M49.1153 7.51292C48.5273 7.51292 48.0522 7.03644 48.0522 6.44987C48.0522 5.86425 47.5758 5.38683 46.9892 5.38683C46.4012 5.38683 45.9261 4.91035 45.9261 4.32379C45.9261 3.73722 46.4012 3.26074 46.9892 3.26074C48.7475 3.26074 50.1783 4.69154 50.1783 6.44987C50.1783 7.03644 49.7033 7.51292 49.1153 7.51292Z" fill="white"/>
<path d="M46.9891 5.38683H12.9717C12.3852 5.38683 11.9087 4.91035 11.9087 4.32379C11.9087 3.73722 12.3852 3.26074 12.9717 3.26074H46.9891C47.5771 3.26074 48.0522 3.73722 48.0522 4.32379C48.0522 4.91035 47.5771 5.38683 46.9891 5.38683Z" fill="white"/>
<path d="M10.8458 7.51292C10.2592 7.51292 9.78271 7.03644 9.78271 6.44987C9.78271 4.69154 11.2135 3.26074 12.9718 3.26074C13.5584 3.26074 14.0349 3.73722 14.0349 4.32379C14.0349 4.91035 13.5584 5.38683 12.9718 5.38683C12.3862 5.38683 11.9088 5.86425 11.9088 6.44987C11.9088 7.03644 11.4323 7.51292 10.8458 7.51292Z" fill="white"/>
<path d="M29.8796 45.7728C29.8796 45.7728 29.8806 45.7728 29.8796 45.7728C28.556 45.7728 27.2391 45.5763 25.9625 45.189C21.0715 43.705 17.3135 39.5018 16.3899 34.4799C15.4479 29.3678 17.5222 24.0441 21.6742 20.9179C24.0361 19.1391 26.9957 18.1592 30.0073 18.1592C32.1866 18.1592 34.3444 18.6727 36.2508 19.6455C40.8376 21.9842 43.8004 26.8192 43.8004 31.9634C43.8004 35.6713 42.3059 39.1613 39.591 41.788C36.9747 44.3204 33.4358 45.7735 29.8797 45.7735L29.8796 45.7728ZM30.0073 20.2852C27.454 20.2852 24.9492 21.1134 22.9528 22.6154C19.4385 25.2626 17.6831 29.7677 18.4795 34.0943C19.2621 38.3432 22.4412 41.8991 26.579 43.1534C30.5621 44.3622 35.0644 43.2075 38.1112 40.2585C40.4105 38.0366 41.6743 35.09 41.6743 31.9626C41.6743 27.6093 39.1666 23.5175 35.2856 21.5385C33.6768 20.7189 31.8515 20.2852 30.0074 20.2852H30.0073Z" fill="white"/>
<path d="M42.0084 37.2769H41.9956C40.0014 37.2536 37.6476 37.1056 35.3198 36.1906C33.1885 35.352 31.3006 34.1073 29.474 32.9028L29.3317 32.8093C27.5126 31.6091 25.7937 30.4759 23.8622 29.7138C21.8595 28.925 19.7447 28.7964 17.94 28.775C17.3534 28.7689 16.8821 28.2872 16.8897 27.6992C16.8973 27.1112 17.332 26.6447 17.9656 26.649C19.963 26.6722 22.3198 26.8203 24.6424 27.7353C26.7789 28.5771 28.6725 29.8262 30.5019 31.0326L30.0586 32.014L30.6433 31.1266C32.4581 32.3225 34.1717 33.4534 36.0966 34.2104C38.1045 35.0001 40.2169 35.1277 42.0188 35.1491C42.6068 35.1553 43.0766 35.637 43.0691 36.225C43.0653 36.8092 42.5902 37.2771 42.0084 37.2771L42.0084 37.2769Z" fill="white"/>
</svg>
