<svg width="54" height="54" viewBox="0 0 54 54" fill="none" xmlns="http://www.w3.org/2000/svg">
<path fill-rule="evenodd" clip-rule="evenodd" d="M18.7126 0.718636C22.1233 1.73424 25.1263 3.96318 26.8251 7.23461C29.8682 13.0941 27.5507 20.5838 21.2589 23.5055C15.6898 26.0919 8.58829 24.0545 5.86301 18.5905C3.48486 13.8233 5.41525 7.77918 10.5804 5.50168C15.0048 3.55095 20.5956 5.19422 22.641 9.58804C24.3512 13.2629 22.8232 17.8923 18.7721 19.5128C15.4937 20.8241 11.3701 19.5613 10.0277 16.217C8.99139 13.6358 10.1525 10.3795 13.1268 9.45618C14.1942 9.12471 15.3547 9.19157 16.3637 9.62615C17.3727 10.0598 18.2438 10.9294 18.5155 12.1122C18.6892 12.8702 18.5692 13.6448 18.16 14.3346C17.7513 15.0239 16.8826 15.6393 15.8506 15.5965C15.0704 15.5626 14.7154 15.2914 14.311 14.8243C14.109 14.5908 13.8882 14.255 13.9164 13.7508C13.9461 13.247 14.344 12.7554 14.7258 12.5454V12.545C15.2287 12.2629 15.8732 12.3844 16.2259 12.8275C16.2343 12.7371 16.2791 12.642 16.264 12.5827C16.1585 12.1236 15.8803 11.8223 15.4151 11.6221C14.9499 11.422 14.3246 11.3952 13.8358 11.5468C12.2434 12.0412 11.5768 13.9293 12.178 15.4261C13.0175 17.518 15.7318 18.358 17.8827 17.4978C20.6629 16.3857 21.7586 13.0946 20.5475 10.4923C19.0545 7.28399 14.8499 6.0414 11.5465 7.49818C7.60516 9.23604 6.10885 13.9492 7.95399 17.649C10.1043 21.96 15.8001 23.5957 20.2509 21.5283C25.3449 19.1628 27.2405 13.0076 24.7512 8.21403C21.9426 2.80601 14.7543 0.803094 9.15765 3.48727C4.78165 5.58578 2.09036 10.1204 2.3084 14.7864C2.3536 15.0915 2.26226 15.4009 2.05698 15.6382C1.85123 15.8759 1.55083 16.0205 1.2283 16.0365C0.905778 16.052 0.591256 15.9381 0.361023 15.722C0.131261 15.5058 0.00695281 15.2073 0.018729 14.8994C-0.239287 9.37363 2.88757 4.01503 8.11153 1.50924C11.4682 -0.100492 15.3008 -0.297325 18.7111 0.718238L18.7126 0.718636Z" fill="white"/>
<path d="M1.2497 20.5C0.925006 20.5 0.599741 20.3616 0.37491 20.1343C0.137238 19.8946 0 19.5671 0 19.2396C0 18.9105 0.137243 18.583 0.36264 18.345C0.837412 17.8785 1.67483 17.8915 2.13736 18.345C2.37503 18.583 2.5 18.911 2.5 19.2396C2.5 19.58 2.37503 19.9064 2.13736 20.1343C1.91197 20.361 1.58726 20.5 1.24974 20.5H1.2497Z" fill="white"/>
<path d="M41.1187 1.34974e-05L15.5859 0.0748762L15.5864 0.0744054C15.2879 0.0758178 15.0016 0.19494 14.7916 0.406345C14.5811 0.61775 14.4639 0.90402 14.4648 1.20207C14.4658 1.49964 14.5859 1.78496 14.7977 1.99495C15.0096 2.20448 15.2963 2.32171 15.5949 2.32077L41.1277 2.24591H41.1272C41.4257 2.24497 41.712 2.12537 41.922 1.91397C42.1324 1.70256 42.2497 1.41676 42.2487 1.11872C42.2478 0.820672 42.1277 0.535824 41.9158 0.325829C41.704 0.115834 41.4172 -0.00139767 41.1187 1.25778e-05V1.34974e-05Z" fill="white"/>
<path d="M41.6752 21.7575L15.9013 22.396C15.6024 22.4021 15.3184 22.5264 15.1117 22.7416C14.9051 22.9572 14.7925 23.2458 14.7991 23.5439C14.8057 23.8419 14.9309 24.1249 15.147 24.3311C15.3632 24.5373 15.6523 24.6489 15.9512 24.6418L41.7251 23.9954C42.0392 24.0137 42.3461 23.9007 42.5726 23.6832C42.7991 23.4652 42.9239 23.1629 42.9168 22.8494C42.9097 22.5358 42.7718 22.2396 42.5359 22.032C42.3 21.8248 41.9878 21.725 41.6752 21.7575H41.6752Z" fill="white"/>
<path d="M40.9781 0.00790412C40.3745 0.0747634 39.9333 0.607285 39.9799 1.2109C40.027 1.81498 40.5459 2.27311 41.1523 2.24579C43.006 2.20012 45.71 2.76748 47.8551 4.21858C50.0008 5.66921 51.6445 7.89729 51.7424 11.5707C51.8464 15.4744 50.4005 17.8672 48.4366 19.4365C46.4727 21.0059 43.9005 21.6843 41.9494 21.7323C41.6509 21.7399 41.3679 21.8656 41.1622 22.0817C40.9564 22.2978 40.8453 22.5869 40.8528 22.8845C40.8609 23.1825 40.9866 23.465 41.2031 23.6703C41.4197 23.8756 41.7093 23.9862 42.0078 23.9787C44.411 23.9194 47.4003 23.1505 49.8487 21.1938C52.2975 19.237 54.1136 16.0226 53.9935 11.5129C53.8772 7.16284 51.7461 4.13164 49.118 2.35424C46.4898 0.576838 43.4284 -0.0493381 41.0945 0.00851841V0.00804804C41.0554 0.00616469 41.0168 0.00616469 40.9782 0.00804804L40.9781 0.00790412Z" fill="white"/>
<path d="M1.1087 21.8009C0.810182 21.806 0.525805 21.9299 0.31863 22.1441C0.111455 22.3588 -0.00153325 22.647 0.00410776 22.9445V46.0509C0.00269534 46.3489 0.120405 46.6352 0.330395 46.8466C0.540861 47.058 0.826659 47.1771 1.12517 47.1781C15.2373 47.1781 30.1414 47.2346 44.1668 47.1286C44.4653 47.1277 44.7516 47.0081 44.9621 46.7967C45.1721 46.5853 45.2898 46.2995 45.2883 46.0014V23.0083C45.2883 22.3882 44.7845 21.8854 44.163 21.8854C43.5415 21.8854 43.0373 22.3882 43.0373 23.0083V44.8817C29.7146 44.9744 15.6687 44.934 2.24603 44.9311V22.9433C2.25168 22.6396 2.13444 22.3473 1.92021 22.1316C1.70551 21.916 1.41287 21.7971 1.1087 21.8009Z" fill="white"/>
<path d="M22.6473 46.0769C22.3483 46.0825 22.0644 46.2059 21.8572 46.4206C21.65 46.6348 21.5365 46.923 21.5422 47.2205V52.7826C21.5422 53.4027 22.046 53.9055 22.668 53.9055C23.2895 53.9055 23.7933 53.4027 23.7933 52.7826V47.2205C23.7989 46.9159 23.6803 46.6216 23.4637 46.4055C23.2476 46.1899 22.9528 46.0712 22.6472 46.0769H22.6473Z" fill="white"/>
<path d="M15.4705 46.0769C15.172 46.0825 14.8876 46.2059 14.6804 46.4206C14.4733 46.6348 14.3598 46.923 14.3654 47.2205V52.7826C14.3654 53.4027 14.8697 53.9055 15.4912 53.9055C16.1127 53.9055 16.6165 53.4027 16.6165 52.7826V47.2205C16.6221 46.9159 16.5035 46.6216 16.2869 46.4055C16.0708 46.1899 15.776 46.0712 15.4705 46.0769H15.4705Z" fill="white"/>
<path d="M8.29358 46.0767C7.99507 46.0824 7.71069 46.2057 7.50352 46.4204C7.29634 46.6347 7.18287 46.9228 7.18852 47.2204V52.7825C7.16216 53.0956 7.26857 53.4054 7.48139 53.637C7.69467 53.8682 7.99507 54 8.31006 54C8.62505 54 8.92545 53.8682 9.13873 53.637C9.35155 53.4054 9.45796 53.0956 9.43113 52.7825V47.2204C9.43725 46.9172 9.31907 46.6238 9.10484 46.4087C8.89061 46.193 8.59775 46.0734 8.29358 46.0767Z" fill="white"/>
<path d="M1.10856 44.1866C0.490346 44.1979 -0.00309736 44.705 0.00396595 45.3223V52.7822C-0.0224009 53.0954 0.0835392 53.4052 0.29683 53.6363C0.509645 53.8675 0.81051 53.9994 1.12503 53.9994C1.44003 53.9994 1.74042 53.8675 1.95371 53.6363C2.16652 53.4052 2.27293 53.0953 2.24657 52.7822V45.3223C2.24987 45.02 2.13121 44.7295 1.91698 44.5157C1.70275 44.302 1.4113 44.1833 1.10856 44.1866Z" fill="white"/>
<path d="M44.1834 44.8663C43.8849 44.8696 43.6001 44.9911 43.391 45.2039C43.1824 45.4167 43.0671 45.7039 43.0704 46.0019V52.782C43.0704 53.4021 43.5742 53.9049 44.1957 53.9049C44.8177 53.9049 45.3214 53.4021 45.3214 52.782V46.0019C45.3247 45.6997 45.2061 45.4087 44.9919 45.1949C44.7776 44.9812 44.4862 44.863 44.1834 44.8663H44.1834Z" fill="white"/>
<path d="M29.831 46.0767C29.5311 46.08 29.2448 46.2024 29.0358 46.4176C28.8267 46.6323 28.7123 46.9214 28.718 47.2204V52.7825C28.718 53.4025 29.2218 53.9054 29.8437 53.9054C30.4652 53.9054 30.969 53.4025 30.969 52.7825V47.2204C30.9747 46.9172 30.857 46.6238 30.6423 46.4087C30.4281 46.193 30.1352 46.0734 29.831 46.0767H29.831Z" fill="white"/>
<path d="M37.0068 46.0767C36.7069 46.08 36.4206 46.2024 36.2116 46.4176C36.0025 46.6323 35.8881 46.9214 35.8938 47.2204V52.7825C35.8938 53.4025 36.3976 53.9054 37.0195 53.9054C37.641 53.9054 38.1448 53.4025 38.1448 52.7825V47.2204C38.1505 46.9172 38.0328 46.6238 37.8181 46.4087C37.6038 46.193 37.311 46.0734 37.0068 46.0767H37.0068Z" fill="white"/>
</svg>
