<svg width="54" height="54" viewBox="0 0 54 54" fill="none" xmlns="http://www.w3.org/2000/svg">
<path d="M3.17794 36.72C1.09161 36.72 0 35.0904 0 33.4801C0 32.6552 0.279405 31.8784 0.786019 31.2913C1.37046 30.6139 2.2198 30.2402 3.17789 30.2402C3.77537 30.2402 4.26071 30.7228 4.26071 31.3202C4.26071 31.9175 3.77537 32.4002 3.17789 32.4002C2.21397 32.4002 2.16564 33.2998 2.16564 33.4801C2.16564 33.6604 2.21398 34.5601 3.17789 34.5601C3.77537 34.5601 4.26071 35.0427 4.26071 35.6401C4.26071 36.2374 3.77537 36.72 3.17789 36.72L3.17794 36.72Z" fill="white"/>
<path d="M50.823 36.7195C50.2241 36.7195 49.7402 36.2369 49.7402 35.6396C49.7402 35.0422 50.2241 34.5596 50.823 34.5596C51.1542 34.5596 51.3993 34.4612 51.5723 34.2607C51.7391 34.0673 51.8343 33.7834 51.8343 33.4796C51.8343 33.2993 51.7855 32.3997 50.8221 32.3997C50.2232 32.3997 49.7393 31.9171 49.7393 31.3197C49.7393 30.7224 50.2232 30.2397 50.8221 30.2397C52.9084 30.2397 54 31.8693 54 33.4796C54.001 35.089 52.9095 36.7195 50.8231 36.7195H50.823Z" fill="white"/>
<path d="M50.8219 32.3997H3.17755C2.58007 32.3997 2.09473 31.9171 2.09473 31.3197C2.09473 30.7224 2.58007 30.2397 3.17755 30.2397H50.8219C51.4208 30.2397 51.9047 30.7224 51.9047 31.3197C51.9047 31.9171 51.4208 32.3997 50.8219 32.3997Z" fill="white"/>
<path d="M47.154 50.4745C47.0878 50.4745 47.0206 50.4683 46.9524 50.4552C46.3646 50.3453 45.9779 49.7812 46.0881 49.1949L48.6747 35.4405C48.785 34.8552 49.3462 34.4695 49.9384 34.5785C50.5262 34.6884 50.9129 35.2525 50.8027 35.8388L48.216 49.5932C48.1198 50.1124 47.665 50.4745 47.154 50.4745L47.154 50.4745Z" fill="white"/>
<path d="M42.8992 53.9993C42.3003 53.9993 41.8164 53.5167 41.8164 52.9193C41.8164 52.322 42.3003 51.8393 42.8992 51.8393C44.4606 51.8393 45.8036 50.728 46.0892 49.1968C46.1994 48.6115 46.7539 48.2292 47.3528 48.3329C47.9406 48.4428 48.3273 49.0069 48.2191 49.5931C47.739 52.1461 45.5033 53.9993 42.8992 53.9993Z" fill="white"/>
<path d="M42.8985 53.9988H11.1043C10.5068 53.9988 10.0215 53.5162 10.0215 52.9188C10.0215 52.3215 10.5068 51.8389 11.1043 51.8389H42.8973C43.4962 51.8389 43.9801 52.3215 43.9801 52.9188C43.9796 53.5162 43.4957 53.9988 42.8983 53.9988H42.8985Z" fill="white"/>
<path d="M6.84565 50.4742C6.33469 50.4742 5.87981 50.1126 5.78215 49.5939L3.1955 35.8394C3.08528 35.2532 3.47249 34.6891 4.05983 34.5791C4.65006 34.4678 5.21323 34.8554 5.32346 35.4412L7.91011 49.1956C8.02032 49.7819 7.63312 50.346 7.04578 50.4559C6.97907 50.4675 6.91188 50.4742 6.84565 50.4742V50.4742Z" fill="white"/>
<path d="M11.1037 53.9991C8.49964 53.9991 6.26147 52.1458 5.78144 49.594C5.67122 49.0077 6.05843 48.4436 6.64673 48.3337C7.23262 48.2237 7.80013 48.609 7.91035 49.1957C8.19846 50.7279 9.5409 51.8392 11.1038 51.8392C11.7012 51.8392 12.1866 52.3218 12.1866 52.9192C12.1866 53.5165 11.7027 53.9991 11.1038 53.9991L11.1037 53.9991Z" fill="white"/>
<path d="M37.9491 3.86945C37.8625 3.86945 37.7745 3.85884 37.6871 3.83811L30.7874 2.12942C30.2068 1.98574 29.854 1.39948 29.998 0.820504C30.143 0.240507 30.7299 -0.106143 31.3104 0.0331914L38.21 1.74188C38.7906 1.88556 39.1435 2.47182 38.9994 3.0508C38.8771 3.54113 38.4353 3.86945 37.949 3.86945L37.9491 3.86945Z" fill="white"/>
<path d="M26.9812 3.82622C25.239 3.82622 23.5065 3.1633 22.1853 1.84328C21.7628 1.42094 21.7643 0.738253 22.1863 0.3164C22.6098 -0.104983 23.2943 -0.104983 23.7187 0.318329C25.5248 2.12292 28.4682 2.12724 30.2776 0.324596C30.3273 0.274938 30.3902 0.220939 30.4496 0.181893C30.949 -0.149811 31.62 -0.0148209 31.9516 0.480815C32.26 0.943175 32.1648 1.55643 31.7481 1.9055C30.4061 3.18801 28.6896 3.82624 26.9812 3.82624L26.9812 3.82622Z" fill="white"/>
<path d="M16.0513 3.86969C15.565 3.86969 15.1246 3.54136 15.0009 3.05008C14.8568 2.47104 15.2111 1.88478 15.7912 1.74116L22.6909 0.0324721C23.269 -0.107825 23.8583 0.240751 24.0024 0.819785C24.1464 1.39882 23.7921 1.98508 23.212 2.1287L16.3124 3.83739C16.2258 3.8586 16.1379 3.86969 16.0513 3.86969L16.0513 3.86969Z" fill="white"/>
<path d="M41.4025 16.8707C41.1511 16.8707 40.8968 16.7834 40.6933 16.606L37.2404 13.6144C36.7889 13.2234 36.7401 12.5422 37.1321 12.0919C37.5232 11.6406 38.2096 11.5938 38.6587 11.9839L42.1116 14.9754C42.5631 15.3665 42.612 16.0477 42.2199 16.498C42.0058 16.7453 41.7046 16.8707 41.4025 16.8707Z" fill="white"/>
<path d="M41.4017 16.8707C41.1503 16.8707 40.897 16.7844 40.6925 16.606C40.241 16.216 40.1922 15.5338 40.5843 15.0835L45.5523 9.37359C45.9433 8.92329 46.6264 8.87362 47.0789 9.26559C47.5304 9.65564 47.5792 10.3378 47.1871 10.7882L42.2191 16.498C42.005 16.7444 41.7038 16.8707 41.4017 16.8707Z" fill="white"/>
<path d="M46.3714 11.1608C46.1201 11.1608 45.8668 11.0745 45.6623 10.8961L37.2414 3.60439C36.7899 3.21435 36.741 2.53214 37.1331 2.08183C37.5242 1.62911 38.2082 1.5809 38.6597 1.97383L47.0806 9.26551C47.5321 9.65555 47.5809 10.3378 47.1889 10.7881C46.9747 11.0354 46.6736 11.1608 46.3714 11.1608Z" fill="white"/>
<path d="M12.5994 16.871C12.2963 16.871 11.9951 16.7456 11.7819 16.4993C11.3899 16.049 11.4378 15.3663 11.8893 14.9752L15.3413 11.9837C15.7938 11.5936 16.4773 11.6413 16.8694 12.0907C17.2614 12.541 17.2136 13.2237 16.7621 13.6147L13.31 16.6063C13.1041 16.7837 12.8508 16.871 12.5994 16.871H12.5994Z" fill="white"/>
<path d="M12.6001 16.871C12.297 16.871 11.9958 16.7457 11.7816 16.4983L6.81278 10.7885C6.42073 10.3382 6.46956 9.65548 6.92106 9.26592C7.37255 8.87395 8.05706 8.92265 8.44914 9.37391L13.418 15.0838C13.8101 15.5341 13.7612 16.2168 13.3097 16.6063C13.1048 16.7847 12.8515 16.871 12.6001 16.871H12.6001Z" fill="white"/>
<path d="M7.63118 11.1613C7.32809 11.1613 7.02693 11.036 6.81278 10.7887C6.42073 10.3384 6.46956 9.65565 6.92106 9.26609L15.342 1.97441C15.7944 1.58244 16.478 1.63115 16.8701 2.08241C17.2621 2.53271 17.2133 3.21541 16.7618 3.60498L8.34086 10.8966C8.1359 11.075 7.8826 11.1613 7.63122 11.1613H7.63118Z" fill="white"/>
<path d="M48.5156 32.4001C47.9167 32.4001 47.4328 31.9175 47.4328 31.3201C47.4328 28.3921 44.9544 25.9183 42.0207 25.9183H42.0173C40.5946 25.9183 39.242 26.4853 38.2081 27.5156C37.1731 28.5459 36.6032 29.8958 36.6032 31.3162C36.6032 31.9135 36.1178 32.3962 35.5203 32.3962C34.9214 32.3962 34.4375 31.9121 34.4375 31.3162C34.4385 29.3182 35.2332 27.4263 36.6767 25.9877C38.1201 24.5504 40.016 23.7588 42.0159 23.7588H42.0212C46.1273 23.7588 49.5977 27.221 49.5977 31.3205C49.5986 31.9174 49.1143 32.4 48.5158 32.4L48.5156 32.4001Z" fill="white"/>
<path d="M18.4809 32.4C17.882 32.4 17.3981 31.9159 17.3981 31.32C17.3981 29.8997 16.8296 28.5498 15.7957 27.5174C14.7617 26.4852 13.4081 25.9182 11.985 25.9182H11.9816C10.559 25.9182 9.20635 26.4852 8.17339 27.5155C7.13939 28.5467 6.56995 29.8957 6.56995 31.3161C6.56995 31.9134 6.08461 32.396 5.48712 32.396C4.88964 32.396 4.4043 31.912 4.4043 31.3161C4.4043 29.3191 5.19998 27.4272 6.64247 25.9886C8.08495 24.5499 9.98091 23.7583 11.9807 23.7583H11.9851C13.9874 23.7583 15.8842 24.5509 17.3267 25.9906C18.7691 27.4302 19.5639 29.3235 19.5629 31.32C19.5638 31.9174 19.0785 32.4 18.481 32.4H18.4809Z" fill="white"/>
<path d="M32.3123 26.4348C31.7134 26.4348 31.2295 25.9522 31.2295 25.3548C31.2295 22.4693 33.5836 20.0466 36.4768 19.956C36.5343 19.9541 36.5914 19.9526 36.6499 19.9526C39.4101 19.9526 41.7566 22.0576 42.0316 24.8178C42.091 25.4118 41.6559 25.9397 41.0614 25.9995C40.4755 26.0568 39.9365 25.6258 39.8766 25.0319C39.7122 23.3709 38.2034 22.0489 36.5459 22.115C34.8091 22.1699 33.3961 23.6236 33.3961 25.3558C33.3951 25.9513 32.9112 26.4348 32.3123 26.4348L32.3123 26.4348Z" fill="white"/>
<path d="M24.9383 23.9815C24.8798 23.9815 24.8203 23.9771 24.7594 23.9665C24.1692 23.8682 23.7709 23.3132 23.8695 22.7246C24.3548 19.8173 26.7723 18.4101 28.9534 18.3054C31.1582 18.1993 33.6778 19.3723 34.4391 22.2203C34.5938 22.796 34.2496 23.389 33.6724 23.5423C33.103 23.6999 32.5021 23.3543 32.3469 22.7776C31.8659 20.9774 30.2842 20.3998 29.0564 20.4634C27.8401 20.5218 26.3116 21.2421 26.0051 23.0789C25.9172 23.6069 25.4579 23.9815 24.9383 23.9815L24.9383 23.9815Z" fill="white"/>
<path d="M26.3411 26.5778C25.7436 26.5778 25.2583 26.0952 25.2583 25.4978C25.2583 24.1898 24.2557 23.6368 23.3957 23.5625C22.5435 23.4825 21.4573 23.8552 21.2301 25.1425C21.1252 25.7288 20.5654 26.1222 19.9751 26.0171C19.3858 25.9134 18.9928 25.3527 19.0967 24.7654C19.5482 22.2294 21.7463 21.2652 23.5861 21.4112C25.4347 21.5732 27.4239 22.9212 27.4239 25.4987C27.4239 26.0951 26.939 26.5777 26.341 26.5777L26.3411 26.5778Z" fill="white"/>
<path d="M23.1798 30.1513C22.5809 30.1513 22.097 29.6672 22.097 29.0713C22.097 27.5106 21.0412 26.5237 20.0536 26.1207C19.0694 25.7158 17.6269 25.6854 16.531 26.8001C16.1109 27.2258 15.4264 27.2287 15.0001 26.814C14.5732 26.3951 14.5669 25.7114 14.9861 25.2857C16.531 23.7163 18.7881 23.2694 20.8744 24.1213C22.9652 24.9757 24.2636 26.8718 24.2626 29.0718C24.2626 29.6686 23.7777 30.1512 23.1798 30.1512L23.1798 30.1513Z" fill="white"/>
<path d="M16.0526 26.8521C15.4551 26.8521 14.9697 26.3694 14.9697 25.7721V12.8002C14.9697 12.2028 15.4551 11.7202 16.0526 11.7202C16.65 11.7202 17.1354 12.2028 17.1354 12.8002V25.7733C17.1354 26.3697 16.6505 26.8523 16.0526 26.8523V26.8521Z" fill="white"/>
<path d="M37.949 22.3125C37.3501 22.3125 36.8662 21.8299 36.8662 21.2326V12.7992C36.8662 12.2019 37.3501 11.7192 37.949 11.7192C38.548 11.7192 39.0319 12.2019 39.0319 12.7992V21.2326C39.0319 21.8299 38.5475 22.3125 37.949 22.3125Z" fill="white"/>
<path d="M41.077 36.72C40.7835 36.72 40.5128 36.6014 40.3084 36.396C40.1121 36.2018 39.9941 35.9318 39.9941 35.6401C39.9941 35.3595 40.1121 35.0774 40.3084 34.8735C40.7091 34.4738 41.4347 34.4738 41.8461 34.8735C42.0409 35.0774 42.1598 35.3595 42.1598 35.6401C42.1598 35.9207 42.0409 36.2018 41.8456 36.4067C41.6402 36.6014 41.3583 36.72 41.077 36.72H41.077Z" fill="white"/>
<path d="M36.7451 36.72H3.17755C2.58007 36.72 2.09473 36.2374 2.09473 35.64C2.09473 35.0427 2.58007 34.5601 3.17755 34.5601H36.7451C37.3441 34.5601 37.828 35.0427 37.828 35.64C37.828 36.2374 37.3441 36.72 36.7451 36.72Z" fill="white"/>
<path d="M50.8212 36.72H45.407C44.8081 36.72 44.3242 36.2374 44.3242 35.64C44.3242 35.0427 44.8081 34.5601 45.407 34.5601H50.8212C51.4201 34.5601 51.904 35.0427 51.904 35.64C51.904 36.2374 51.4201 36.72 50.8212 36.72Z" fill="white"/>
</svg>
