<svg width="54" height="54" viewBox="0 0 54 54" fill="none" xmlns="http://www.w3.org/2000/svg">
<g clip-path="url(#clip0_316_7014)">
<path d="M44.3299 49.089C44.0493 49.089 43.7682 48.9801 43.5634 48.7757C43.3691 48.5703 43.25 48.3003 43.25 48.0091C43.25 47.7286 43.3686 47.4465 43.5634 47.2426C43.9736 46.843 44.6866 46.843 45.0969 47.2426C45.2912 47.4465 45.4103 47.7286 45.4103 48.0091C45.4103 48.3008 45.2917 48.5804 45.0969 48.7757C44.8916 48.9796 44.6105 49.089 44.3299 49.089H44.3299Z" fill="white"/>
<path d="M49.5501 53.0999C48.4808 53.0999 47.4505 52.6617 46.6204 51.8301C46.1981 51.4078 46.1981 50.7251 46.6204 50.3033C47.0428 49.881 47.7254 49.881 48.1472 50.3033C48.8501 51.0052 49.5617 51.0009 50.037 50.8746C50.8435 50.6577 51.5575 49.9437 51.7724 49.1381C51.8997 48.6642 51.9031 47.9512 51.2012 47.2502C50.7788 46.8279 50.7788 46.1453 51.2002 45.7235C51.6216 45.3002 52.3051 45.3002 52.727 45.7215C53.8286 46.8222 54.2408 48.269 53.8589 49.6964C53.441 51.2603 52.16 52.5417 50.5957 52.9611C50.2476 53.0537 49.8967 53.0999 49.55 53.0999L49.5501 53.0999Z" fill="white"/>
<path d="M41.2755 46.038C40.9992 46.038 40.7225 45.9319 40.5118 45.7217L35.93 41.1384C35.5077 40.7161 35.5077 40.0335 35.93 39.6117C36.3523 39.1893 37.035 39.1893 37.4568 39.6117L42.0386 44.195C42.4609 44.6173 42.4609 45.2999 42.0386 45.7217C41.8275 45.9319 41.5522 46.038 41.2755 46.038H41.2755Z" fill="white"/>
<path d="M36.6944 41.4544C36.4181 41.4544 36.1414 41.3483 35.9298 41.1381C35.0885 40.2959 35.0885 38.9263 35.9298 38.0841C36.3521 37.6618 37.0347 37.6627 37.4565 38.0831C37.8789 38.5054 37.8789 39.1881 37.4575 39.6114L37.4565 39.6123C37.8789 40.0346 37.8789 40.7173 37.4565 41.1391C37.2464 41.3488 36.9696 41.4544 36.6943 41.4544L36.6944 41.4544Z" fill="white"/>
<path d="M36.6937 39.9277C36.4174 39.9277 36.1407 39.8216 35.93 39.6114C35.5077 39.1891 35.5077 38.5065 35.93 38.0847L38.9851 35.0306C39.4074 34.6083 40.09 34.6083 40.5118 35.0306C40.9341 35.4529 40.9341 36.1356 40.5118 36.5574L37.4568 39.6114C37.2466 39.8216 36.9699 39.9277 36.6936 39.9277H36.6937Z" fill="white"/>
<path d="M51.9656 47.565C51.6894 47.565 51.4126 47.459 51.202 47.2488L40.512 36.5579C40.0897 36.1356 40.0897 35.4529 40.512 35.0311C40.9344 34.6088 41.617 34.6088 42.0388 35.0311L52.7287 45.722C53.1511 46.1443 53.1511 46.8269 52.7287 47.2488C52.5185 47.459 52.2418 47.565 51.9656 47.565H51.9656Z" fill="white"/>
<path d="M41.2747 36.8749C40.9985 36.8749 40.7218 36.7688 40.5111 36.5586L40.5101 36.5576C40.0888 36.98 39.4052 36.979 38.9834 36.5586C38.5611 36.1363 38.562 35.4536 38.9834 35.0318C39.8246 34.1906 41.1962 34.1906 42.0374 35.0318C42.4597 35.4541 42.4597 36.1368 42.0374 36.5586C41.8267 36.7688 41.5515 36.8749 41.2747 36.8749Z" fill="white"/>
<path d="M13.351 31.6616C13.0748 31.6616 12.798 31.5556 12.5874 31.3454C9.2633 28.0204 5.1612 25.433 0.7207 23.8661C0.158096 23.6665 -0.136942 23.0499 0.0621642 22.4883C0.26079 21.9267 0.874006 21.634 1.43998 21.8298C6.18186 23.5055 10.5651 26.2669 14.1148 29.819C14.5371 30.2413 14.5371 30.9239 14.1148 31.3458C13.9041 31.5569 13.6279 31.6615 13.3511 31.6615L13.351 31.6616Z" fill="white"/>
<path d="M31.4812 13.5293C31.205 13.5293 30.9282 13.4232 30.7176 13.213C25.6088 8.10519 19.6564 4.05321 13.0271 1.17132C12.4795 0.933648 12.2293 0.296811 12.4665 -0.248946C12.7041 -0.797566 13.3424 -1.04826 13.8867 -0.809624C20.7667 2.18173 26.9429 6.38465 32.2436 11.6862C32.6659 12.1085 32.6659 12.7912 32.2436 13.213C32.0344 13.4246 31.7581 13.5297 31.4814 13.5297L31.4812 13.5293Z" fill="white"/>
<path d="M39.7483 36.8747C39.3313 36.8747 38.9341 36.6317 38.7581 36.2248C36.8727 31.8826 36.6383 26.3761 38.0615 19.8574C38.1888 19.2755 38.7668 18.9091 39.3468 19.0335C39.9301 19.1598 40.2979 19.7354 40.1716 20.3188C38.8469 26.3854 39.0368 31.4479 40.7376 35.3644C40.9753 35.912 40.7246 36.5479 40.1769 36.7847C40.0376 36.8454 39.892 36.8748 39.7483 36.8748L39.7483 36.8747Z" fill="white"/>
<path d="M36.6943 39.9278C36.5506 39.9278 36.405 39.8999 36.2657 39.8391C32.3414 38.1393 27.2799 37.9494 21.2176 39.2722C20.6357 39.3994 20.0586 39.0302 19.9323 38.4473C19.8051 37.8654 20.1743 37.2898 20.7572 37.1635C27.2679 35.7404 32.7743 35.9737 37.1234 37.8578C37.671 38.0954 37.9227 38.7313 37.685 39.278C37.5081 39.6835 37.1108 39.9279 36.6938 39.9279L36.6943 39.9278Z" fill="white"/>
<path d="M14.0721 14.2243C13.4762 14.2243 12.9922 13.7417 12.9922 13.1444V7.63165C12.9922 7.03434 13.4762 6.55176 14.0721 6.55176C14.6679 6.55176 15.152 7.03434 15.152 7.63165V13.1444C15.152 13.7417 14.6684 14.2243 14.0721 14.2243Z" fill="white"/>
<path d="M16.828 11.4669H11.3162C10.7204 11.4669 10.2363 10.9843 10.2363 10.387C10.2363 9.78971 10.7204 9.30713 11.3162 9.30713H16.828C17.4238 9.30713 17.9079 9.78971 17.9079 10.387C17.9079 10.9843 17.4238 11.4669 16.828 11.4669Z" fill="white"/>
<path d="M16.6463 24.3653C16.0504 24.3653 15.5664 23.8827 15.5664 23.2854V18.8753C15.5664 18.278 16.0504 17.7954 16.6463 17.7954C17.2422 17.7954 17.7262 18.278 17.7262 18.8753V23.2854C17.7262 23.8827 17.2422 24.3653 16.6463 24.3653Z" fill="white"/>
<path d="M18.8505 22.1622H14.4412C13.8454 22.1622 13.3613 21.6796 13.3613 21.0823C13.3613 20.485 13.8454 20.0024 14.4412 20.0024H18.8505C19.4464 20.0024 19.9304 20.485 19.9304 21.0823C19.9304 21.6796 19.4468 22.1622 18.8505 22.1622Z" fill="white"/>
<path d="M12.4897 41.6855C12.2145 41.6855 11.9377 41.5795 11.7275 41.3702C11.1153 40.7599 10.7783 39.9471 10.7773 39.0817C10.7773 38.2145 11.1143 37.4002 11.7266 36.7879C12.1489 36.3656 12.8315 36.3656 13.2534 36.7879C13.6757 37.2102 13.6757 37.8929 13.2534 38.3147C13.0494 38.5186 12.9371 38.7901 12.9371 39.0793C12.9371 39.3676 13.0494 39.6385 13.2524 39.8405C13.6747 40.2619 13.6757 40.9455 13.2543 41.3673C13.0437 41.5799 12.766 41.6855 12.4897 41.6855L12.4897 41.6855Z" fill="white"/>
<path d="M14.0165 43.2145C13.7402 43.2145 13.4635 43.1084 13.2519 42.8982L11.7251 41.369C11.3037 40.9457 11.3037 40.2631 11.726 39.8407C12.1484 39.4208 12.832 39.4194 13.2528 39.8417L14.7796 41.3709C15.2009 41.7942 15.2009 42.4769 14.7786 42.8992C14.5684 43.1084 14.2927 43.2145 14.0164 43.2145H14.0165Z" fill="white"/>
<path d="M15.5433 43.8441C14.7141 43.8441 13.8845 43.5288 13.2539 42.8992C12.8315 42.4778 12.8306 41.7942 13.2519 41.3724C13.6733 40.9491 14.3579 40.9491 14.7787 41.3705C15.2001 41.7894 15.8856 41.7894 16.3088 41.3705C16.7302 40.9491 17.4147 40.9491 17.8356 41.3724C18.257 41.7947 18.2555 42.4783 17.8337 42.8992C17.2021 43.5288 16.3729 43.8441 15.5432 43.8441H15.5433Z" fill="white"/>
<path d="M17.0706 43.2143C16.7944 43.2143 16.5176 43.1083 16.307 42.8981C15.8847 42.4757 15.8847 41.7931 16.307 41.3713L42.2687 15.4071C42.691 14.9848 43.3737 14.9848 43.7955 15.4071C44.2178 15.8294 44.2178 16.512 43.7955 16.9338L17.8337 42.8981C17.6221 43.1083 17.3454 43.2143 17.0701 43.2143H17.0706Z" fill="white"/>
<path d="M43.0325 17.2499C42.7563 17.2499 42.4796 17.1439 42.2689 16.9337C41.8466 16.5114 41.8466 15.8287 42.2689 15.4069C42.4728 15.203 42.5851 14.9316 42.5851 14.6433C42.5851 14.355 42.4728 14.0841 42.2689 13.8796C41.8466 13.4573 41.8466 12.7747 42.2689 12.3529C42.6912 11.9306 43.3738 11.9306 43.7957 12.3529C45.0592 13.6164 45.0592 15.6702 43.7957 16.9337C43.5855 17.1439 43.3088 17.2499 43.0325 17.2499H43.0325Z" fill="white"/>
<path d="M43.0329 14.1968C42.7567 14.1968 42.48 14.0907 42.2693 13.8805L40.7425 12.3538C40.3202 11.9315 40.3202 11.2488 40.7425 10.827C41.1648 10.4047 41.8475 10.4047 42.2693 10.827L43.7961 12.3538C44.2184 12.7761 44.2184 13.4587 43.7961 13.8805C43.5859 14.0907 43.3092 14.1968 43.0329 14.1968H43.0329Z" fill="white"/>
<path d="M12.4896 38.6293C12.2133 38.6293 11.9366 38.5233 11.7259 38.3131C11.3036 37.8908 11.3036 37.2081 11.7259 36.7863L37.6889 10.8245C38.1112 10.4022 38.7939 10.4022 39.2157 10.8245C39.638 11.2469 39.638 11.9295 39.2157 12.3513L13.2527 38.3143C13.042 38.525 12.7658 38.6296 12.4895 38.6296L12.4896 38.6293Z" fill="white"/>
<path d="M41.5045 12.668C41.2283 12.668 40.9516 12.5619 40.7409 12.3517C40.334 11.9449 39.621 11.9449 39.2127 12.3517C38.7903 12.7741 38.1077 12.7741 37.6859 12.3517C37.2636 11.9294 37.2636 11.2468 37.6859 10.825C38.9484 9.56144 41.0032 9.56045 42.2677 10.825C42.69 11.2473 42.69 11.9299 42.2677 12.3517C42.0575 12.5634 41.7813 12.668 41.5045 12.668H41.5045Z" fill="white"/>
</g>
<defs>
<clipPath id="clip0_316_7014">
<rect width="54" height="54" fill="white"/>
</clipPath>
</defs>
</svg>
