<svg width="54" height="54" viewBox="0 0 54 54" fill="none" xmlns="http://www.w3.org/2000/svg">
<g clip-path="url(#clip0_317_8516)">
<mask id="path-1-outside-1_317_8516" maskUnits="userSpaceOnUse" x="-1" y="10.6377" width="56" height="31" fill="black">
<rect fill="white" x="-1" y="10.6377" width="56" height="31"/>
<path fill-rule="evenodd" clip-rule="evenodd" d="M13.9658 11.6377H12.5391C10.8076 11.6393 9.14758 12.3286 7.92294 13.5543C6.6987 14.7805 6.01026 16.4426 6.00874 18.1764V18.5509C4.55441 17.9942 2.91505 18.2429 1.69121 19.2065C0.46738 20.1698 -0.16134 21.706 0.0356477 23.2525C0.232959 24.7989 1.22728 26.1279 2.65347 26.7527V37.8886H5.69189L3.99118 40.4998H8.8607L12.2621 37.8886H41.0025L44.4039 40.4998H49.2734L47.5727 37.8886H51.3367L51.3363 26.7527C52.7863 26.1228 53.7906 24.7663 53.9709 23.1942C54.1516 21.622 53.4806 20.0731 52.2109 19.1304C50.9412 18.1877 49.2658 17.9949 47.8158 18.6248V18.1763C47.8143 16.4445 47.1274 14.784 45.9056 13.5583C44.6838 12.3329 43.0262 11.6421 41.2966 11.6377H26.9179H20.4831V12.5687H26.9179H41.2966C42.7277 12.5703 44.1005 13.3437 45.1124 14.3569C46.1238 15.3696 46.6932 16.7435 46.6944 18.176V19.3681C45.8221 20.156 45.2963 21.2579 45.2322 22.4329V27.3709C33.2085 24.9059 20.8112 24.9059 8.78852 27.3709V22.4044C8.71735 21.1628 8.12659 20.0087 7.1614 19.226L7.14349 18.176C7.14507 16.7435 7.71407 15.3696 8.72596 14.3569C9.73744 13.3437 11.108 12.5704 12.5391 12.5687H13.9658V11.6377ZM6.08283 39.3705H8.48069L10.4023 37.8948H7.04646L6.08283 39.3705ZM44.7889 39.3705H47.1868L46.2231 37.8948H42.8673L44.7889 39.3705ZM45.22 31.7465V28.5284C33.2013 26.0326 20.8 26.0326 8.78133 28.5284V31.7465H45.22ZM6.6081 20.2501C5.9976 19.6808 5.19408 19.3656 4.35975 19.3676C3.30435 19.3731 2.31542 19.8841 1.70055 20.7429C1.08528 21.6016 0.918802 22.7034 1.25214 23.7059C1.58548 24.7088 2.37825 25.4907 3.38459 25.809L3.78713 25.9338V36.7525H50.1966V25.9287L50.5991 25.804C51.3675 25.5664 52.0219 25.0553 52.4394 24.3676C52.857 23.6795 53.0081 22.8623 52.8645 22.07C52.721 21.2782 52.2924 20.5663 51.6601 20.0691C51.0279 19.5718 50.2358 19.3239 49.4331 19.3718C48.6309 19.4201 47.8736 19.761 47.305 20.33C46.7364 20.8993 46.396 21.6571 46.3477 22.4608V32.8822H7.64769V22.4324C7.59031 21.5994 7.21862 20.819 6.6081 20.2501Z"/>
</mask>
<path fill-rule="evenodd" clip-rule="evenodd" d="M13.9658 11.6377H12.5391C10.8076 11.6393 9.14758 12.3286 7.92294 13.5543C6.6987 14.7805 6.01026 16.4426 6.00874 18.1764V18.5509C4.55441 17.9942 2.91505 18.2429 1.69121 19.2065C0.46738 20.1698 -0.16134 21.706 0.0356477 23.2525C0.232959 24.7989 1.22728 26.1279 2.65347 26.7527V37.8886H5.69189L3.99118 40.4998H8.8607L12.2621 37.8886H41.0025L44.4039 40.4998H49.2734L47.5727 37.8886H51.3367L51.3363 26.7527C52.7863 26.1228 53.7906 24.7663 53.9709 23.1942C54.1516 21.622 53.4806 20.0731 52.2109 19.1304C50.9412 18.1877 49.2658 17.9949 47.8158 18.6248V18.1763C47.8143 16.4445 47.1274 14.784 45.9056 13.5583C44.6838 12.3329 43.0262 11.6421 41.2966 11.6377H26.9179H20.4831V12.5687H26.9179H41.2966C42.7277 12.5703 44.1005 13.3437 45.1124 14.3569C46.1238 15.3696 46.6932 16.7435 46.6944 18.176V19.3681C45.8221 20.156 45.2963 21.2579 45.2322 22.4329V27.3709C33.2085 24.9059 20.8112 24.9059 8.78852 27.3709V22.4044C8.71735 21.1628 8.12659 20.0087 7.1614 19.226L7.14349 18.176C7.14507 16.7435 7.71407 15.3696 8.72596 14.3569C9.73744 13.3437 11.108 12.5704 12.5391 12.5687H13.9658V11.6377ZM6.08283 39.3705H8.48069L10.4023 37.8948H7.04646L6.08283 39.3705ZM44.7889 39.3705H47.1868L46.2231 37.8948H42.8673L44.7889 39.3705ZM45.22 31.7465V28.5284C33.2013 26.0326 20.8 26.0326 8.78133 28.5284V31.7465H45.22ZM6.6081 20.2501C5.9976 19.6808 5.19408 19.3656 4.35975 19.3676C3.30435 19.3731 2.31542 19.8841 1.70055 20.7429C1.08528 21.6016 0.918802 22.7034 1.25214 23.7059C1.58548 24.7088 2.37825 25.4907 3.38459 25.809L3.78713 25.9338V36.7525H50.1966V25.9287L50.5991 25.804C51.3675 25.5664 52.0219 25.0553 52.4394 24.3676C52.857 23.6795 53.0081 22.8623 52.8645 22.07C52.721 21.2782 52.2924 20.5663 51.6601 20.0691C51.0279 19.5718 50.2358 19.3239 49.4331 19.3718C48.6309 19.4201 47.8736 19.761 47.305 20.33C46.7364 20.8993 46.396 21.6571 46.3477 22.4608V32.8822H7.64769V22.4324C7.59031 21.5994 7.21862 20.819 6.6081 20.2501Z" fill="white"/>
<path d="M13.9658 11.6377H14.2658V11.3377H13.9658V11.6377ZM12.5391 11.6377V11.3377L12.5388 11.3377L12.5391 11.6377ZM7.92294 13.5543L7.71071 13.3423L7.71064 13.3424L7.92294 13.5543ZM6.00874 18.1764L5.70874 18.1761V18.1764H6.00874ZM6.00874 18.5509L5.9015 18.8311L6.30874 18.987V18.5509H6.00874ZM1.69121 19.2065L1.87676 19.4423L1.87681 19.4422L1.69121 19.2065ZM0.0356477 23.2525L-0.261948 23.2904L-0.26194 23.2904L0.0356477 23.2525ZM2.65347 26.7527H2.95347V26.5566L2.77384 26.4779L2.65347 26.7527ZM2.65347 37.8886H2.35347V38.1886H2.65347V37.8886ZM5.69189 37.8886L5.94327 38.0524L6.24531 37.5886H5.69189V37.8886ZM3.99118 40.4998L3.7398 40.336L3.43776 40.7998H3.99118V40.4998ZM8.8607 40.4998V40.7998H8.96257L9.04337 40.7377L8.8607 40.4998ZM12.2621 37.8886V37.5886H12.1602L12.0794 37.6507L12.2621 37.8886ZM41.0025 37.8886L41.1851 37.6507L41.1043 37.5886H41.0025V37.8886ZM44.4039 40.4998L44.2212 40.7377L44.302 40.7998H44.4039V40.4998ZM49.2734 40.4998V40.7998H49.8268L49.5248 40.336L49.2734 40.4998ZM47.5727 37.8886V37.5886H47.0193L47.3213 38.0524L47.5727 37.8886ZM51.3367 37.8886V38.1886H51.6367L51.6367 37.8886L51.3367 37.8886ZM51.3363 26.7527L51.2168 26.4775L51.0363 26.5559L51.0363 26.7527L51.3363 26.7527ZM53.9709 23.1942L53.6729 23.1599L53.6729 23.16L53.9709 23.1942ZM52.2109 19.1304L52.0321 19.3713V19.3713L52.2109 19.1304ZM47.8158 18.6248H47.5158V19.0822L47.9354 18.9L47.8158 18.6248ZM47.8158 18.1763H48.1158V18.176L47.8158 18.1763ZM45.9056 13.5583L46.1181 13.3465L46.118 13.3465L45.9056 13.5583ZM41.2966 11.6377L41.2974 11.3377H41.2966V11.6377ZM20.4831 11.6377V11.3377H20.1831V11.6377H20.4831ZM20.4831 12.5687H20.1831V12.8687H20.4831V12.5687ZM41.2966 12.5687L41.297 12.2687H41.2966V12.5687ZM45.1124 14.3569L44.9001 14.5689V14.5689L45.1124 14.3569ZM46.6944 18.176H46.9944V18.1757L46.6944 18.176ZM46.6944 19.3681L46.8955 19.5907L46.9944 19.5014V19.3681H46.6944ZM45.2322 22.4329L44.9327 22.4166L44.9322 22.4247V22.4329H45.2322ZM45.2322 27.3709L45.172 27.6647L45.5322 27.7386V27.3709H45.2322ZM8.78852 27.3709H8.48852V27.7386L8.84878 27.6647L8.78852 27.3709ZM8.78852 22.4044H9.08852V22.3958L9.08803 22.3872L8.78852 22.4044ZM7.1614 19.226L6.86144 19.2311L6.86383 19.3709L6.97245 19.459L7.1614 19.226ZM7.14349 18.176L6.84344 18.1756L6.84353 18.1811L7.14349 18.176ZM8.72596 14.3569L8.93818 14.5689L8.93827 14.5688L8.72596 14.3569ZM12.5391 12.5687V12.2687L12.5387 12.2687L12.5391 12.5687ZM13.9658 12.5687V12.8687H14.2658V12.5687H13.9658ZM8.48069 39.3705V39.6705H8.58259L8.66341 39.6084L8.48069 39.3705ZM6.08283 39.3705L5.83164 39.2064L5.52862 39.6705H6.08283V39.3705ZM10.4023 37.8948L10.585 38.1328L11.2856 37.5948H10.4023V37.8948ZM7.04646 37.8948V37.5948H6.88406L6.79527 37.7308L7.04646 37.8948ZM47.1868 39.3705V39.6705H47.741L47.438 39.2064L47.1868 39.3705ZM44.7889 39.3705L44.6062 39.6084L44.687 39.6705H44.7889V39.3705ZM46.2231 37.8948L46.4743 37.7308L46.3855 37.5948H46.2231V37.8948ZM42.8673 37.8948V37.5948H41.984L42.6845 38.1328L42.8673 37.8948ZM45.22 28.5284H45.52V28.2843L45.281 28.2347L45.22 28.5284ZM45.22 31.7465V32.0465H45.52V31.7465H45.22ZM8.78133 28.5284L8.72034 28.2347L8.48133 28.2843V28.5284H8.78133ZM8.78133 31.7465H8.48133V32.0465H8.78133V31.7465ZM4.35975 19.3676L4.35903 19.0676L4.35819 19.0676L4.35975 19.3676ZM6.6081 20.2501L6.40349 20.4695L6.40357 20.4696L6.6081 20.2501ZM1.70055 20.7429L1.94441 20.9176L1.94447 20.9175L1.70055 20.7429ZM1.25214 23.7059L1.53683 23.6113L1.53682 23.6112L1.25214 23.7059ZM3.38459 25.809L3.29411 26.0951L3.2958 26.0956L3.38459 25.809ZM3.78713 25.9338H4.08713V25.7126L3.87591 25.6472L3.78713 25.9338ZM3.78713 36.7525H3.48713V37.0525H3.78713V36.7525ZM50.1966 36.7525V37.0525H50.4966V36.7525H50.1966ZM50.1966 25.9287L50.1078 25.6421L49.8966 25.7076V25.9287H50.1966ZM50.5991 25.804L50.5105 25.5174L50.5104 25.5174L50.5991 25.804ZM52.4394 24.3676L52.6959 24.5233L52.6959 24.5232L52.4394 24.3676ZM52.8645 22.07L53.1597 22.0165L53.1597 22.0165L52.8645 22.07ZM51.6601 20.0691L51.4747 20.3049V20.3049L51.6601 20.0691ZM49.4331 19.3718L49.4153 19.0724L49.4151 19.0724L49.4331 19.3718ZM47.305 20.33L47.0928 20.1179L47.0928 20.118L47.305 20.33ZM46.3477 22.4608L46.0483 22.4428L46.0477 22.4518V22.4608H46.3477ZM46.3477 32.8822V33.1822H46.6477V32.8822H46.3477ZM7.64769 32.8822H7.34769V33.1822H7.64769V32.8822ZM7.64769 22.4324H7.94769V22.4221L7.94699 22.4118L7.64769 22.4324ZM13.9658 11.3377H12.5391V11.9377H13.9658V11.3377ZM12.5388 11.3377C10.7277 11.3394 8.9915 12.0603 7.71071 13.3423L8.13517 13.7664C9.30366 12.5968 10.8875 11.9392 12.5394 11.9377L12.5388 11.3377ZM7.71064 13.3424C6.43028 14.6248 5.71033 16.3629 5.70874 18.1761L6.30874 18.1766C6.31019 16.5222 6.96712 14.9363 8.13524 13.7663L7.71064 13.3424ZM5.70874 18.1764V18.5509H6.30874V18.1764H5.70874ZM6.11598 18.2707C4.56305 17.6763 2.81246 17.9418 1.50562 18.9708L1.87681 19.4422C3.01763 18.5439 4.54577 18.3121 5.9015 18.8311L6.11598 18.2707ZM1.50566 18.9708C0.198925 19.9993 -0.472242 21.6394 -0.261948 23.2904L0.333243 23.2146C0.149563 21.7725 0.735834 20.3403 1.87676 19.4423L1.50566 18.9708ZM-0.26194 23.2904C-0.0512948 24.9414 1.01024 26.3604 2.53309 27.0275L2.77384 26.4779C1.44433 25.8955 0.517213 24.6565 0.333235 23.2145L-0.26194 23.2904ZM2.35347 26.7527V37.8886H2.95347V26.7527H2.35347ZM2.65347 38.1886H5.69189V37.5886H2.65347V38.1886ZM5.44051 37.7249L3.7398 40.336L4.24256 40.6635L5.94327 38.0524L5.44051 37.7249ZM3.99118 40.7998H8.8607V40.1998H3.99118V40.7998ZM9.04337 40.7377L12.4448 38.1266L12.0794 37.6507L8.67802 40.2618L9.04337 40.7377ZM12.2621 38.1886H41.0025V37.5886H12.2621V38.1886ZM40.8198 38.1266L44.2212 40.7377L44.5866 40.2618L41.1851 37.6507L40.8198 38.1266ZM44.4039 40.7998H49.2734V40.1998H44.4039V40.7998ZM49.5248 40.336L47.8241 37.7249L47.3213 38.0524L49.022 40.6635L49.5248 40.336ZM47.5727 38.1886H51.3367V37.5886H47.5727V38.1886ZM51.6367 37.8886L51.6363 26.7527L51.0363 26.7527L51.0367 37.8886L51.6367 37.8886ZM51.4558 27.0278C53.0042 26.3552 54.0765 24.9068 54.269 23.2284L53.6729 23.16C53.5048 24.6258 52.5684 25.8904 51.2168 26.4775L51.4558 27.0278ZM54.269 23.2284C54.4619 21.5498 53.7455 19.8961 52.3897 18.8896L52.0321 19.3713C53.2157 20.2501 53.8414 21.6941 53.6729 23.1599L54.269 23.2284ZM52.3897 18.8896C51.0339 17.8829 49.2448 17.677 47.6963 18.3497L47.9354 18.9C49.2869 18.3129 50.8485 18.4925 52.0321 19.3713L52.3897 18.8896ZM48.1158 18.6248V18.1763H47.5158V18.6248H48.1158ZM48.1158 18.176C48.1142 16.365 47.3959 14.6284 46.1181 13.3465L45.6931 13.7701C46.8589 14.9396 47.5143 16.524 47.5158 18.1765L48.1158 18.176ZM46.118 13.3465C44.8402 12.0649 43.1065 11.3423 41.2974 11.3377L41.2959 11.9377C42.9459 11.9419 44.5274 12.6009 45.6931 13.7701L46.118 13.3465ZM41.2966 11.3377H26.9179V11.9377H41.2966V11.3377ZM26.9179 11.3377H20.4831V11.9377H26.9179V11.3377ZM20.1831 11.6377V12.5687H20.7831V11.6377H20.1831ZM20.4831 12.8687H26.9179V12.2687H20.4831V12.8687ZM26.9179 12.8687H41.2966V12.2687H26.9179V12.8687ZM41.2963 12.8687C42.6219 12.8702 43.923 13.5905 44.9001 14.5689L45.3246 14.1449C44.278 13.0969 42.8334 12.2704 41.297 12.2687L41.2963 12.8687ZM44.9001 14.5689C45.8555 15.5254 46.3933 16.8232 46.3944 18.1762L46.9944 18.1757C46.9932 16.6638 46.3922 15.2138 45.3246 14.1449L44.9001 14.5689ZM46.3944 18.176V19.3681H46.9944V18.176H46.3944ZM46.4933 19.1455C45.5622 19.9865 45.001 21.1625 44.9327 22.4166L45.5318 22.4492C45.5915 21.3532 46.082 20.3255 46.8955 19.5907L46.4933 19.1455ZM44.9322 22.4329V27.3709H45.5322V22.4329H44.9322ZM45.2925 27.077C33.229 24.6038 20.7907 24.6038 8.72827 27.077L8.84878 27.6647C20.8317 25.2079 33.188 25.2079 45.172 27.6647L45.2925 27.077ZM9.08852 27.3709V22.4044H8.48852V27.3709H9.08852ZM9.08803 22.3872C9.01203 21.0614 8.3812 19.8289 7.35035 18.993L6.97245 19.459C7.87197 20.1884 8.42267 21.2642 8.48901 22.4216L9.08803 22.3872ZM7.46136 19.2209L7.44344 18.1708L6.84353 18.1811L6.86144 19.2311L7.46136 19.2209ZM7.44348 18.1763C7.44498 16.8231 7.9825 15.5254 8.93818 14.5689L8.51374 14.1448C7.44564 15.2138 6.84515 16.6639 6.84349 18.1756L7.44348 18.1763ZM8.93827 14.5688C9.91508 13.5904 11.2139 12.8702 12.5394 12.8687L12.5387 12.2687C11.0022 12.2705 9.5598 13.097 8.51366 14.1449L8.93827 14.5688ZM12.5391 12.8687H13.9658V12.2687H12.5391V12.8687ZM14.2658 12.5687V11.6377H13.6658V12.5687H14.2658ZM8.48069 39.0705H6.08283V39.6705H8.48069V39.0705ZM10.2196 37.6569L8.29798 39.1325L8.66341 39.6084L10.585 38.1328L10.2196 37.6569ZM7.04646 38.1948H10.4023V37.5948H7.04646V38.1948ZM6.33401 39.5345L7.29764 38.0588L6.79527 37.7308L5.83164 39.2064L6.33401 39.5345ZM47.1868 39.0705H44.7889V39.6705H47.1868V39.0705ZM45.9719 38.0589L46.9356 39.5345L47.438 39.2064L46.4743 37.7308L45.9719 38.0589ZM42.8673 38.1948H46.2231V37.5948H42.8673V38.1948ZM44.9717 39.1325L43.05 37.6569L42.6845 38.1328L44.6062 39.6084L44.9717 39.1325ZM44.92 28.5284V31.7465H45.52V28.5284H44.92ZM8.84233 28.8222C20.8208 26.3346 33.1805 26.3346 45.159 28.8222L45.281 28.2347C33.2221 25.7305 20.7792 25.7305 8.72034 28.2347L8.84233 28.8222ZM9.08134 31.7465V28.5284H8.48133V31.7465H9.08134ZM45.22 31.4465H8.78133V32.0465H45.22V31.4465ZM4.36046 19.6676C5.11865 19.6658 5.84875 19.9522 6.40349 20.4695L6.8127 20.0307C6.14645 19.4094 5.26951 19.0654 4.35903 19.0676L4.36046 19.6676ZM1.94447 20.9175C2.5033 20.137 3.40208 19.6726 4.3613 19.6676L4.35819 19.0676C3.20662 19.0736 2.12753 19.6312 1.45662 20.5682L1.94447 20.9175ZM1.53682 23.6112C1.23375 22.6998 1.38515 21.6981 1.94441 20.9176L1.45668 20.5681C0.785409 21.505 0.603849 22.707 0.967467 23.8006L1.53682 23.6112ZM3.47506 25.523C2.56054 25.2337 1.83989 24.5231 1.53683 23.6113L0.967455 23.8005C1.33107 24.8945 2.19596 25.7477 3.29411 26.0951L3.47506 25.523ZM3.87591 25.6472L3.47337 25.5225L3.2958 26.0956L3.69834 26.2203L3.87591 25.6472ZM4.08713 36.7525V25.9338H3.48713V36.7525H4.08713ZM50.1966 36.4525H3.78713V37.0525H50.1966V36.4525ZM49.8966 25.9287V36.7525H50.4966V25.9287H49.8966ZM50.5104 25.5174L50.1078 25.6421L50.2854 26.2153L50.6879 26.0905L50.5104 25.5174ZM52.183 24.2119C51.8034 24.837 51.2086 25.3015 50.5105 25.5174L50.6878 26.0906C51.5263 25.8313 52.2403 25.2735 52.6959 24.5233L52.183 24.2119ZM52.5693 22.1235C52.6998 22.8437 52.5625 23.5865 52.183 24.2119L52.6959 24.5232C53.1515 23.7724 53.3163 22.8808 53.1597 22.0165L52.5693 22.1235ZM51.4747 20.3049C52.0493 20.7568 52.4389 21.4039 52.5693 22.1235L53.1597 22.0165C53.0031 21.1526 52.5355 20.3758 51.8456 19.8333L51.4747 20.3049ZM49.451 19.6713C50.1804 19.6278 50.9001 19.853 51.4747 20.3049L51.8456 19.8333C51.1556 19.2906 50.2912 19.0201 49.4153 19.0724L49.451 19.6713ZM47.5172 20.542C48.034 20.025 48.7222 19.7152 49.4512 19.6713L49.4151 19.0724C48.5396 19.1251 47.7133 19.4971 47.0928 20.1179L47.5172 20.542ZM46.6472 22.4787C46.6911 21.7481 47.0005 21.0594 47.5173 20.542L47.0928 20.118C46.4723 20.7392 46.1009 21.566 46.0483 22.4428L46.6472 22.4787ZM46.6477 32.8822V22.4608H46.0477V32.8822H46.6477ZM7.64769 33.1822H46.3477V32.5822H7.64769V33.1822ZM7.34769 22.4324V32.8822H7.94769V22.4324H7.34769ZM6.40357 20.4696C6.95838 20.9866 7.29624 21.6958 7.3484 22.453L7.94699 22.4118C7.88438 21.5029 7.47885 20.6515 6.81262 20.0306L6.40357 20.4696Z" fill="white" mask="url(#path-1-outside-1_317_8516)"/>
<path d="M15.1759 14.148L15.1879 14.15H15.2H15.9625H16.4C16.7874 14.15 17.15 13.8834 17.15 13.5C17.15 13.1166 16.7874 12.85 16.4 12.85C16.2077 12.85 15.2 12.85 14.5999 12.8502L14.5859 12.8502L14.5721 12.8529C14.3184 12.9009 14.1396 13.0119 14.0231 13.1356C13.9121 13.2534 13.85 13.3921 13.85 13.5C13.85 13.5735 13.8907 13.6281 13.9175 13.6577C13.9478 13.6913 13.9864 13.7214 14.0262 13.748C14.1066 13.8017 14.2143 13.8558 14.3342 13.9059C14.5748 14.0066 14.8861 14.1008 15.1759 14.148Z" fill="white" stroke="white" stroke-width="0.3"/>
<path d="M23.2356 14.1457L23.2181 14.15H23.2H22.6917H22.4C22.0667 14.15 21.85 13.826 21.85 13.5C21.85 13.174 22.0667 12.85 22.4 12.85C22.5282 12.85 23.2 12.85 23.6001 12.8502L23.621 12.8502L23.641 12.856C23.8333 12.9106 23.961 13.0347 24.0389 13.1587C24.1142 13.2786 24.15 13.4096 24.15 13.5C24.15 13.5549 24.1292 13.6014 24.1093 13.6345C24.0886 13.669 24.0615 13.7008 24.0332 13.7292C23.9764 13.7862 23.901 13.8427 23.8184 13.8946C23.6531 13.9983 23.4384 14.0962 23.2356 14.1457Z" fill="white" stroke="white" stroke-width="0.3"/>
<circle cx="19.5" cy="13.5" r="0.65" fill="white" stroke="white" stroke-width="0.3"/>
</g>
<defs>
<clipPath id="clip0_317_8516">
<rect width="54" height="54" fill="white"/>
</clipPath>
</defs>
</svg>
