<svg width="55" height="54" viewBox="0 0 55 54" fill="none" xmlns="http://www.w3.org/2000/svg">
<path d="M37.39 45.5868H27.5456C26.9462 45.5868 26.4619 45.1036 26.4619 44.5056C26.4619 43.9075 26.9462 43.4243 27.5456 43.4243H37.39C37.9894 43.4243 38.4737 43.9075 38.4737 44.5056C38.4737 45.1036 37.9894 45.5868 37.39 45.5868Z" fill="white"/>
<path d="M49.7448 49.912H27.5466C26.9472 49.912 26.4629 49.4288 26.4629 48.8308C26.4629 48.2327 26.9472 47.7495 27.5466 47.7495H49.7448C50.3442 47.7495 50.8285 48.2327 50.8285 48.8308C50.8285 49.4288 50.3442 49.912 49.7448 49.912Z" fill="white"/>
<path d="M27.5458 49.9117C25.4577 49.9117 24.3652 48.2802 24.3652 46.668C24.3652 45.843 24.6449 45.0654 25.1519 44.4766C25.7358 43.7984 26.5869 43.4243 27.5457 43.4243C28.1452 43.4243 28.6295 43.9075 28.6295 44.5056C28.6295 45.1036 28.1452 45.5868 27.5457 45.5868C27.2143 45.5868 26.9691 45.6853 26.7958 45.8861C26.6299 46.0796 26.5336 46.3639 26.5336 46.668C26.5336 46.8485 26.5825 47.7493 27.5467 47.7493C28.1461 47.7493 28.6304 48.2324 28.6304 48.8305C28.6304 49.4285 28.1452 49.9117 27.5457 49.9117L27.5458 49.9117Z" fill="white"/>
<path d="M1.08372 38.1516C0.484291 38.1516 0 37.6684 0 37.0704V34.9079C0 34.3098 0.484291 33.8267 1.08372 33.8267C1.68314 33.8267 2.16743 34.3098 2.16743 34.9079V37.0704C2.16743 37.6679 1.68266 38.1516 1.08372 38.1516Z" fill="white"/>
<path d="M4.33486 41.3954C1.94437 41.3954 0 39.4555 0 37.0705C0 36.4724 0.484291 35.9893 1.08372 35.9893C1.68314 35.9893 2.16743 36.4724 2.16743 37.0705C2.16743 38.2632 3.13939 39.233 4.33486 39.233C4.93429 39.233 5.41858 39.7161 5.41858 40.3142C5.41858 40.9118 4.9338 41.3954 4.33486 41.3954Z" fill="white"/>
<path d="M52.9958 46.6683C52.3964 46.6683 51.9121 46.1851 51.9121 45.5871V34.9079C51.9121 34.3098 52.3964 33.8267 52.9958 33.8267C53.5952 33.8267 54.0795 34.3098 54.0795 34.9079V45.5871C54.0795 46.1851 53.5952 46.6683 52.9958 46.6683Z" fill="white"/>
<path d="M49.7439 49.912C49.1444 49.912 48.6602 49.4289 48.6602 48.8308C48.6602 48.2328 49.1444 47.7496 49.7439 47.7496C50.9393 47.7496 51.9113 46.7798 51.9113 45.5871C51.9113 44.989 52.3956 44.5059 52.995 44.5059C53.5944 44.5059 54.0787 44.989 54.0787 45.5871C54.0787 47.9721 52.1349 49.912 49.7439 49.912Z" fill="white"/>
<path d="M52.995 35.9892C52.3956 35.9892 51.9113 35.506 51.9113 34.908C51.9113 33.7152 50.9393 32.7455 49.7439 32.7455C49.1444 32.7455 48.6602 32.2623 48.6602 31.6642C48.6602 31.0662 49.1444 30.583 49.7439 30.583C52.1344 30.583 54.0787 32.5229 54.0787 34.908C54.0787 35.5055 53.5944 35.9892 52.995 35.9892Z" fill="white"/>
<path d="M49.7447 32.7455H47.0974C46.498 32.7455 46.0137 32.2623 46.0137 31.6642C46.0137 31.0662 46.498 30.583 47.0974 30.583H49.7447C50.3442 30.583 50.8285 31.0662 50.8285 31.6642C50.8285 32.2618 50.3442 32.7455 49.7447 32.7455Z" fill="white"/>
<path d="M1.08372 35.9892C0.484291 35.9892 0 35.506 0 34.908C0 32.5229 1.94437 30.583 4.33486 30.583C4.93429 30.583 5.41858 31.0662 5.41858 31.6642C5.41858 32.2623 4.93429 32.7455 4.33486 32.7455C3.13939 32.7455 2.16743 33.7152 2.16743 34.908C2.16743 35.5055 1.68266 35.9892 1.08372 35.9892Z" fill="white"/>
<path d="M6.98206 32.7455H4.33469C3.73527 32.7455 3.25098 32.2623 3.25098 31.6642C3.25098 31.0662 3.73527 30.583 4.33469 30.583H6.98206C7.58148 30.583 8.06577 31.0662 8.06577 31.6642C8.06577 32.2618 7.58148 32.7455 6.98206 32.7455Z" fill="white"/>
<path d="M5.36497 21.7999C4.76554 21.7999 4.28125 21.3167 4.28125 20.7187C4.28125 17.7376 6.71187 15.3125 9.69983 15.3125C10.2993 15.3125 10.7835 15.7957 10.7835 16.3937C10.7835 16.9918 10.2993 17.475 9.69983 17.475C7.9073 17.475 6.44868 18.9303 6.44868 20.7187C6.44868 21.3167 5.96439 21.7999 5.36497 21.7999Z" fill="white"/>
<path d="M5.36497 28.2871C4.76554 28.2871 4.28125 27.8039 4.28125 27.2059V20.7184C4.28125 20.1204 4.76554 19.6372 5.36497 19.6372C5.96439 19.6372 6.44868 20.1204 6.44868 20.7184V27.2059C6.44868 27.8039 5.96439 28.2871 5.36497 28.2871Z" fill="white"/>
<path d="M48.7135 21.7999C48.1141 21.7999 47.6298 21.3167 47.6298 20.7187C47.6298 18.9303 46.1712 17.475 44.3786 17.475C43.7792 17.475 43.2949 16.9918 43.2949 16.3937C43.2949 15.7957 43.7792 15.3125 44.3786 15.3125C47.3666 15.3125 49.7972 17.7376 49.7972 20.7187C49.7972 21.3167 49.3129 21.7999 48.7135 21.7999Z" fill="white"/>
<path d="M48.7136 28.2871C48.1142 28.2871 47.6299 27.8039 47.6299 27.2059V20.7184C47.6299 20.1204 48.1142 19.6372 48.7136 19.6372C49.313 19.6372 49.7973 20.1204 49.7973 20.7184V27.2059C49.7973 27.8039 49.313 28.2871 48.7136 28.2871Z" fill="white"/>
<path d="M40.0442 36.9371C39.5836 36.9371 39.1579 36.6441 39.0113 36.1821C38.5473 34.7234 38.2019 33.2106 37.9808 31.6853C37.8961 31.094 38.3069 30.5457 38.9 30.4602C39.4941 30.3714 40.0423 30.7865 40.1279 31.3773C40.3316 32.7873 40.6504 34.1842 41.0781 35.5304C41.259 36.099 40.9426 36.7067 40.3727 36.8872C40.2619 36.9205 40.1526 36.9369 40.0442 36.9369L40.0442 36.9371Z" fill="white"/>
<path d="M31.3729 36.9372C30.8117 36.9372 30.3371 36.5057 30.2936 35.9381L29.9631 31.6131C29.9177 31.0175 30.3642 30.4986 30.9612 30.4527C31.5703 30.4049 32.0783 30.8538 32.1243 31.4485L32.4547 35.7735C32.5002 36.3691 32.0537 36.888 31.4566 36.9339C31.4281 36.9363 31.4 36.9372 31.3729 36.9372L31.3729 36.9372Z" fill="white"/>
<path d="M22.7056 36.9372C22.6785 36.9372 22.6504 36.9363 22.6224 36.9339C22.0254 36.8885 21.5788 36.3696 21.6243 35.7735L21.9547 31.4485C22.0002 30.8538 22.5063 30.4049 23.1178 30.4527C23.7148 30.4981 24.1613 31.017 24.1159 31.6131L23.7854 35.9381C23.7419 36.5057 23.2673 36.9372 22.7056 36.9372L22.7056 36.9372Z" fill="white"/>
<path d="M14.0345 36.9373C13.9262 36.9373 13.8168 36.9209 13.7075 36.8866C13.1376 36.7061 12.8212 36.0983 13.0021 35.5298C13.4303 34.1835 13.7486 32.7867 13.9523 31.3767C14.0379 30.7864 14.5875 30.3713 15.1802 30.4596C15.7729 30.545 16.1836 31.0934 16.0994 31.6847C15.8783 33.2105 15.5324 34.7243 15.0689 36.1815C14.9209 36.6444 14.4951 36.9374 14.0346 36.9374L14.0345 36.9373Z" fill="white"/>
<path d="M48.7136 36.9369H5.36497C4.76554 36.9369 4.28125 36.4537 4.28125 35.8557C4.28125 35.2576 4.76554 34.7744 5.36497 34.7744H48.7136C49.313 34.7744 49.7973 35.2576 49.7973 35.8557C49.7973 36.4537 49.313 36.9369 48.7136 36.9369Z" fill="white"/>
<path d="M48.715 36.9369C48.3279 36.9369 47.953 36.7293 47.757 36.3649C46.2563 33.5537 45.4629 30.3857 45.4629 27.2057C45.4629 26.6077 45.9472 26.1245 46.5466 26.1245C47.146 26.1245 47.6303 26.6077 47.6303 27.2057C47.6303 30.0334 48.3357 32.8489 49.6711 35.3464C49.9526 35.874 49.7523 36.5295 49.2245 36.8105C49.061 36.8959 48.8863 36.9369 48.7151 36.9369L48.715 36.9369Z" fill="white"/>
<path d="M5.36382 36.9369C5.19255 36.9369 5.01789 36.8959 4.85437 36.8105C4.32655 36.5295 4.12625 35.875 4.40782 35.3464C5.74308 32.8489 6.44855 30.0334 6.44855 27.2057C6.44855 26.6077 6.93284 26.1245 7.53226 26.1245C8.13169 26.1245 8.61598 26.6077 8.61598 27.2057C8.61598 30.3857 7.82255 33.5537 6.32185 36.3649C6.12543 36.7293 5.75047 36.9369 5.36392 36.9369L5.36382 36.9369Z" fill="white"/>
<path d="M9.69993 13.1499C9.1005 13.1499 8.61621 12.6667 8.61621 12.0686C8.61621 7.89619 12.0202 4.5 16.2022 4.5C16.8016 4.5 17.2859 4.98318 17.2859 5.58124C17.2859 6.17929 16.8016 6.66247 16.2022 6.66247C13.2143 6.66247 10.7836 9.08753 10.7836 12.0686C10.7836 12.6667 10.2994 13.1499 9.69993 13.1499Z" fill="white"/>
<path d="M40.0446 6.66247H16.2029C15.6034 6.66247 15.1191 6.17929 15.1191 5.58124C15.1191 4.98318 15.6034 4.5 16.2029 4.5H40.0446C40.644 4.5 41.1283 4.98318 41.1283 5.58124C41.1283 6.17929 40.644 6.66247 40.0446 6.66247Z" fill="white"/>
<path d="M9.69993 17.4747C9.1005 17.4747 8.61621 16.9915 8.61621 16.3935V12.0685C8.61621 11.4705 9.1005 10.9873 9.69993 10.9873C10.2994 10.9873 10.7836 11.4705 10.7836 12.0685V16.3935C10.7836 16.9915 10.2994 17.4747 9.69993 17.4747Z" fill="white"/>
<path d="M14.0349 13.1496C13.4355 13.1496 12.9512 12.6665 12.9512 12.0684C12.9512 10.28 14.4098 8.82471 16.2023 8.82471C16.8017 8.82471 17.286 9.30789 17.286 9.90594C17.286 10.504 16.8017 10.9872 16.2023 10.9872C15.6043 10.9872 15.1186 11.4718 15.1186 12.0684C15.1186 12.6665 14.6343 13.1496 14.0349 13.1496Z" fill="white"/>
<path d="M40.0446 10.9872H16.2029C15.6034 10.9872 15.1191 10.504 15.1191 9.90594C15.1191 9.30789 15.6034 8.82471 16.2029 8.82471H40.0446C40.644 8.82471 41.1283 9.30789 41.1283 9.90594C41.1283 10.504 40.644 10.9872 40.0446 10.9872Z" fill="white"/>
<path d="M14.0349 17.4747C13.4355 17.4747 12.9512 16.9915 12.9512 16.3935V12.0685C12.9512 11.4705 13.4355 10.9873 14.0349 10.9873C14.6343 10.9873 15.1186 11.4705 15.1186 12.0685V16.3935C15.1186 16.9915 14.6343 17.4747 14.0349 17.4747Z" fill="white"/>
<path d="M40.0446 10.9874C39.4452 10.9874 38.9609 10.5042 38.9609 9.90618C38.9609 9.30813 39.4452 8.82494 40.0446 8.82494C40.3761 8.82494 40.6213 8.72647 40.7945 8.52567C40.9615 8.33211 41.0568 8.0478 41.0568 7.74371C41.0568 7.56318 41.0079 6.66247 40.0437 6.66247C39.4443 6.66247 38.96 6.17929 38.96 5.58124C38.96 4.98318 39.4443 4.5 40.0437 4.5C42.1317 4.5 43.2242 6.13149 43.2242 7.74371C43.2252 9.35493 42.1328 10.9874 40.0447 10.9874H40.0446Z" fill="white"/>
<path d="M48.7136 28.287H5.36497C4.76554 28.287 4.28125 27.8038 4.28125 27.2058C4.28125 26.6077 4.76554 26.1245 5.36497 26.1245H48.7136C49.313 26.1245 49.7973 26.6077 49.7973 27.2058C49.7973 27.8038 49.313 28.287 48.7136 28.287Z" fill="white"/>
<path d="M33.5418 17.475H14.0349C13.4355 17.475 12.9512 16.9918 12.9512 16.3937C12.9512 15.7957 13.4355 15.3125 14.0349 15.3125H33.5418C34.1412 15.3125 34.6255 15.7957 34.6255 16.3937C34.6255 16.9918 34.1412 17.475 33.5418 17.475Z" fill="white"/>
<path d="M44.3791 17.475H42.2116C41.6122 17.475 41.1279 16.9918 41.1279 16.3937C41.1279 15.7957 41.6122 15.3125 42.2116 15.3125H44.3791C44.9785 15.3125 45.4628 15.7957 45.4628 16.3937C45.4628 16.9918 44.9785 17.475 44.3791 17.475Z" fill="white"/>
<path d="M37.8767 17.4747C37.5951 17.4747 37.3121 17.3559 37.1074 17.1609C36.911 16.9558 36.793 16.6744 36.793 16.3934C36.793 16.1004 36.911 15.8301 37.1074 15.626C37.5085 15.2258 38.2453 15.2258 38.6465 15.6366C38.8414 15.8311 38.9609 16.1014 38.9609 16.3934C38.9609 16.6744 38.8419 16.9558 38.6465 17.1609C38.4403 17.3559 38.1583 17.4747 37.8767 17.4747L37.8767 17.4747Z" fill="white"/>
<path d="M3.25086 49.9117C1.16282 49.9117 0.0703125 48.2802 0.0703125 46.668C0.0703125 45.843 0.349947 45.0654 0.856978 44.4766C1.44092 43.7984 2.29145 43.4243 3.25081 43.4243C3.85024 43.4243 4.33453 43.9075 4.33453 44.5056C4.33453 45.1036 3.85024 45.5868 3.25081 45.5868C2.91941 45.5868 2.67413 45.6853 2.50092 45.8861C2.334 46.0796 2.23725 46.3654 2.23725 46.668C2.23725 46.8485 2.28611 47.7493 3.25033 47.7493C3.84976 47.7493 4.33405 48.2324 4.33405 48.8305C4.33453 49.4285 3.84976 49.9117 3.25081 49.9117L3.25086 49.9117Z" fill="white"/>
<path d="M10.3308 49.9117C9.73135 49.9117 9.24706 49.4285 9.24706 48.8305C9.24706 48.2324 9.73135 47.7493 10.3308 47.7493C10.6622 47.7493 10.9075 47.6508 11.0807 47.45C11.2466 47.2564 11.3429 46.9721 11.3429 46.668C11.3429 46.4875 11.294 45.5868 10.3298 45.5868C9.73038 45.5868 9.24609 45.1036 9.24609 44.5056C9.24609 43.9075 9.73038 43.4243 10.3298 43.4243C12.4178 43.4243 13.5104 45.0558 13.5104 46.668C13.5104 47.493 13.2307 48.2706 12.7237 48.8594C12.1402 49.5376 11.2897 49.9117 10.3309 49.9117L10.3308 49.9117Z" fill="white"/>
<path d="M10.3307 45.5868H3.25071C2.65128 45.5868 2.16699 45.1036 2.16699 44.5056C2.16699 43.9075 2.65128 43.4243 3.25071 43.4243H10.3307C10.9301 43.4243 11.4144 43.9075 11.4144 44.5056C11.4144 45.1036 10.9296 45.5868 10.3307 45.5868Z" fill="white"/>
<path d="M10.3307 49.912H3.25071C2.65128 49.912 2.16699 49.4288 2.16699 48.8308C2.16699 48.2327 2.65128 47.7495 3.25071 47.7495H10.3307C10.9301 47.7495 11.4144 48.2327 11.4144 48.8308C11.4144 49.4288 10.9296 49.912 10.3307 49.912Z" fill="white"/>
<path d="M37.3904 45.5871C36.7909 45.5871 36.3066 45.1039 36.3066 44.5059C36.3066 43.9078 36.7909 43.4246 37.3904 43.4246C37.7005 43.4246 37.9303 43.3339 38.0904 43.1456C38.2476 42.9641 38.3376 42.6958 38.3376 42.4095C38.3376 42.1706 38.2694 41.3954 37.3904 41.3954C36.7909 41.3954 36.3066 40.9122 36.3066 40.3141C36.3066 39.7161 36.7909 39.2329 37.3904 39.2329C39.4126 39.2329 40.505 40.8697 40.505 42.4095C40.505 43.2161 40.2322 43.9782 39.7358 44.5546C39.1625 45.2207 38.3298 45.5871 37.3902 45.5871L37.3904 45.5871Z" fill="white"/>
<path d="M37.3899 41.3954H4.33469C3.73527 41.3954 3.25098 40.9122 3.25098 40.3141C3.25098 39.7161 3.73527 39.2329 4.33469 39.2329H37.3899C37.9893 39.2329 38.4736 39.7161 38.4736 40.3141C38.4736 40.9117 37.9893 41.3954 37.3899 41.3954Z" fill="white"/>
</svg>
