<svg width="13" height="9" viewBox="0 0 13 9" fill="none" xmlns="http://www.w3.org/2000/svg">
<path d="M1.90735e-06 4.4988C0.00738716 4.33793 0.08531 4.15194 0.215115 4.03469L4.45048 0.209533C4.73742 -0.00972344 5.28784 -0.100126 5.60856 0.153347C5.92449 0.403051 5.91507 0.887095 5.60044 1.13773L2.62251 3.82378H12.2058C12.6444 3.82378 13 4.12606 13 4.49882C13 4.87159 12.6444 5.17387 12.2058 5.17387H2.62251L5.60044 7.85992C5.8715 8.09063 5.92153 8.59194 5.60856 8.8443C5.29578 9.09683 4.72577 9.01616 4.45048 8.78796L0.215115 4.9628C0.0701704 4.8319 -0.000367165 4.67836 1.90735e-06 4.4988Z" fill="white"/>
</svg>
