<svg width="13" height="9" viewBox="0 0 13 9" fill="none" xmlns="http://www.w3.org/2000/svg">
<path d="M13 4.4988C12.9926 4.33793 12.9147 4.15194 12.7849 4.03469L8.54952 0.209533C8.26258 -0.00972344 7.71216 -0.100126 7.39144 0.153347C7.07551 0.403051 7.08493 0.887095 7.39956 1.13773L10.3775 3.82378H0.794161C0.355635 3.82378 0 4.12606 0 4.49882C0 4.87159 0.355621 5.17387 0.794161 5.17387H10.3775L7.39956 7.85992C7.1285 8.09063 7.07847 8.59194 7.39144 8.8443C7.70422 9.09683 8.27423 9.01616 8.54952 8.78796L12.7849 4.9628C12.9298 4.8319 13.0004 4.67836 13 4.4988Z" fill="white"/>
</svg>
