<svg width="14" height="8" viewBox="0 0 14 8" fill="none" xmlns="http://www.w3.org/2000/svg">
<path d="M7.43263 1.06313L7.43317 1.06361L12.8844 5.97021C12.8844 5.97024 12.8845 5.97027 12.8845 5.9703C12.9479 6.02709 12.9995 6.09584 13.0363 6.1726C13.0732 6.24941 13.0945 6.33273 13.0991 6.41778C13.1036 6.50284 13.0914 6.58797 13.063 6.66828C13.0346 6.7486 12.9907 6.82253 12.9337 6.88583C12.8767 6.94912 12.8078 7.00055 12.7309 7.03716C12.654 7.07377 12.5706 7.09484 12.4855 7.09917C12.4004 7.10349 12.3154 7.09098 12.2351 7.06235C12.155 7.03375 12.0812 6.98961 12.0181 6.93247C12.0181 6.93243 12.018 6.9324 12.018 6.93236L7 2.41401L1.98199 6.93236C1.98196 6.93239 1.98192 6.93243 1.98188 6.93246C1.91879 6.98961 1.84505 7.03375 1.76487 7.06236C1.68465 7.09098 1.59956 7.10349 1.51449 7.09917C1.42942 7.09484 1.34604 7.07377 1.26913 7.03716C1.19222 7.00056 1.12329 6.94913 1.06629 6.88583C1.00929 6.82252 0.965356 6.74859 0.936982 6.66829C0.908606 6.58797 0.896356 6.50284 0.900937 6.41778C0.905518 6.33272 0.926845 6.2494 0.96368 6.1726L1.05385 6.21585L0.963681 6.1726C1.00051 6.09581 1.05214 6.02704 1.11559 5.97023C1.1156 5.97023 1.11561 5.97022 1.11562 5.97021L6.56683 1.06361L6.56725 1.06323C6.6321 1.00551 6.70794 0.961476 6.79022 0.933759C6.87226 0.906122 6.95902 0.895281 7.04533 0.901876C7.18878 0.910976 7.32509 0.967725 7.43263 1.06313Z" fill="#BCBCBC" stroke="#BCBCBC" stroke-width="0.2"/>
</svg>
