<svg width="14" height="8" viewBox="0 0 14 8" fill="none" xmlns="http://www.w3.org/2000/svg">
<path d="M7.43263 6.93687L7.43317 6.93639L12.8844 2.02979C12.8844 2.02976 12.8845 2.02973 12.8845 2.0297C12.9479 1.97291 12.9995 1.90416 13.0363 1.8274C13.0732 1.75059 13.0945 1.66727 13.0991 1.58222C13.1036 1.49716 13.0914 1.41203 13.063 1.33172C13.0346 1.2514 12.9907 1.17747 12.9337 1.11417C12.8767 1.05088 12.8078 0.999446 12.7309 0.962836C12.654 0.926226 12.5706 0.905157 12.4855 0.900834C12.4004 0.896511 12.3154 0.909021 12.2351 0.937645C12.155 0.96625 12.0812 1.01039 12.0181 1.06753C12.0181 1.06757 12.018 1.0676 12.018 1.06764L7 5.58599L1.98199 1.06764C1.98196 1.06761 1.98192 1.06757 1.98188 1.06754C1.91879 1.01039 1.84505 0.966252 1.76487 0.937645C1.68465 0.90902 1.59956 0.896511 1.51449 0.900834C1.42942 0.905156 1.34604 0.926226 1.26913 0.962835C1.19222 0.999444 1.12329 1.05087 1.06629 1.11417C1.00929 1.17748 0.965356 1.25141 0.936982 1.33171C0.908606 1.41203 0.896356 1.49716 0.900937 1.58222C0.905518 1.66728 0.926845 1.7506 0.96368 1.8274L1.05385 1.78415L0.963681 1.8274C1.00051 1.90419 1.05214 1.97296 1.11559 2.02977C1.1156 2.02977 1.11561 2.02978 1.11562 2.02979L6.56683 6.93639L6.56725 6.93677C6.6321 6.99449 6.70794 7.03852 6.79022 7.06624C6.87226 7.09388 6.95902 7.10472 7.04533 7.09812C7.18878 7.08902 7.32509 7.03227 7.43263 6.93687Z" fill="#BCBCBC" stroke="#BCBCBC" stroke-width="0.2"/>
</svg>
