<svg width="19" height="19" viewBox="0 0 19 19" fill="none" xmlns="http://www.w3.org/2000/svg">
<path fill-rule="evenodd" clip-rule="evenodd" d="M5.59811 5.06667H3.94695C3.08464 5.06667 2.34197 5.65947 2.17289 6.4828C1.72157 8.68047 0.567913 14.2988 0.0353044 16.8929C-0.0713474 17.4103 0.0665196 17.9468 0.409886 18.3553C0.753253 18.7631 1.267 19 1.80872 19C5.20531 19 13.7947 19 17.1913 19C17.733 19 18.2467 18.7631 18.5901 18.3553C18.9335 17.9468 19.0713 17.4103 18.9647 16.8929L16.8271 6.4828C16.658 5.65947 15.9154 5.06667 15.053 5.06667H13.4019V3.7848C13.4019 2.78097 12.9922 1.8183 12.2638 1.10833C11.5348 0.399 10.5464 0 9.51561 0C9.5052 0 9.4948 0 9.48439 0C8.45364 0 7.46516 0.399 6.73616 1.10833C6.0078 1.8183 5.59811 2.78097 5.59811 3.7848V5.06667ZM13.4019 6.33333V8.23333C13.4019 8.58293 13.1106 8.86667 12.7516 8.86667C12.3926 8.86667 12.1013 8.58293 12.1013 8.23333V6.33333H6.89874V8.23333C6.89874 8.58293 6.6074 8.86667 6.24842 8.86667C5.88945 8.86667 5.59811 8.58293 5.59811 8.23333V6.33333H3.9463C3.70439 6.33333 3.49563 6.4999 3.44816 6.73107L1.31057 17.1412C1.28066 17.2868 1.31903 17.4376 1.41592 17.5522C1.51217 17.6668 1.65654 17.7333 1.80872 17.7333C5.20531 17.7333 13.7947 17.7333 17.1913 17.7333C17.3435 17.7333 17.4878 17.6668 17.5841 17.5522C17.681 17.4376 17.7193 17.2868 17.6894 17.1412L15.5518 6.73107C15.5044 6.4999 15.2956 6.33333 15.053 6.33333H13.4019ZM12.1013 5.06667V3.7848C12.1013 3.11727 11.8288 2.47633 11.3436 2.0045C10.8592 1.53203 10.201 1.26667 9.51561 1.26667H9.48439C8.79896 1.26667 8.14084 1.53203 7.65635 2.0045C7.17122 2.47633 6.89874 3.11727 6.89874 3.7848V5.06667H12.1013Z" fill="#F6871F"/>
</svg>
