<svg width="26" height="21" viewBox="0 0 26 21" fill="none" xmlns="http://www.w3.org/2000/svg">
<path fill-rule="evenodd" clip-rule="evenodd" d="M16.2929 0.292893C16.6834 -0.0976311 17.3166 -0.0976311 17.7071 0.292893L19.7071 2.29289L19.7126 2.29845C19.8973 2.48079 20.0112 2.73442 20.01 3.01442C20.0076 3.5667 19.5579 4.01244 19.0056 4.01001L14.4556 3.98999L14.449 3.98996V3.98994C13.8839 3.98373 13.3482 4.27058 13.0321 4.74472L13.0319 4.74492L6.64205 14.3247L6.64191 14.3249C5.95341 15.3575 4.78878 15.97 3.54999 15.97H3.54606V15.97L0.996075 15.96C0.443794 15.9578 -0.00216001 15.5083 7.87053e-06 14.956C0.00217581 14.4038 0.451645 13.9578 1.00393 13.96L3.54999 13.97H3.55175C4.13219 13.9694 4.66674 13.6821 4.97795 13.2153L4.97808 13.2151L11.368 3.63532L11.3681 3.63511C12.0514 2.61034 13.214 1.97747 14.4674 1.99003L14.471 1.99006L16.5851 1.99936L16.2929 1.70711C15.9024 1.31658 15.9024 0.683418 16.2929 0.292893ZM6.62177 3.51573L6.62218 3.5163L7.70154 5.01539C8.02425 5.46359 7.92252 6.08852 7.47433 6.41123C7.02613 6.73394 6.40119 6.63221 6.07848 6.18401L4.99847 4.68401L4.99781 4.6831C4.67509 4.23382 4.1604 3.97345 3.62148 3.97964L3.61382 3.97973V3.9797L1.00384 3.98971C0.451555 3.99183 0.00212562 3.54583 7.5129e-06 2.99355C-0.00211054 2.44127 0.443884 1.99184 0.996165 1.98972L3.60263 1.97973C4.80192 1.9673 5.92527 2.54647 6.62177 3.51573ZM11.7235 11.7024C11.3776 11.305 10.7773 11.2427 10.3561 11.57C9.92004 11.9089 9.84123 12.5371 10.1801 12.9732L10.6653 13.5976C10.9419 12.9208 11.2986 12.2851 11.7235 11.7024Z" fill="#FF9D18"/>
<path d="M13 17L16.2727 20L25 12" stroke="#FF9D18" stroke-width="2" stroke-linecap="round" stroke-linejoin="round"/>
</svg>
