<svg width="21" height="18" viewBox="0 0 21 18" fill="none" xmlns="http://www.w3.org/2000/svg">
<path fill-rule="evenodd" clip-rule="evenodd" d="M17.707 0.312913C17.3165 -0.0776116 16.6834 -0.0776116 16.2928 0.312913C15.9023 0.703437 15.9023 1.3366 16.2928 1.72713L16.5851 2.01938L14.4709 2.01008L14.4674 2.01005C13.2139 1.99749 12.0513 2.63036 11.368 3.65513L11.3679 3.65534L4.97802 13.2351L4.97789 13.2353C4.66668 13.7021 4.13213 13.9894 3.55169 13.99H3.54993L1.00386 13.98C0.451584 13.9778 0.00211478 14.4238 -5.31646e-05 14.9761C-0.00222105 15.5283 0.443733 15.9778 0.996014 15.98L3.546 15.99V15.99H3.54993C4.78872 15.99 5.95335 15.3775 6.64185 14.3449L6.64199 14.3447L13.0319 4.76494L13.032 4.76474C13.3481 4.2906 13.8838 4.00375 14.4489 4.00996V4.00998L14.4555 4.01001L19.0055 4.03003C19.5578 4.03246 20.0075 3.58672 20.0099 3.03444C20.0112 2.75444 19.8972 2.50081 19.7126 2.31847C19.7107 2.31661 19.7089 2.31476 19.707 2.31291L17.707 0.312913ZM6.62212 3.53632L6.62171 3.53575C5.92521 2.56649 4.80186 1.98732 3.60257 1.99975L0.996104 2.00974C0.443823 2.01186 -0.00217157 2.46129 -5.35223e-05 3.01357C0.00206459 3.56585 0.451494 4.01185 1.00377 4.00973L3.61376 3.99972V3.99975L3.62142 3.99966C4.16034 3.99346 4.67503 4.25383 4.99775 4.70312L4.99841 4.70403L6.07842 6.20403C6.40113 6.65223 7.02607 6.75396 7.47427 6.43125C7.92246 6.10854 8.02419 5.48361 7.70148 5.03541L6.62212 3.53632ZM14.3439 15.9996L16.5759 15.9901L16.2928 16.2731C15.9023 16.6636 15.9023 17.2968 16.2928 17.6873C16.6834 18.0779 17.3165 18.0779 17.707 17.6873L19.6318 15.7626C19.8632 15.5785 20.011 15.294 20.0097 14.9753C20.0073 14.423 19.5577 13.9773 19.0054 13.9796L14.3397 13.9996L14.3378 13.9996C13.8047 13.999 13.2991 13.7499 12.981 13.3382L12.9793 13.3361L11.7593 11.766C11.4204 11.33 10.7922 11.2511 10.3561 11.59C9.91998 11.9289 9.84116 12.5571 10.18 12.9932L11.3984 14.5611L11.3993 14.5622C12.1008 15.4693 13.1939 15.9996 14.3397 15.9996L14.3439 15.9996Z" fill="#01AEF0" fill-opacity="0.6"/>
</svg>
