<svg width="14" height="14" viewBox="0 0 14 14" fill="none" xmlns="http://www.w3.org/2000/svg">
<g clip-path="url(#clip0_256_9615)">
<path d="M7 0C3.13425 0 0 3.1504 0 7.03606C0 10.5635 2.58534 13.4764 5.9535 13.9853V8.90062H4.22159V7.05131H5.9535V5.82058C5.9535 3.78306 6.94109 2.88889 8.62576 2.88889C9.43251 2.88889 9.85951 2.94928 10.0613 2.97625V4.59045H8.91217C8.197 4.59045 7.94734 5.27236 7.94734 6.04046V7.05131H10.0433L9.75917 8.90062H7.94734V14C11.3639 13.5345 14 10.5981 14 7.03606C14 3.1504 10.8658 0 7 0Z" fill="#01AEF0"/>
</g>
<defs>
<clipPath id="clip0_256_9615">
<rect width="13.87" height="13.87" rx="6.93499" fill="white"/>
</clipPath>
</defs>
</svg>
