<svg width="15" height="14" viewBox="0 0 15 14" fill="none" xmlns="http://www.w3.org/2000/svg">
<path d="M7.37012 0C3.50412 0 0.370117 3.13401 0.370117 7C0.370117 10.866 3.50412 14 7.37012 14C11.2361 14 14.3701 10.866 14.3701 7C14.3701 3.13401 11.2361 0 7.37012 0ZM11.0085 4.42794L9.76519 10.3633C9.75015 10.4351 9.71731 10.5019 9.66968 10.5577C9.62206 10.6135 9.56118 10.6564 9.49264 10.6825C9.4241 10.7087 9.35009 10.7171 9.27743 10.7072C9.20476 10.6972 9.13575 10.6692 9.07675 10.6256L7.26835 9.28955L6.17274 10.3231C6.1584 10.3367 6.1415 10.3472 6.12304 10.3541C6.10459 10.3611 6.08493 10.3643 6.06523 10.3635C6.04553 10.3628 6.02617 10.3581 6.00829 10.3498C5.99041 10.3415 5.97437 10.3297 5.9611 10.3151L5.93755 10.2892L6.12792 8.44695L9.55912 5.31196C9.57609 5.29649 9.58665 5.27521 9.5887 5.25234C9.59075 5.22946 9.58416 5.20665 9.57022 5.18839C9.55628 5.17014 9.536 5.15777 9.51339 5.15374C9.49078 5.1497 9.46748 5.15428 9.44808 5.16658L5.05998 7.94388L3.17012 7.30918C3.11987 7.2923 3.07607 7.26028 3.04474 7.21752C3.01341 7.17476 2.99607 7.12336 2.99511 7.07035C2.99415 7.01735 3.00962 6.96535 3.03938 6.92149C3.06915 6.87763 3.11176 6.84405 3.16137 6.82536L10.5557 4.03988C10.6127 4.01841 10.6745 4.01266 10.7345 4.02324C10.7945 4.03381 10.8506 4.06031 10.8969 4.09997C10.9431 4.13962 10.9779 4.19099 10.9975 4.24868C11.0172 4.30638 11.0209 4.36829 11.0085 4.42794Z" fill="#01AEF0"/>
</svg>
