<svg width="15" height="14" viewBox="0 0 15 14" fill="none" xmlns="http://www.w3.org/2000/svg">
<g clip-path="url(#clip0_256_9613)">
<path d="M8.58294 0H6.42046C3.36417 0 0.870117 2.63261 0.870117 5.8587C0.870117 8.00435 1.96577 9.9674 3.75341 11.0022V13.3152C3.75341 13.6957 4.04174 14 4.40216 14C4.57515 14 4.74815 13.9239 4.86348 13.8022L6.83854 11.7174H8.58294C11.6392 11.7174 14.1333 9.08479 14.1333 5.8587C14.1333 2.63261 11.6536 0 8.58294 0ZM7.27104 2.54131C7.29987 2.52609 7.29987 2.51087 7.40078 2.51087C7.42962 2.51087 7.45845 2.51087 7.48728 2.51087C7.57378 2.51087 7.70353 2.52609 7.77561 2.52609C8.12161 2.57174 8.35227 2.61739 8.68385 2.78478C9.00101 2.93696 9.20284 3.08913 9.46234 3.36305C9.70742 3.62174 9.85159 3.81957 9.99575 4.12392C10.1976 4.55 10.3129 5.05218 10.3417 5.61522C10.3417 5.81305 10.3417 5.82826 10.3129 5.8587C10.2841 5.88913 10.2552 5.90435 10.212 5.90435C10.1687 5.90435 10.1399 5.87392 10.1111 5.84348C10.0967 5.81305 10.0967 5.79783 10.0822 5.64566C10.0678 5.40218 10.0534 5.25 10.0246 5.06739C9.89484 4.32174 9.54884 3.72826 9.00101 3.30218C8.5541 2.95218 8.15044 2.81522 7.51612 2.76957C7.31428 2.75435 7.29987 2.75435 7.27104 2.72391C7.2422 2.7087 7.22779 2.66304 7.22779 2.63261C7.2422 2.60218 7.2422 2.57174 7.27104 2.54131ZM8.36669 3.89565C8.15044 3.7587 7.80445 3.65218 7.51612 3.63696C7.42962 3.62174 7.38637 3.62174 7.35753 3.57609C7.31429 3.53044 7.31428 3.46957 7.34312 3.42391C7.35753 3.39348 7.40078 3.34783 7.6747 3.39348C8.30902 3.48478 8.79918 3.78913 9.11635 4.27609C9.28934 4.55 9.40468 4.86957 9.44792 5.21957C9.46234 5.32609 9.46234 5.55435 9.44792 5.6C9.44792 5.61522 9.40467 5.66087 9.39026 5.67609C9.36143 5.69131 9.30376 5.69131 9.27493 5.66087C9.24609 5.64566 9.20284 5.63044 9.20284 5.43261C9.20284 5.12826 9.13076 4.8087 9.00101 4.56522C8.84243 4.29131 8.62618 4.06305 8.36669 3.89565ZM8.5541 5.46305C8.52527 5.49348 8.43877 5.49348 8.39552 5.46305C8.36669 5.43261 8.35227 5.41739 8.35227 5.32609C8.33785 5.1587 8.30902 5.05218 8.26577 4.94565C8.16486 4.71739 7.97744 4.59565 7.66028 4.55C7.53053 4.53479 7.51612 4.51957 7.48728 4.48913C7.45845 4.4587 7.45845 4.42826 7.45845 4.38261C7.47287 4.33696 7.48728 4.30652 7.51612 4.29131C7.54495 4.27609 7.54495 4.27609 7.57378 4.27609C7.5882 4.27609 7.60261 4.27609 7.63145 4.27609C7.6747 4.27609 7.7612 4.29131 7.80445 4.29131C8.00628 4.33696 8.15044 4.41305 8.28019 4.53478C8.45319 4.70218 8.53969 4.88479 8.58294 5.17392C8.61177 5.40218 8.59735 5.43261 8.5541 5.46305ZM10.5147 8.35435C10.4715 8.46087 10.385 8.59783 10.3273 8.68913C10.212 8.85653 10.0678 9.02392 9.93809 9.13044C9.90925 9.16087 9.88042 9.17609 9.866 9.19131C9.83717 9.20653 9.82275 9.22174 9.80834 9.23696C9.693 9.31305 9.60651 9.37392 9.50559 9.40435C9.43351 9.43479 9.36143 9.43479 9.27493 9.45C9.24609 9.45 9.23168 9.45 9.20284 9.45C9.0731 9.45 8.9866 9.41957 8.8136 9.34348C8.66943 9.28261 8.51085 9.20653 8.35227 9.13044L8.30902 9.11522C8.16486 9.03914 8.02069 8.96305 7.87653 8.88696C7.86211 8.87174 7.83328 8.87174 7.81886 8.85653C7.68911 8.78044 7.54495 8.68913 7.4152 8.61305L7.37195 8.59783L7.35753 8.58261C6.46371 8.00435 5.71406 7.28913 5.06531 6.39131C5.00765 6.3 4.94998 6.22392 4.89232 6.13261C4.86348 6.08696 4.83465 6.05653 4.80582 6.01087L4.71932 5.88913C4.67607 5.81305 4.6184 5.73696 4.57515 5.66087L4.56074 5.64566C4.51749 5.56957 4.47424 5.49348 4.43099 5.41739L4.41657 5.40218C4.20032 5.02174 4.02733 4.62609 3.88316 4.23044C3.739 3.80435 3.69575 3.56087 3.85433 3.25652C3.92641 3.13478 4.17149 2.89131 4.34449 2.75435C4.64724 2.52609 4.77698 2.43478 4.90673 2.41957C4.99323 2.40435 5.15181 2.40435 5.25273 2.45C5.29598 2.46522 5.36806 2.51087 5.41131 2.52609C5.65639 2.69348 6.23305 3.48478 6.42046 3.85C6.55021 4.1087 6.57904 4.29131 6.53579 4.4587C6.49255 4.62609 6.40605 4.71739 6.14655 4.94565C6.08888 4.99131 6.03122 5.03696 5.98797 5.08261C5.97355 5.09783 5.97355 5.09783 5.95914 5.11305L5.8438 5.02174L5.91589 5.09783L5.94472 5.12826C5.9303 5.1587 5.90147 5.23479 5.90147 5.29565C5.90147 5.43261 6.00239 5.73696 6.14655 5.99566C6.26188 6.17826 6.46371 6.42174 6.66554 6.61957C6.89621 6.84783 7.11245 7 7.34312 7.10653C7.60261 7.24348 7.77561 7.28913 7.86211 7.24348C7.87653 7.22826 7.89094 7.22826 7.90536 7.21305C7.91978 7.19783 7.97744 7.13696 8.07836 7C8.20811 6.83261 8.28019 6.74131 8.3811 6.69566C8.40994 6.68044 8.43877 6.66522 8.48202 6.65C8.66943 6.58913 8.85685 6.60435 9.05868 6.69566C9.18843 6.77174 9.44792 6.92392 9.62092 7.06087C9.83717 7.21305 10.3273 7.62392 10.3994 7.71522C10.4859 7.82174 10.5292 7.94348 10.5292 8.08044C10.5724 8.14131 10.5436 8.24783 10.5147 8.35435Z" fill="#01AEF0"/>
</g>
<defs>
<clipPath id="clip0_256_9613">
<rect width="13.87" height="13.87" fill="white" transform="translate(0.870117)"/>
</clipPath>
</defs>
</svg>
