<svg width="15" height="14" viewBox="0 0 15 14" fill="none" xmlns="http://www.w3.org/2000/svg">
<g clip-path="url(#clip0_256_9610)">
<path d="M7.17533 0.289062C3.53446 0.289062 0.529297 3.29422 0.529297 6.93509C0.529297 8.32209 0.933838 9.59351 1.68513 10.6915L0.933838 12.9454C0.876046 13.061 0.933838 13.1766 0.99163 13.2344C1.10721 13.2922 1.2228 13.35 1.33838 13.2922L3.65004 12.5409C4.69029 13.2344 5.96171 13.5811 7.17533 13.5811C10.8162 13.5811 13.8214 10.576 13.8214 6.93509C13.8214 3.29422 10.8162 0.289062 7.17533 0.289062ZM11.1629 9.6513C10.9896 10.1714 10.2961 10.6338 9.71816 10.7493C9.60258 10.7493 9.48699 10.8071 9.31362 10.8071C8.85128 10.8071 8.27337 10.6338 7.3487 10.287C6.19287 9.82467 5.03704 8.78442 4.11238 7.45522L4.05458 7.39743C3.70783 6.93509 3.18771 6.12601 3.18771 5.25914C3.18771 4.27668 3.70783 3.75656 3.88121 3.52539C4.11238 3.29422 4.40133 3.17864 4.74808 3.17864C4.80587 3.17864 4.86367 3.17864 4.92146 3.17864H4.97925C5.26821 3.17864 5.44158 3.29422 5.61496 3.64097L5.73054 3.87214C5.90391 4.27668 6.13508 4.91239 6.19287 5.02797C6.30846 5.25914 6.30846 5.43251 6.19287 5.60589C6.13508 5.72147 6.07729 5.83705 5.96171 5.95264C5.90391 6.01043 5.84612 6.06822 5.84612 6.12601C5.78833 6.1838 5.73054 6.2416 5.67275 6.29939C5.67275 6.35718 5.67275 6.35718 5.67275 6.35718C5.84612 6.64614 6.19287 7.16626 6.65521 7.5708C7.29091 8.14872 7.75324 8.32209 7.98441 8.43768H8.0422C8.09999 8.43768 8.15779 8.49547 8.15779 8.43768C8.27337 8.32209 8.38895 8.09093 8.56233 7.91755L8.62012 7.85976C8.79349 7.62859 9.02466 7.5708 9.14024 7.5708C9.19803 7.5708 9.31362 7.5708 9.37141 7.62859C9.4292 7.62859 9.54478 7.68639 10.6428 8.2643L10.7584 8.32209C10.9318 8.37988 11.0474 8.43768 11.1052 8.61105C11.3363 8.72663 11.2785 9.24676 11.1629 9.6513Z" fill="#01AEF0"/>
</g>
<defs>
<clipPath id="clip0_256_9610">
<rect width="13.87" height="13.87" fill="white" transform="translate(0.240234)"/>
</clipPath>
</defs>
</svg>
