<svg width="25" height="19" viewBox="0 0 25 19" fill="none" xmlns="http://www.w3.org/2000/svg">
<path d="M24.9996 15.1905C24.9996 15.7062 24.8386 16.1962 24.5972 16.6346L16.7109 8.15025L24.5167 1.57422C24.8118 2.03841 24.9996 2.57997 24.9996 3.1731V15.1905Z" fill="#01AEF0"/>
<path d="M12.5 9.69806L23.3637 0.568956C22.9077 0.33686 22.4249 0.182129 21.8884 0.182129H3.13841C2.60193 0.182129 2.09227 0.33686 1.66309 0.568956L12.5 9.69806Z" fill="#01AEF0"/>
<path d="M15.5314 9.12988L13.0099 11.2445C12.8758 11.3735 12.688 11.425 12.5003 11.425C12.3125 11.425 12.1247 11.3735 11.9906 11.2445L9.46914 9.12988L1.47559 17.7174C1.95842 18.0011 2.52172 18.1816 3.11185 18.1816H21.8618C22.4788 18.1816 23.0421 18.0011 23.4981 17.7174L15.5314 9.12988Z" fill="#01AEF0"/>
<path d="M0.482833 1.57422C0.187768 2.03841 0 2.57997 0 3.1731V15.1905C0 15.7062 0.160944 16.1962 0.402361 16.6346L8.28864 8.15025L0.482833 1.57422Z" fill="#01AEF0"/>
</svg>
