<svg width="20" height="20" viewBox="0 0 20 20" fill="none" xmlns="http://www.w3.org/2000/svg">
<path d="M5.19362 0H0.509511C0.228116 0 0 0.227652 0 0.508475V5.30508C0 5.58591 0.228116 5.81356 0.509511 5.81356H5.19362C5.47501 5.81356 5.70313 5.58591 5.70313 5.30508V0.508475C5.70313 0.227652 5.47501 0 5.19362 0Z" fill="#01AEF0"/>
<path d="M12.3406 0H7.65648C7.37509 0 7.14697 0.227652 7.14697 0.508475V5.30508C7.14697 5.58591 7.37509 5.81356 7.65648 5.81356H12.3406C12.622 5.81356 12.8501 5.58591 12.8501 5.30508V0.508475C12.8501 0.227652 12.622 0 12.3406 0Z" fill="#01AEF0"/>
<path d="M19.4905 0H14.8064C14.525 0 14.2969 0.227652 14.2969 0.508475V5.30508C14.2969 5.58591 14.525 5.81356 14.8064 5.81356H19.4905C19.7719 5.81356 20 5.58591 20 5.30508V0.508475C20 0.227652 19.7719 0 19.4905 0Z" fill="#01AEF0"/>
<path d="M5.19362 7.0918H0.509511C0.228116 7.0918 0 7.31945 0 7.60027V12.3969C0 12.6777 0.228116 12.9054 0.509511 12.9054H5.19362C5.47501 12.9054 5.70313 12.6777 5.70313 12.3969V7.60027C5.70313 7.31945 5.47501 7.0918 5.19362 7.0918Z" fill="#01AEF0"/>
<path d="M12.3406 7.0918H7.65648C7.37509 7.0918 7.14697 7.31945 7.14697 7.60027V12.3969C7.14697 12.6777 7.37509 12.9054 7.65648 12.9054H12.3406C12.622 12.9054 12.8501 12.6777 12.8501 12.3969V7.60027C12.8501 7.31945 12.622 7.0918 12.3406 7.0918Z" fill="#01AEF0"/>
<path d="M19.4905 7.0918H14.8064C14.525 7.0918 14.2969 7.31945 14.2969 7.60027V12.3969C14.2969 12.6777 14.525 12.9054 14.8064 12.9054H19.4905C19.7719 12.9054 20 12.6777 20 12.3969V7.60027C20 7.31945 19.7719 7.0918 19.4905 7.0918Z" fill="#01AEF0"/>
<path d="M5.19362 14.186H0.509511C0.228116 14.186 0 14.4137 0 14.6945V19.4911C0 19.7719 0.228116 19.9996 0.509511 19.9996H5.19362C5.47501 19.9996 5.70313 19.7719 5.70313 19.4911V14.6945C5.70313 14.4137 5.47501 14.186 5.19362 14.186Z" fill="#01AEF0"/>
<path d="M12.3401 14.186H7.656C7.3746 14.186 7.14648 14.4137 7.14648 14.6945V19.4911C7.14648 19.7719 7.3746 19.9996 7.656 19.9996H12.3401C12.6215 19.9996 12.8496 19.7719 12.8496 19.4911V14.6945C12.8496 14.4137 12.6215 14.186 12.3401 14.186Z" fill="#01AEF0"/>
<path d="M19.4905 14.186H14.8064C14.525 14.186 14.2969 14.4137 14.2969 14.6945V19.4911C14.2969 19.7719 14.525 19.9996 14.8064 19.9996H19.4905C19.7719 19.9996 20 19.7719 20 19.4911V14.6945C20 14.4137 19.7719 14.186 19.4905 14.186Z" fill="#01AEF0"/>
</svg>
