<svg width="20" height="20" viewBox="0 0 20 20" fill="none" xmlns="http://www.w3.org/2000/svg">
<path d="M3.32339 0H0.326035C0.145971 0 0 0.145674 0 0.325372V3.39471C0 3.57441 0.145971 3.72009 0.326035 3.72009H3.32339C3.50345 3.72009 3.64942 3.57441 3.64942 3.39471V0.325372C3.64942 0.145674 3.50345 0 3.32339 0Z" fill="#01AEF0"/>
<path d="M8.67934 0H5.68199C5.50193 0 5.35596 0.145674 5.35596 0.325372V3.39471C5.35596 3.57441 5.50193 3.72009 5.68199 3.72009H8.67934C8.85941 3.72009 9.00538 3.57441 9.00538 3.39471V0.325372C9.00538 0.145674 8.85941 0 8.67934 0Z" fill="#01AEF0"/>
<path d="M14.0348 0H11.0375C10.8574 0 10.7114 0.145674 10.7114 0.325372V3.39471C10.7114 3.57441 10.8574 3.72009 11.0375 3.72009H14.0348C14.2149 3.72009 14.3608 3.57441 14.3608 3.39471V0.325372C14.3608 0.145674 14.2149 0 14.0348 0Z" fill="#01AEF0"/>
<path d="M19.3908 0H16.3934C16.2134 0 16.0674 0.145674 16.0674 0.325372V3.39471C16.0674 3.57441 16.2134 3.72009 16.3934 3.72009H19.3908C19.5708 3.72009 19.7168 3.57441 19.7168 3.39471V0.325372C19.7168 0.145674 19.5708 0 19.3908 0Z" fill="#01AEF0"/>
<path d="M3.32339 5.42627H0.326035C0.145971 5.42627 0 5.57194 0 5.75164V8.82098C0 9.00068 0.145971 9.14636 0.326035 9.14636H3.32339C3.50345 9.14636 3.64942 9.00068 3.64942 8.82098V5.75164C3.64942 5.57194 3.50345 5.42627 3.32339 5.42627Z" fill="#01AEF0"/>
<path d="M8.67886 5.42627H5.6815C5.50144 5.42627 5.35547 5.57194 5.35547 5.75164V8.82098C5.35547 9.00068 5.50144 9.14636 5.6815 9.14636H8.67886C8.85892 9.14636 9.00489 9.00068 9.00489 8.82098V5.75164C9.00489 5.57194 8.85892 5.42627 8.67886 5.42627Z" fill="#01AEF0"/>
<path d="M14.0353 5.42627H11.0379C10.8579 5.42627 10.7119 5.57194 10.7119 5.75164V8.82098C10.7119 9.00068 10.8579 9.14636 11.0379 9.14636H14.0353C14.2154 9.14636 14.3613 9.00068 14.3613 8.82098V5.75164C14.3613 5.57194 14.2154 5.42627 14.0353 5.42627Z" fill="#01AEF0"/>
<path d="M19.3908 5.42627H16.3934C16.2134 5.42627 16.0674 5.57194 16.0674 5.75164V8.82098C16.0674 9.00068 16.2134 9.14636 16.3934 9.14636H19.3908C19.5708 9.14636 19.7168 9.00068 19.7168 8.82098V5.75164C19.7168 5.57194 19.5708 5.42627 19.3908 5.42627Z" fill="#01AEF0"/>
<path d="M3.32339 10.8535H0.326035C0.145971 10.8535 0 10.9992 0 11.1789V14.2482C0 14.4279 0.145971 14.5736 0.326035 14.5736H3.32339C3.50345 14.5736 3.64942 14.4279 3.64942 14.2482V11.1789C3.64942 10.9992 3.50345 10.8535 3.32339 10.8535Z" fill="#01AEF0"/>
<path d="M8.67934 10.8535H5.68199C5.50193 10.8535 5.35596 10.9992 5.35596 11.1789V14.2482C5.35596 14.4279 5.50193 14.5736 5.68199 14.5736H8.67934C8.85941 14.5736 9.00538 14.4279 9.00538 14.2482V11.1789C9.00538 10.9992 8.85941 10.8535 8.67934 10.8535Z" fill="#01AEF0"/>
<path d="M14.0348 10.8535H11.0375C10.8574 10.8535 10.7114 10.9992 10.7114 11.1789V14.2482C10.7114 14.4279 10.8574 14.5736 11.0375 14.5736H14.0348C14.2149 14.5736 14.3608 14.4279 14.3608 14.2482V11.1789C14.3608 10.9992 14.2149 10.8535 14.0348 10.8535Z" fill="#01AEF0"/>
<path d="M19.3908 10.8535H16.3934C16.2134 10.8535 16.0674 10.9992 16.0674 11.1789V14.2482C16.0674 14.4279 16.2134 14.5736 16.3934 14.5736H19.3908C19.5708 14.5736 19.7168 14.4279 19.7168 14.2482V11.1789C19.7168 10.9992 19.5708 10.8535 19.3908 10.8535Z" fill="#01AEF0"/>
<path d="M19.3908 16.2798H16.3934C16.2134 16.2798 16.0674 16.4255 16.0674 16.6052V19.6745C16.0674 19.8542 16.2134 19.9999 16.3934 19.9999H19.3908C19.5708 19.9999 19.7168 19.8542 19.7168 19.6745V16.6052C19.7168 16.4255 19.5708 16.2798 19.3908 16.2798Z" fill="#01AEF0"/>
<path d="M14.0353 16.2798H11.0379C10.8579 16.2798 10.7119 16.4255 10.7119 16.6052V19.6745C10.7119 19.8542 10.8579 19.9999 11.0379 19.9999H14.0353C14.2154 19.9999 14.3613 19.8542 14.3613 19.6745V16.6052C14.3613 16.4255 14.2154 16.2798 14.0353 16.2798Z" fill="#01AEF0"/>
<path d="M3.32339 16.2798H0.326035C0.145971 16.2798 0 16.4255 0 16.6052V19.6745C0 19.8542 0.145971 19.9999 0.326035 19.9999H3.32339C3.50345 19.9999 3.64942 19.8542 3.64942 19.6745V16.6052C3.64942 16.4255 3.50345 16.2798 3.32339 16.2798Z" fill="#01AEF0"/>
<path d="M8.67886 16.2798H5.6815C5.50144 16.2798 5.35547 16.4255 5.35547 16.6052V19.6745C5.35547 19.8542 5.50144 19.9999 5.6815 19.9999H8.67886C8.85892 19.9999 9.00489 19.8542 9.00489 19.6745V16.6052C9.00489 16.4255 8.85892 16.2798 8.67886 16.2798Z" fill="#01AEF0"/>
</svg>
