<svg width="14" height="8" viewBox="0 0 14 8" fill="none" xmlns="http://www.w3.org/2000/svg">
<path d="M7.53304 7.04909L7.53304 7.04909L7.53438 7.04789L12.9859 2.14156C12.986 2.14148 12.9861 2.14139 12.9861 2.14131C13.0642 2.07139 13.1277 1.98677 13.173 1.89228C13.2184 1.79767 13.2447 1.69504 13.2503 1.59028C13.256 1.48551 13.2409 1.38066 13.2059 1.28174C13.171 1.18282 13.1168 1.09176 13.0466 1.01379C12.9764 0.935832 12.8915 0.872486 12.7968 0.827393C12.702 0.782301 12.5993 0.756351 12.4945 0.751027C12.3897 0.745703 12.2849 0.761111 12.1861 0.796366C12.0875 0.83157 11.9967 0.885875 11.919 0.956181C11.9189 0.95628 11.9188 0.95638 11.9187 0.95648L7.00083 5.38416L2.083 0.956479C2.08289 0.95638 2.08278 0.95628 2.08267 0.956181C2.005 0.885882 1.91423 0.831573 1.81555 0.796366L1.73165 1.03152L1.81554 0.796365C1.71672 0.761109 1.61191 0.745703 1.50713 0.751027C1.40235 0.756351 1.29964 0.7823 1.2049 0.827392C1.11017 0.87248 1.02526 0.935822 0.955042 1.01379C0.884819 1.09177 0.830702 1.18283 0.795753 1.28174C0.760799 1.38066 0.745707 1.48551 0.751352 1.59029C0.756995 1.69506 0.783266 1.79768 0.828641 1.89228C0.873968 1.98677 0.937474 2.07139 1.01553 2.14132C1.01562 2.1414 1.01571 2.14148 1.0158 2.14156L6.46728 7.04789L6.46728 7.04789L6.46833 7.04882C6.54826 7.11996 6.64174 7.17424 6.74315 7.20839C6.84396 7.24235 6.95055 7.25573 7.0566 7.24776C7.23307 7.23636 7.40072 7.16646 7.53304 7.04909Z" fill="#01AEF0" stroke="#01AEF0" stroke-width="0.5"/>
</svg>
