<svg width="8" height="4" viewBox="0 0 8 4" fill="none" xmlns="http://www.w3.org/2000/svg">
<path d="M7.84963 0.140376C7.8973 0.182518 7.93512 0.232564 7.96092 0.28765C7.98672 0.342736 8 0.401783 8 0.461415C8 0.521046 7.98672 0.580093 7.96092 0.635179C7.93512 0.690265 7.8973 0.74031 7.84963 0.782453L4.36716 3.86692C4.31955 3.90911 4.263 3.94258 4.20076 3.96541C4.13852 3.98825 4.07181 4 4.00443 4C3.93706 4 3.87034 3.98825 3.8081 3.96541C3.74586 3.94258 3.68932 3.90911 3.6417 3.86692L0.15923 0.782453C0.109661 0.740697 0.0700379 0.690581 0.042697 0.635059C0.0153561 0.579536 0.000850719 0.519731 3.5805e-05 0.459169C-0.000779109 0.398607 0.0121127 0.338513 0.0379515 0.28243C0.0637904 0.226347 0.102053 0.17541 0.150485 0.132621C0.198916 0.0898322 0.256536 0.0560574 0.319947 0.0332877C0.383359 0.010518 0.45128 -0.000785918 0.519706 4.25877e-05C0.588131 0.000871093 0.655677 0.0138146 0.718361 0.0381109C0.781046 0.0624072 0.837601 0.0975651 0.884692 0.141511L4.00443 2.90494L7.12417 0.141511C7.1717 0.0992467 7.22818 0.0656888 7.29038 0.0427561C7.35257 0.0198233 7.41926 0.00796508 7.48664 0.0078597C7.55401 0.00775432 7.62075 0.0194042 7.68304 0.0421424C7.74532 0.0648806 7.80193 0.0982611 7.84963 0.140376Z" fill="black"/>
</svg>
