<svg width="24" height="25" viewBox="0 0 24 25" fill="none" xmlns="http://www.w3.org/2000/svg">
<path d="M21.97 18.8202C21.97 19.1802 21.89 19.5502 21.72 19.9102C21.55 20.2702 21.33 20.6102 21.04 20.9302C20.55 21.4702 20.01 21.8602 19.4 22.1102C18.8 22.3602 18.15 22.4902 17.45 22.4902C16.43 22.4902 15.34 22.2502 14.19 21.7602C13.04 21.2702 11.89 20.6102 10.75 19.7802C9.6 18.9402 8.51 18.0102 7.47 16.9802C6.44 15.9402 5.51 14.8502 4.68 13.7102C3.86 12.5702 3.2 11.4302 2.72 10.3002C2.24 9.16023 2 8.07023 2 7.03023C2 6.35023 2.12 5.70023 2.36 5.10023C2.6 4.49023 2.98 3.93023 3.51 3.43023C4.15 2.80023 4.85 2.49023 5.59 2.49023C5.87 2.49023 6.15 2.55023 6.4 2.67023C6.66 2.79023 6.89 2.97023 7.07 3.23023L9.39 6.50023C9.57 6.75023 9.7 6.98023 9.79 7.20023C9.88 7.41023 9.93 7.62023 9.93 7.81023C9.93 8.05023 9.86 8.29023 9.72 8.52023C9.59 8.75023 9.4 8.99023 9.16 9.23023L8.4 10.0202C8.29 10.1302 8.24 10.2602 8.24 10.4202C8.24 10.5002 8.25 10.5702 8.27 10.6502C8.3 10.7302 8.33 10.7902 8.35 10.8502C8.53 11.1802 8.84 11.6102 9.28 12.1302C9.73 12.6502 10.21 13.1802 10.73 13.7102C11.27 14.2402 11.79 14.7302 12.32 15.1802C12.84 15.6202 13.27 15.9202 13.61 16.1002C13.66 16.1202 13.72 16.1502 13.79 16.1802C13.87 16.2102 13.95 16.2202 14.04 16.2202C14.21 16.2202 14.34 16.1602 14.45 16.0502L15.21 15.3002C15.46 15.0502 15.7 14.8602 15.93 14.7402C16.16 14.6002 16.39 14.5302 16.64 14.5302C16.83 14.5302 17.03 14.5702 17.25 14.6602C17.47 14.7502 17.7 14.8802 17.95 15.0502L21.26 17.4002C21.52 17.5802 21.7 17.7902 21.81 18.0402C21.91 18.2902 21.97 18.5402 21.97 18.8202Z" stroke="#FF9D18" stroke-opacity="0.9" stroke-width="1.5" stroke-miterlimit="10"/>
</svg>
