<svg width="30" height="30" viewBox="0 0 30 30" fill="none" xmlns="http://www.w3.org/2000/svg">
<path fill-rule="evenodd" clip-rule="evenodd" d="M8.60829 8H6.06929C4.74329 8 3.60129 8.936 3.34129 10.236C2.64729 13.706 0.873288 22.577 0.0542881 26.673C-0.109712 27.49 0.102288 28.337 0.630288 28.982C1.15829 29.626 1.94829 30 2.78129 30C8.00429 30 21.2123 30 26.4353 30C27.2683 30 28.0583 29.626 28.5863 28.982C29.1143 28.337 29.3263 27.49 29.1623 26.673L25.8753 10.236C25.6153 8.936 24.4733 8 23.1473 8H20.6083V5.976C20.6083 4.391 19.9783 2.871 18.8583 1.75C17.7373 0.63 16.2173 0 14.6323 0C14.6163 0 14.6003 0 14.5843 0C12.9993 0 11.4793 0.63 10.3583 1.75C9.23829 2.871 8.60829 4.391 8.60829 5.976V8V8ZM20.6083 10V13C20.6083 13.552 20.1603 14 19.6083 14C19.0563 14 18.6083 13.552 18.6083 13V10H10.6083V13C10.6083 13.552 10.1603 14 9.60829 14C9.05629 14 8.60829 13.552 8.60829 13V10H6.06829C5.69629 10 5.37529 10.263 5.30229 10.628L2.01529 27.065C1.96929 27.295 2.02829 27.533 2.17729 27.714C2.32529 27.895 2.54729 28 2.78129 28C8.00429 28 21.2123 28 26.4353 28C26.6693 28 26.8913 27.895 27.0393 27.714C27.1883 27.533 27.2473 27.295 27.2013 27.065L23.9143 10.628C23.8413 10.263 23.5203 10 23.1473 10H20.6083V10ZM18.6083 8V5.976C18.6083 4.922 18.1893 3.91 17.4433 3.165C16.6983 2.419 15.6863 2 14.6323 2H14.5843C13.5303 2 12.5183 2.419 11.7733 3.165C11.0273 3.91 10.6083 4.922 10.6083 5.976V8H18.6083Z" fill="black"/>
</svg>
