<svg width="14" height="14" viewBox="0 0 14 14" fill="none" xmlns="http://www.w3.org/2000/svg">
<path d="M13.8659 5.7898C13.9401 6.13011 13.7258 6.46652 13.386 6.54303L6.14833 8.17271C4.78311 8.48011 4.03936 10.0459 5.28413 10.6853C6.12288 11.0894 7.07959 11.1791 7.97929 10.9381C8.56385 10.8159 9.11789 10.5782 9.60869 10.239C9.78044 10.1204 9.94323 9.99009 10.096 9.84935C10.6074 9.37815 11.2886 9.06282 11.9678 9.21205C12.9632 9.43076 13.5317 10.5071 12.9001 11.3069C12.6077 11.677 12.2756 12.0164 11.9083 12.3187C10.9472 13.0454 9.83188 13.5431 8.64782 13.7739C7.7342 14.0113 6.78189 14.0624 5.84797 13.9242C4.91405 13.786 4.01775 13.4613 3.21281 12.9697C2.4414 12.4814 1.77809 11.8415 1.26348 11.089C0.748857 10.3366 0.393746 9.48742 0.219872 8.59352C-0.0123812 7.69579 -0.0612453 6.76073 0.0761798 5.84383C0.213605 4.92693 0.534519 4.04687 1.01987 3.25591C1.49303 2.47963 2.12307 1.80989 2.86997 1.28922C3.61686 0.768554 4.46429 0.408347 5.35841 0.231483C6.27192 -0.0114723 7.22593 -0.0638748 8.16071 0.0775577C9.09548 0.21899 9.99087 0.551211 10.7908 1.05341C11.5989 1.59397 12.2882 2.29259 12.8168 3.10681C13.3454 3.92104 13.7024 4.83386 13.8659 5.7898ZM7.95529 5.08452C9.0617 4.83637 9.54907 3.53743 8.49597 3.11707C7.75122 2.80727 6.92636 2.74369 6.14264 2.93565C5.27842 3.10739 4.49726 3.56365 3.92472 4.23109C3.31403 5.04972 4.18915 5.92921 5.18572 5.7057L7.95529 5.08452Z" fill="#FF9D18"/>
</svg>
