<svg width="19" height="19" viewBox="0 0 19 19" fill="none" xmlns="http://www.w3.org/2000/svg">
<g clip-path="url(#clip0_256_4890)">
<path fill-rule="evenodd" clip-rule="evenodd" d="M16.5238 0C17.7931 0 18.8235 1.03051 18.8235 2.29978V16.5238C18.8235 17.793 17.793 18.8235 16.5238 18.8235H12.6095V11.7311H15.058L15.5239 8.69353H12.6095V6.72232C12.6095 5.89132 13.0166 5.08129 14.322 5.08129H15.6471V2.49526C15.6471 2.49526 14.4445 2.29004 13.2948 2.29004C10.8945 2.29004 9.32566 3.74478 9.32566 6.37842V8.69353H6.65754V11.7311H9.32566V18.8235H2.29978C1.03051 18.8235 0 17.793 0 16.5238V2.29978C0 1.03051 1.03048 0 2.29978 0H16.5238V0Z" fill="white"/>
</g>
<defs>
<clipPath id="clip0_256_4890">
<rect width="18.8235" height="18.8235" rx="9.41177" fill="white"/>
</clipPath>
</defs>
</svg>
