<svg width="13" height="10" viewBox="0 0 13 10" fill="none" xmlns="http://www.w3.org/2000/svg">
<path d="M1.90735e-06 4.99867C0.00738716 4.81992 0.08531 4.61327 0.215115 4.48299L4.45048 0.232815C4.73742 -0.0108038 5.28784 -0.111252 5.60856 0.170385C5.92449 0.447834 5.91507 0.985661 5.60044 1.26415L2.62251 4.24864H12.2058C12.6444 4.24864 13 4.58451 13 4.99869C13 5.41288 12.6444 5.74874 12.2058 5.74874H2.62251L5.60044 8.73324C5.8715 8.98959 5.92153 9.54659 5.60856 9.827C5.29578 10.1076 4.72577 10.018 4.45048 9.7644L0.215115 5.51422C0.0701704 5.36878 -0.000367165 5.19818 1.90735e-06 4.99867Z" fill="#2B2828" fill-opacity="0.8"/>
</svg>
