<svg width="18" height="18" viewBox="0 0 18 18" fill="none" xmlns="http://www.w3.org/2000/svg">
<path d="M17.3083 14.2748C17.3083 14.5748 17.2416 14.8832 17.1 15.1832C16.9583 15.4832 16.775 15.7665 16.5333 16.0332C16.125 16.4832 15.675 16.8082 15.1666 17.0165C14.6666 17.2248 14.125 17.3332 13.5416 17.3332C12.6916 17.3332 11.7833 17.1332 10.825 16.7248C9.86663 16.3165 8.90829 15.7665 7.95829 15.0748C6.99996 14.3748 6.09163 13.5998 5.22496 12.7415C4.36663 11.8748 3.59163 10.9665 2.89996 10.0165C2.21663 9.0665 1.66663 8.1165 1.26663 7.17484C0.866626 6.22484 0.666626 5.3165 0.666626 4.44984C0.666626 3.88317 0.766626 3.3415 0.966626 2.8415C1.16663 2.33317 1.48329 1.8665 1.92496 1.44984C2.45829 0.924837 3.04163 0.666504 3.65829 0.666504C3.89163 0.666504 4.12496 0.716504 4.33329 0.816504C4.54996 0.916504 4.74163 1.0665 4.89163 1.28317L6.82496 4.00817C6.97496 4.2165 7.08329 4.40817 7.15829 4.5915C7.23329 4.7665 7.27496 4.9415 7.27496 5.09984C7.27496 5.29984 7.21663 5.49984 7.09996 5.6915C6.99163 5.88317 6.83329 6.08317 6.63329 6.28317L5.99996 6.9415C5.90829 7.03317 5.86663 7.1415 5.86663 7.27484C5.86663 7.3415 5.87496 7.39984 5.89163 7.4665C5.91663 7.53317 5.94163 7.58317 5.95829 7.63317C6.10829 7.90817 6.36663 8.2665 6.73329 8.69984C7.10829 9.13317 7.50829 9.57484 7.94163 10.0165C8.39163 10.4582 8.82496 10.8665 9.26663 11.2415C9.69996 11.6082 10.0583 11.8582 10.3416 12.0082C10.3833 12.0248 10.4333 12.0498 10.4916 12.0748C10.5583 12.0998 10.625 12.1082 10.7 12.1082C10.8416 12.1082 10.95 12.0582 11.0416 11.9665L11.675 11.3415C11.8833 11.1332 12.0833 10.9748 12.275 10.8748C12.4666 10.7582 12.6583 10.6998 12.8666 10.6998C13.025 10.6998 13.1916 10.7332 13.375 10.8082C13.5583 10.8832 13.75 10.9915 13.9583 11.1332L16.7166 13.0915C16.9333 13.2415 17.0833 13.4165 17.175 13.6248C17.2583 13.8332 17.3083 14.0415 17.3083 14.2748Z" stroke="white" stroke-opacity="0.9" stroke-miterlimit="10"/>
</svg>
