<svg width="30" height="30" viewBox="0 0 30 30" fill="none" xmlns="http://www.w3.org/2000/svg">
<path d="M15.1807 13.5C15.0681 13.4887 14.9329 13.4887 14.809 13.5C12.1289 13.4098 10.0005 11.2114 10.0005 8.50564C10.0005 5.74352 12.2302 3.5 15.0005 3.5C17.7595 3.5 20.0005 5.74352 20.0005 8.50564C19.9892 11.2114 17.8608 13.4098 15.1807 13.5Z" stroke="#292D32" stroke-width="2" stroke-linecap="round" stroke-linejoin="round"/>
<path d="M8.9499 18.2C5.9249 20.225 5.9249 23.525 8.9499 25.5375C12.3874 27.8375 18.0249 27.8375 21.4624 25.5375C24.4874 23.5125 24.4874 20.2125 21.4624 18.2C18.0374 15.9125 12.3999 15.9125 8.9499 18.2Z" stroke="#292D32" stroke-width="2" stroke-linecap="round" stroke-linejoin="round"/>
</svg>
