<svg width="13" height="10" viewBox="0 0 13 10" fill="none" xmlns="http://www.w3.org/2000/svg">
<path d="M13 4.99867C12.9926 4.81992 12.9147 4.61327 12.7849 4.48299L8.54952 0.232815C8.26258 -0.0108038 7.71216 -0.111252 7.39144 0.170385C7.07551 0.447834 7.08493 0.985661 7.39956 1.26415L10.3775 4.24864H0.794161C0.355635 4.24864 0 4.58451 0 4.99869C0 5.41288 0.355621 5.74874 0.794161 5.74874H10.3775L7.39956 8.73324C7.1285 8.98959 7.07847 9.54659 7.39144 9.827C7.70422 10.1076 8.27423 10.018 8.54952 9.7644L12.7849 5.51422C12.9298 5.36878 13.0004 5.19818 13 4.99867Z" fill="#2B2828" fill-opacity="0.8"/>
</svg>
