<svg width="16" height="9" viewBox="0 0 16 9" fill="none" xmlns="http://www.w3.org/2000/svg">
<path d="M7.48906 0.587626L7.48905 0.587621L7.48771 0.588827L1.19746 6.25005C1.19737 6.25013 1.19727 6.25022 1.19717 6.25031C1.11088 6.32761 1.04065 6.42117 0.990528 6.52566C0.940352 6.63026 0.911323 6.74372 0.905085 6.85955C0.898845 6.97538 0.915531 7.09131 0.954175 7.20068C0.992821 7.31005 1.05267 7.41072 1.1303 7.49692C1.20792 7.58312 1.30178 7.65315 1.40653 7.70301C1.51128 7.75286 1.62484 7.78155 1.74068 7.78744C1.85654 7.79332 1.97241 7.77629 2.08166 7.73731C2.19077 7.69838 2.29115 7.63833 2.37705 7.56058C2.37716 7.56048 2.37726 7.56039 2.37737 7.56029L8.07762 2.42817L13.7779 7.56029C13.778 7.56037 13.778 7.56045 13.7781 7.56053C13.864 7.6383 13.9644 7.69837 14.0736 7.73731C14.1828 7.77629 14.2987 7.79332 14.4145 7.78744C14.5304 7.78155 14.644 7.75286 14.7487 7.70301C14.8534 7.65316 14.9473 7.58313 15.0249 7.49692C15.1026 7.41071 15.1624 7.31003 15.2011 7.20068C15.2397 7.09131 15.2564 6.97538 15.2501 6.85955C15.2439 6.7437 15.2149 6.63024 15.1647 6.52566C15.1146 6.42122 15.0444 6.32767 14.9581 6.25037C14.958 6.25026 14.9579 6.25015 14.9578 6.25005L8.66752 0.588827L8.66752 0.588823L8.66647 0.587893C8.57811 0.509251 8.47477 0.449252 8.36267 0.41149C8.25116 0.373931 8.13326 0.359141 8.01595 0.367984C7.82079 0.38055 7.63538 0.457833 7.48906 0.587626Z" fill="#FF9D18" stroke="#FF9D18" stroke-width="0.5"/>
</svg>
