<svg width="20" height="20" viewBox="0 0 20 20" fill="none" xmlns="http://www.w3.org/2000/svg">
<path d="M14.9737 13.8869C16.3683 12.2125 17.0638 10.0649 16.9154 7.89083C16.767 5.71675 15.7861 3.68359 14.1768 2.21429C12.5675 0.744989 10.4537 -0.0473181 8.27516 0.00218773C6.09659 0.0516936 4.02097 0.939201 2.48008 2.48008C0.939201 4.02097 0.0516936 6.09659 0.00218773 8.27516C-0.0473181 10.4537 0.744989 12.5675 2.21429 14.1768C3.68359 15.7861 5.71675 16.767 7.89083 16.9154C10.0649 17.0638 12.2125 16.3683 13.8869 14.9737L18.6975 19.7842C18.8424 19.9243 19.0366 20.0017 19.2381 20C19.4396 19.9982 19.6324 19.9174 19.7749 19.7749C19.9174 19.6324 19.9982 19.4396 20 19.2381C20.0017 19.0366 19.9243 18.8424 19.7842 18.6975L14.9737 13.8869ZM1.56335 8.48063C1.56335 7.11252 1.96904 5.77513 2.72912 4.63759C3.4892 3.50005 4.56953 2.61345 5.8335 2.08989C7.09747 1.56634 8.48831 1.42935 9.83013 1.69626C11.1719 1.96316 12.4045 2.62197 13.3719 3.58937C14.3393 4.55677 14.9981 5.78931 15.265 7.13114C15.5319 8.47296 15.3949 9.86379 14.8714 11.1278C14.3478 12.3917 13.4612 13.4721 12.3237 14.2321C11.1861 14.9922 9.84874 15.3979 8.48063 15.3979C6.64668 15.3959 4.88842 14.6664 3.59162 13.3696C2.29482 12.0728 1.56538 10.3146 1.56335 8.48063V8.48063Z" fill="white"/>
</svg>
