<svg width="20" height="19" viewBox="0 0 20 19" fill="none" xmlns="http://www.w3.org/2000/svg">
<path d="M10.3235 0C5.07678 0 0.823486 4.25329 0.823486 9.5C0.823486 14.7467 5.07678 19 10.3235 19C15.5702 19 19.8235 14.7467 19.8235 9.5C19.8235 4.25329 15.5702 0 10.3235 0ZM15.2612 6.00934L13.5739 14.0645C13.5535 14.1619 13.509 14.2526 13.4443 14.3283C13.3797 14.404 13.2971 14.4623 13.204 14.4977C13.111 14.5332 13.0106 14.5447 12.912 14.5312C12.8133 14.5177 12.7197 14.4796 12.6396 14.4204L10.1854 12.6072L8.69847 14.01C8.679 14.0283 8.65608 14.0426 8.63103 14.052C8.60598 14.0615 8.5793 14.0658 8.55257 14.0648C8.52583 14.0637 8.49956 14.0574 8.47529 14.0461C8.45103 14.0349 8.42925 14.0189 8.41124 13.9991L8.37929 13.964L8.63764 11.4637L13.2943 7.20909C13.3173 7.18808 13.3316 7.15921 13.3344 7.12817C13.3372 7.09712 13.3282 7.06616 13.3093 7.04139C13.2904 7.01662 13.2629 6.99983 13.2322 6.99435C13.2015 6.98887 13.1699 6.99509 13.1436 7.01178L7.1883 10.781L4.62349 9.9196C4.55529 9.89669 4.49585 9.85323 4.45333 9.7952C4.4108 9.73717 4.38728 9.66741 4.38598 9.59548C4.38468 9.52355 4.40566 9.45298 4.44606 9.39345C4.48646 9.33392 4.54429 9.28834 4.61161 9.26298L14.6467 5.48269C14.7241 5.45356 14.808 5.44576 14.8894 5.4601C14.9709 5.47445 15.047 5.51041 15.1098 5.56424C15.1726 5.61806 15.2198 5.68777 15.2464 5.76607C15.273 5.84437 15.2782 5.92839 15.2612 6.00934Z" fill="white"/>
</svg>
