<svg width="20" height="19" viewBox="0 0 20 19" fill="none" xmlns="http://www.w3.org/2000/svg">
<g clip-path="url(#clip0_256_4888)">
<path d="M11.2909 0H8.35609C4.20827 0 0.823486 3.57283 0.823486 7.95109C0.823486 10.863 2.31044 13.5272 4.73653 14.9315V18.0707C4.73653 18.587 5.12783 19 5.61696 19C5.85175 19 6.08653 18.8967 6.24305 18.7315L8.92349 15.9022H11.2909C15.4387 15.9022 18.8235 12.3293 18.8235 7.95109C18.8235 3.57283 15.4583 0 11.2909 0ZM9.51044 3.44891C9.54957 3.42826 9.54957 3.40761 9.68653 3.40761C9.72566 3.40761 9.76479 3.40761 9.80392 3.40761C9.92131 3.40761 10.0974 3.42826 10.1952 3.42826C10.6648 3.49022 10.9778 3.55217 11.4278 3.77935C11.8583 3.98587 12.1322 4.19239 12.4844 4.56413C12.817 4.91522 13.0126 5.1837 13.2083 5.59674C13.4822 6.175 13.6387 6.85652 13.6778 7.62065C13.6778 7.88913 13.6778 7.90978 13.6387 7.95109C13.5996 7.99239 13.5604 8.01304 13.5017 8.01304C13.4431 8.01304 13.4039 7.97174 13.3648 7.93043C13.3452 7.88913 13.3452 7.86848 13.3257 7.66196C13.3061 7.33152 13.2865 7.125 13.2474 6.87717C13.0713 5.86522 12.6017 5.05978 11.8583 4.48152C11.2517 4.00652 10.7039 3.82065 9.84305 3.7587C9.56914 3.73804 9.54957 3.73804 9.51044 3.69674C9.47131 3.67609 9.45175 3.61413 9.45175 3.57283C9.47131 3.53152 9.47131 3.49022 9.51044 3.44891ZM10.9974 5.28696C10.7039 5.10109 10.2344 4.95652 9.84305 4.93587C9.72566 4.91522 9.66696 4.91522 9.62783 4.85326C9.56914 4.7913 9.56914 4.7087 9.60827 4.64674C9.62783 4.60543 9.68653 4.54348 10.0583 4.60543C10.9191 4.72935 11.5844 5.14239 12.0148 5.80326C12.2496 6.175 12.4061 6.6087 12.4648 7.0837C12.4844 7.22826 12.4844 7.53804 12.4648 7.6C12.4648 7.62065 12.4061 7.68261 12.3865 7.70326C12.3474 7.72391 12.2691 7.72391 12.23 7.68261C12.1909 7.66196 12.1322 7.6413 12.1322 7.37283C12.1322 6.95978 12.0344 6.52609 11.8583 6.19565C11.6431 5.82391 11.3496 5.51413 10.9974 5.28696ZM11.2517 7.41413C11.2126 7.45543 11.0952 7.45543 11.0365 7.41413C10.9974 7.37283 10.9778 7.35217 10.9778 7.22826C10.9583 7.00109 10.9191 6.85652 10.8604 6.71196C10.7235 6.40217 10.4691 6.23696 10.0387 6.175C9.86262 6.15435 9.84305 6.1337 9.80392 6.09239C9.76479 6.05109 9.76479 6.00978 9.76479 5.94783C9.78436 5.88587 9.80392 5.84457 9.84305 5.82391C9.88218 5.80326 9.88218 5.80326 9.92131 5.80326C9.94088 5.80326 9.96044 5.80326 9.99957 5.80326C10.0583 5.80326 10.1757 5.82391 10.2344 5.82391C10.5083 5.88587 10.7039 5.98913 10.88 6.15435C11.1148 6.38152 11.2322 6.62935 11.2909 7.02174C11.33 7.33152 11.3104 7.37283 11.2517 7.41413ZM13.9126 11.338C13.8539 11.4826 13.7365 11.6685 13.6583 11.7924C13.5017 12.0196 13.3061 12.2467 13.13 12.3913C13.0909 12.4326 13.0517 12.4533 13.0322 12.4739C12.9931 12.4946 12.9735 12.5152 12.9539 12.5359C12.7974 12.6391 12.68 12.7217 12.5431 12.763C12.4452 12.8043 12.3474 12.8043 12.23 12.825C12.1909 12.825 12.1713 12.825 12.1322 12.825C11.9561 12.825 11.8387 12.7837 11.6039 12.6804C11.4083 12.5978 11.1931 12.4946 10.9778 12.3913L10.9191 12.3707C10.7235 12.2674 10.5278 12.1641 10.3322 12.0609C10.3126 12.0402 10.2735 12.0402 10.2539 12.0196C10.0778 11.9163 9.88218 11.7924 9.70609 11.6891L9.6474 11.6685L9.62783 11.6478C8.41479 10.863 7.3974 9.89239 6.51696 8.67391C6.4387 8.55 6.36044 8.44674 6.28218 8.32283C6.24305 8.26087 6.20392 8.21957 6.16479 8.15761L6.0474 7.99239C5.9887 7.88913 5.91044 7.78587 5.85175 7.68261L5.83218 7.66196C5.77349 7.5587 5.71479 7.45543 5.6561 7.35217L5.63653 7.33152C5.34305 6.81522 5.10827 6.27826 4.91262 5.7413C4.71696 5.16304 4.65827 4.83261 4.87349 4.41957C4.97131 4.25435 5.30392 3.92391 5.5387 3.73804C5.94957 3.42826 6.12566 3.30435 6.30175 3.2837C6.41914 3.26304 6.63436 3.26304 6.77131 3.325C6.83001 3.34565 6.92783 3.40761 6.98653 3.42826C7.31914 3.65543 8.10175 4.72935 8.35609 5.225C8.53218 5.57609 8.57131 5.82391 8.51262 6.05109C8.45392 6.27826 8.33653 6.40217 7.98436 6.71196C7.90609 6.77391 7.82783 6.83587 7.76914 6.89783C7.74957 6.91848 7.74957 6.91848 7.73001 6.93913L7.57349 6.81522L7.67131 6.91848L7.71044 6.95978C7.69088 7.00109 7.65175 7.10435 7.65175 7.18696C7.65175 7.37283 7.7887 7.78587 7.98436 8.13696C8.14088 8.38478 8.41479 8.71522 8.6887 8.9837C9.00175 9.29348 9.29523 9.5 9.60827 9.64457C9.96044 9.83043 10.1952 9.89239 10.3126 9.83043C10.3322 9.80978 10.3517 9.80978 10.3713 9.78913C10.3909 9.76848 10.4691 9.68587 10.6061 9.5C10.7822 9.27283 10.88 9.14891 11.017 9.08696C11.0561 9.0663 11.0952 9.04565 11.1539 9.025C11.4083 8.94239 11.6626 8.96304 11.9365 9.08696C12.1126 9.19022 12.4648 9.39674 12.6996 9.58261C12.9931 9.78913 13.6583 10.3467 13.7561 10.4707C13.8735 10.6152 13.9322 10.7804 13.9322 10.9663C13.9909 11.0489 13.9517 11.1935 13.9126 11.338Z" fill="white"/>
</g>
<defs>
<clipPath id="clip0_256_4888">
<rect width="18.8235" height="18.8235" fill="white" transform="translate(0.823486)"/>
</clipPath>
</defs>
</svg>
