<svg width="20" height="19" viewBox="0 0 20 19" fill="none" xmlns="http://www.w3.org/2000/svg">
<g clip-path="url(#clip0_256_4885)">
<path d="M10.0587 0.39209C5.11749 0.39209 1.03906 4.47052 1.03906 9.4117C1.03906 11.2941 1.58808 13.0195 2.60769 14.5097L1.58808 17.5686C1.50965 17.7254 1.58808 17.8823 1.66651 17.9607C1.82338 18.0392 1.98024 18.1176 2.1371 18.0392L5.27436 17.0195C6.68612 17.9607 8.41161 18.4313 10.0587 18.4313C14.9998 18.4313 19.0783 14.3529 19.0783 9.4117C19.0783 4.47052 14.9998 0.39209 10.0587 0.39209ZM15.4704 13.098C15.2351 13.8039 14.294 14.4313 13.5097 14.5882C13.3528 14.5882 13.1959 14.6666 12.9606 14.6666C12.3332 14.6666 11.5489 14.4313 10.294 13.9607C8.72534 13.3333 7.15671 11.9215 5.90181 10.1176L5.82338 10.0391C5.35279 9.4117 4.64691 8.31366 4.64691 7.13719C4.64691 5.80386 5.35279 5.09797 5.58808 4.78425C5.90181 4.47052 6.29396 4.31366 6.76455 4.31366C6.84298 4.31366 6.92142 4.31366 6.99985 4.31366H7.07828C7.47044 4.31366 7.70573 4.47052 7.94102 4.94111L8.09789 5.25484C8.33318 5.80385 8.64691 6.6666 8.72534 6.82346C8.8822 7.13719 8.8822 7.37248 8.72534 7.60778C8.64691 7.76464 8.56847 7.9215 8.41161 8.07837C8.33318 8.1568 8.25475 8.23523 8.25475 8.31366C8.17632 8.39209 8.09789 8.47052 8.01945 8.54895C8.01945 8.62738 8.01945 8.62739 8.01945 8.62739C8.25475 9.01954 8.72534 9.72542 9.35279 10.2744C10.2155 11.0588 10.843 11.2941 11.1567 11.4509H11.2351C11.3136 11.4509 11.392 11.5293 11.392 11.4509C11.5489 11.2941 11.7057 10.9803 11.941 10.745L12.0195 10.6666C12.2548 10.3529 12.5685 10.2744 12.7253 10.2744C12.8038 10.2744 12.9606 10.2744 13.0391 10.3529C13.1175 10.3529 13.2744 10.4313 14.7646 11.2156L14.9214 11.2941C15.1567 11.3725 15.3136 11.4509 15.392 11.6862C15.7057 11.8431 15.6273 12.549 15.4704 13.098Z" fill="white"/>
</g>
<defs>
<clipPath id="clip0_256_4885">
<rect width="18.8235" height="18.8235" fill="white" transform="translate(0.646973)"/>
</clipPath>
</defs>
</svg>
